<svg width="430" height="384" viewBox="0 0 430 384" fill="none" xmlns="http://www.w3.org/2000/svg">
<g filter="url(#filter0_d_1_94)">
<mask id="mask0_1_94" style="mask-type:luminance" maskUnits="userSpaceOnUse" x="9" y="5" width="411" height="365">
<path d="M404.525 5.83472H24.1653C16.1245 5.83472 9.60608 12.3531 9.60608 20.3939V355.256C9.60608 363.297 16.1245 369.815 24.1653 369.815H404.525C412.566 369.815 419.085 363.297 419.085 355.256V20.3939C419.085 12.3531 412.566 5.83472 404.525 5.83472Z" fill="white"/>
</mask>
<g mask="url(#mask0_1_94)">
<path d="M404.525 5.83472H24.1653C16.1245 5.83472 9.60608 12.3531 9.60608 20.3939V355.256C9.60608 363.297 16.1245 369.815 24.1653 369.815H404.525C412.566 369.815 419.085 363.297 419.085 355.256V20.3939C419.085 12.3531 412.566 5.83472 404.525 5.83472Z" fill="url(#paint0_radial_1_94)" fill-opacity="0.6"/>
<path d="M404.525 5.83472H24.1653C16.1245 5.83472 9.60608 12.3531 9.60608 20.3939V355.256C9.60608 363.297 16.1245 369.815 24.1653 369.815H404.525C412.566 369.815 419.085 363.297 419.085 355.256V20.3939C419.085 12.3531 412.566 5.83472 404.525 5.83472Z" fill="url(#paint1_radial_1_94)" fill-opacity="0.05"/>
<mask id="mask1_1_94" style="mask-type:alpha" maskUnits="userSpaceOnUse" x="9" y="5" width="411" height="365">
<path d="M419.085 5.83472H9.60608V369.815H419.085V5.83472Z" fill="url(#paint2_radial_1_94)"/>
</mask>
<g mask="url(#mask1_1_94)">
<mask id="mask2_1_94" style="mask-type:luminance" maskUnits="userSpaceOnUse" x="22" y="18" width="381" height="332">
<path d="M388.146 18.574H36.9048C28.8639 18.574 22.3456 25.0924 22.3456 33.1332V335.237C22.3456 343.278 28.8639 349.796 36.9048 349.796H388.146C396.187 349.796 402.706 343.278 402.706 335.237V33.1332C402.706 25.0924 396.187 18.574 388.146 18.574Z" fill="white"/>
</mask>
<g mask="url(#mask2_1_94)">
<path d="M-14.9627 118.669H209.132L235.548 83.1807H407.255" stroke="#252527" stroke-linecap="round"/>
<path d="M-9.50302 109.569H200.298L227.893 74.0811H407.255" stroke="#252527" stroke-linecap="round"/>
<path d="M-16.7826 100.47H188.941L218.05 64.9817H407.255" stroke="#252527" stroke-linecap="round"/>
<path d="M-11.3229 91.3702H180.107L210.393 55.8821H407.255" stroke="#252527" stroke-linecap="round"/>
<path d="M-17.6926 82.2706H169.381L201.097 46.7825H407.255" stroke="#252527" stroke-linecap="round"/>
<path d="M-14.0528 73.1712H159.286L192.348 37.6831H407.255" stroke="#252527" stroke-linecap="round"/>
<path d="M-17.6926 64.0716H150.452L184.693 28.5835H407.255" stroke="#252527" stroke-linecap="round"/>
<path d="M-14.0528 54.972H140.356L175.943 19.4839H407.255" stroke="#252527" stroke-linecap="round"/>
<path d="M-11.3229 45.8726H129.63L166.646 10.3845H407.255" stroke="#252527" stroke-linecap="round"/>
<path d="M-20.4224 36.773H123.32L161.179 1.28491L407.255 1.28492" stroke="#252527" stroke-linecap="round"/>
<path d="M-13.1428 27.6737H115.748L154.616 -7.81445L407.255 -7.81444" stroke="#252527" stroke-linecap="round"/>
<path d="M-27.7021 18.5741H105.653L145.867 -16.9141H407.255" stroke="#252527" stroke-linecap="round"/>
<path d="M103.331 127.768H213.038L240.632 92.28H419.994" stroke="#252527" stroke-linecap="round"/>
<path d="M103.331 136.868H216.943L245.716 101.38H432.734" stroke="#252527" stroke-linecap="round"/>
<path d="M103.331 145.967H220.85L250.799 110.479H445.473" stroke="#252527" stroke-linecap="round"/>
<g opacity="0.8" filter="url(#filter1_f_1_94)">
<path d="M109.701 145.512C109.701 137.723 116.016 131.408 123.805 131.408C131.594 131.408 137.909 137.723 137.909 145.512V147.332C137.909 155.121 131.594 161.436 123.805 161.436C116.016 161.436 109.701 155.121 109.701 147.332V145.512Z" fill="#24E98A"/>
</g>
<path d="M21.4354 203.294H209.132L235.548 238.782H407.255" stroke="#252527" stroke-linecap="round"/>
<path d="M17.7955 212.394H200.298L227.893 247.882H407.255" stroke="#252527" stroke-linecap="round"/>
<path d="M19.6154 221.493H188.941L218.05 256.981H407.255" stroke="#252527" stroke-linecap="round"/>
<path d="M15.9756 230.593H180.107L210.393 266.081H407.255" stroke="#252527" stroke-linecap="round"/>
<path d="M18.7055 239.692H169.381L201.097 275.181H407.255" stroke="#252527" stroke-linecap="round"/>
<path d="M22.3453 248.792H159.286L192.348 284.28H407.255" stroke="#252527" stroke-linecap="round"/>
<path d="M18.7055 257.891H150.452L184.693 293.379H407.255" stroke="#252527" stroke-linecap="round"/>
<path d="M22.3453 266.991H140.356L175.942 302.479H407.255" stroke="#252527" stroke-linecap="round"/>
<path d="M6.87613 276.09H129.63L166.646 311.578H407.255" stroke="#252527" stroke-linecap="round"/>
<path d="M-2.22339 285.19H123.32L161.179 320.678H407.255" stroke="#252527" stroke-linecap="round"/>
<path d="M-13.1428 294.29H115.748L154.616 329.778H407.255" stroke="#252527" stroke-linecap="round"/>
<path d="M-27.7021 303.389H105.653L145.867 338.877H407.255" stroke="#252527" stroke-linecap="round"/>
<path d="M-34.0715 312.489H101.237L142.039 347.977H407.255" stroke="#252527" stroke-linecap="round"/>
<path d="M-43.1711 321.588H94.9269L136.571 357.076H407.255" stroke="#252527" stroke-linecap="round"/>
<path d="M-55.0006 330.688H86.7242L129.462 366.176H407.255" stroke="#252527" stroke-linecap="round"/>
<path d="M21.4354 194.195H213.038L240.632 229.683H419.994" stroke="#252527" stroke-linecap="round"/>
<path d="M103.331 185.095H216.943L245.716 220.583H432.734" stroke="#252527" stroke-linecap="round"/>
<path d="M103.331 175.996H220.85L250.799 211.484H445.473" stroke="#252527" stroke-linecap="round"/>
</g>
<path d="M388.146 19.0291H36.9048C29.1152 19.0291 22.8005 25.3437 22.8005 33.1333V335.237C22.8005 343.027 29.1152 349.342 36.9048 349.342H388.146C395.936 349.342 402.251 343.027 402.251 335.237V33.1333C402.251 25.3437 395.936 19.0291 388.146 19.0291Z" stroke="#252527"/>
<path d="M103.331 145.967H206.156" stroke="url(#paint3_linear_1_94)"/>
<g opacity="0.2" filter="url(#filter2_f_1_94)">
<path d="M300.791 206.934C300.791 194.873 291.013 185.095 278.952 185.095C266.891 185.095 257.113 194.873 257.113 206.934V214.214C257.113 226.275 266.891 236.053 278.952 236.053C291.013 236.053 300.791 226.275 300.791 214.214V206.934Z" fill="#24E98A"/>
</g>
</g>
<g style="mix-blend-mode:luminosity">
<path d="M397.246 17.2092H31.445C25.6657 17.2092 20.9806 21.8943 20.9806 27.6737V347.977C20.9806 353.756 25.6657 358.441 31.445 358.441H397.246C403.025 358.441 407.71 353.756 407.71 347.977V27.6737C407.71 21.8943 403.025 17.2092 397.246 17.2092Z" stroke="#252527"/>
</g>
<path d="M178.842 176.451L178.388 176.466L178.418 177.375L178.872 177.361L178.842 176.451ZM220.26 175.541L220.605 175.244L220.463 175.078L220.245 175.086L220.26 175.541ZM251.198 211.484L250.853 211.78L250.99 211.939H251.198V211.484ZM356.753 211.939C357.004 211.939 357.208 211.735 357.208 211.484C357.208 211.233 357.004 211.029 356.753 211.029V211.939ZM178.872 177.361L220.274 175.996L220.245 175.086L178.842 176.451L178.872 177.361ZM219.915 175.837L250.853 211.78L251.543 211.187L220.605 175.244L219.915 175.837ZM251.198 211.939H356.753V211.029H251.198V211.939Z" fill="url(#paint4_linear_1_94)" fill-opacity="0.9"/>
<path d="M33.7598 317.948H31.852L36.1387 306.036H38.2152L42.5019 317.948H40.5941L37.2264 308.2H37.1333L33.7598 317.948ZM34.0797 313.284H40.2684V314.796H34.0797V313.284ZM45.8557 306.036V317.948H44.0583V306.036H45.8557ZM54.2775 317.948L51.6484 309.014H53.4457L55.1964 315.575H55.2837L57.0403 309.014H58.8376L60.5825 315.546H60.6698L62.4089 309.014H64.2061L61.5829 317.948H59.8089L57.9942 311.497H57.8604L56.0457 317.948H54.2775ZM67.4319 312.643V317.948H65.6928V306.036H67.4086V310.468H67.5192C67.7286 309.987 68.0484 309.606 68.4789 309.323C68.9093 309.04 69.4716 308.898 70.1656 308.898C70.7783 308.898 71.3134 309.023 71.771 309.275C72.2325 309.527 72.5891 309.904 72.8412 310.405C73.0971 310.9 73.2251 311.521 73.2251 312.265V317.948H71.4859V312.475C71.4859 311.82 71.3173 311.312 70.9799 310.951C70.6426 310.587 70.1734 310.405 69.5724 310.405C69.1614 310.405 68.7929 310.491 68.4672 310.666C68.1454 310.84 67.8914 311.096 67.7053 311.434C67.523 311.767 67.4319 312.171 67.4319 312.643ZM79.2325 318.128C78.3523 318.128 77.5943 317.94 76.9583 317.564C76.3262 317.185 75.8377 316.651 75.4925 315.964C75.1513 315.275 74.9807 314.466 74.9807 313.539C74.9807 312.624 75.1513 311.818 75.4925 311.12C75.8377 310.422 76.3185 309.877 76.9351 309.486C77.5555 309.093 78.2806 308.898 79.1104 308.898C79.6145 308.898 80.1031 308.981 80.5762 309.148C81.0493 309.314 81.4738 309.577 81.8499 309.933C82.2261 310.29 82.5227 310.753 82.7398 311.323C82.9571 311.89 83.0656 312.578 83.0656 313.388V314.004H75.9637V312.701H81.3614C81.3614 312.245 81.2683 311.839 81.0822 311.486C80.896 311.129 80.6343 310.848 80.297 310.643C79.9635 310.437 79.5719 310.334 79.1221 310.334C78.6334 310.334 78.2069 310.455 77.8424 310.695C77.4818 310.931 77.2026 311.242 77.0049 311.626C76.811 312.005 76.7141 312.418 76.7141 312.864V313.882C76.7141 314.479 76.8187 314.987 77.0281 315.407C77.2414 315.825 77.538 316.145 77.918 316.366C78.298 316.583 78.7421 316.691 79.25 316.691C79.5796 316.691 79.8801 316.645 80.1516 316.552C80.423 316.455 80.6576 316.312 80.8553 316.122C81.0531 315.932 81.2043 315.697 81.309 315.417L82.9551 315.714C82.8232 316.199 82.5867 316.624 82.2455 316.988C81.9081 317.349 81.4835 317.631 80.9716 317.832C80.4637 318.029 79.884 318.128 79.2325 318.128ZM84.8314 317.948V309.014H86.5123V310.433H86.6054C86.7683 309.952 87.0552 309.575 87.4662 309.299C87.8812 309.02 88.3503 308.88 88.8738 308.88C88.9824 308.88 89.1104 308.884 89.2577 308.892C89.409 308.9 89.5273 308.91 89.6125 308.921V310.585C89.5427 310.565 89.4186 310.544 89.2403 310.52C89.0619 310.494 88.8836 310.48 88.7051 310.48C88.2941 310.48 87.9277 310.567 87.6058 310.741C87.2879 310.912 87.0358 311.151 86.8497 311.456C86.6636 311.759 86.5706 312.104 86.5706 312.492V317.948H84.8314ZM94.4845 318.128C93.6037 318.128 92.8457 317.94 92.2105 317.564C91.5781 317.185 91.0895 316.651 90.7443 315.964C90.4031 315.275 90.2325 314.466 90.2325 313.539C90.2325 312.624 90.4031 311.818 90.7443 311.12C91.0895 310.422 91.5699 309.877 92.1869 309.486C92.8075 309.093 93.5327 308.898 94.3626 308.898C94.8667 308.898 95.3544 308.981 95.8276 309.148C96.3008 309.314 96.7257 309.577 97.1015 309.933C97.4783 310.29 97.7749 310.753 97.9915 311.323C98.2089 311.89 98.3172 312.578 98.3172 313.388V314.004H91.2155V312.701H96.6129C96.6129 312.245 96.5201 311.839 96.3335 311.486C96.1479 311.129 95.8858 310.848 95.5491 310.643C95.2152 310.437 94.8239 310.334 94.3735 310.334C93.8849 310.334 93.459 310.455 93.0941 310.695C92.7338 310.931 92.4544 311.242 92.2569 311.626C92.0631 312.005 91.9658 312.418 91.9658 312.864V313.882C91.9658 314.479 92.0704 314.987 92.2797 315.407C92.4935 315.825 92.7902 316.145 93.1696 316.366C93.55 316.583 93.994 316.691 94.5018 316.691C94.8312 316.691 95.1315 316.645 95.4036 316.552C95.6747 316.455 95.9095 316.312 96.107 316.122C96.3053 315.932 96.4564 315.697 96.561 315.417L98.2071 315.714C98.0752 316.199 97.8386 316.624 97.4974 316.988C97.1598 317.349 96.7357 317.631 96.2234 317.832C95.7157 318.029 95.136 318.128 94.4845 318.128ZM105.354 321.299C105.094 321.299 104.857 321.277 104.644 321.235C104.43 321.196 104.272 321.153 104.167 321.107L104.586 319.682C104.903 319.767 105.186 319.803 105.435 319.792C105.683 319.78 105.902 319.687 106.092 319.512C106.286 319.338 106.457 319.053 106.604 318.658L106.819 318.065L103.55 309.014H105.411L107.674 315.947H107.767L110.03 309.014H111.897L108.215 319.14C108.045 319.606 107.827 319.999 107.563 320.321C107.3 320.647 106.986 320.891 106.621 321.054C106.257 321.217 105.834 321.299 105.354 321.299ZM116.827 318.128C115.989 318.128 115.259 317.936 114.634 317.552C114.01 317.168 113.525 316.631 113.18 315.942C112.835 315.251 112.663 314.445 112.663 313.522C112.663 312.595 112.835 311.785 113.18 311.091C113.525 310.396 114.01 309.858 114.634 309.474C115.259 309.09 115.989 308.898 116.827 308.898C117.665 308.898 118.395 309.09 119.02 309.474C119.644 309.858 120.129 310.396 120.474 311.091C120.819 311.785 120.991 312.595 120.991 313.522C120.991 314.445 120.819 315.251 120.474 315.942C120.129 316.631 119.644 317.168 119.02 317.552C118.395 317.936 117.665 318.128 116.827 318.128ZM116.833 316.669C117.375 316.669 117.826 316.525 118.182 316.238C118.539 315.951 118.803 315.569 118.973 315.093C119.148 314.615 119.235 314.09 119.235 313.516C119.235 312.946 119.148 312.423 118.973 311.945C118.803 311.465 118.539 311.079 118.182 310.788C117.826 310.497 117.375 310.352 116.833 310.352C116.286 310.352 115.832 310.497 115.472 310.788C115.115 311.079 114.849 311.465 114.675 311.945C114.504 312.423 114.419 312.946 114.419 313.516C114.419 314.09 114.504 314.615 114.675 315.093C114.849 315.569 115.115 315.951 115.472 316.238C115.832 316.525 116.286 316.669 116.833 316.669ZM128.428 314.243V309.014H130.174V317.948H128.463V316.401H128.37C128.165 316.878 127.835 317.276 127.381 317.593C126.932 317.907 126.371 318.065 125.7 318.065C125.126 318.065 124.618 317.938 124.176 317.686C123.739 317.43 123.394 317.053 123.142 316.552C122.893 316.052 122.769 315.434 122.769 314.697V309.014H124.508V314.488C124.508 315.096 124.677 315.58 125.014 315.942C125.352 316.302 125.79 316.482 126.328 316.482C126.654 316.482 126.978 316.401 127.3 316.238C127.626 316.075 127.895 315.829 128.108 315.499C128.326 315.17 128.432 314.751 128.428 314.243ZM138.454 317.948L135.825 309.014H137.623L139.373 315.575H139.461L141.217 309.014H143.014L144.759 315.546H144.847L146.586 309.014H148.383L145.759 317.948H143.986L142.171 311.497H142.037L140.222 317.948H138.454ZM153.361 318.128C152.523 318.128 151.792 317.936 151.168 317.552C150.544 317.168 150.059 316.631 149.714 315.942C149.368 315.251 149.196 314.445 149.196 313.522C149.196 312.595 149.368 311.785 149.714 311.091C150.059 310.396 150.544 309.858 151.168 309.474C151.792 309.09 152.523 308.898 153.361 308.898C154.198 308.898 154.929 309.09 155.553 309.474C156.177 309.858 156.662 310.396 157.007 311.091C157.353 311.785 157.525 312.595 157.525 313.522C157.525 314.445 157.353 315.251 157.007 315.942C156.662 316.631 156.177 317.168 155.553 317.552C154.929 317.936 154.198 318.128 153.361 318.128ZM153.367 316.669C153.91 316.669 154.359 316.525 154.716 316.238C155.073 315.951 155.337 315.569 155.507 315.093C155.682 314.615 155.769 314.09 155.769 313.516C155.769 312.946 155.682 312.423 155.507 311.945C155.337 311.465 155.073 311.079 154.716 310.788C154.359 310.497 153.91 310.352 153.367 310.352C152.82 310.352 152.366 310.497 152.005 310.788C151.649 311.079 151.383 311.465 151.208 311.945C151.038 312.423 150.952 312.946 150.952 313.516C150.952 314.09 151.038 314.615 151.208 315.093C151.383 315.569 151.649 315.951 152.005 316.238C152.366 316.525 152.82 316.669 153.367 316.669ZM159.303 317.948V309.014H160.984V310.433H161.077C161.24 309.952 161.526 309.575 161.937 309.299C162.352 309.02 162.822 308.88 163.345 308.88C163.453 308.88 163.582 308.884 163.729 308.892C163.88 308.9 163.998 308.91 164.084 308.921V310.585C164.014 310.565 163.89 310.544 163.712 310.52C163.533 310.494 163.355 310.48 163.177 310.48C162.766 310.48 162.399 310.567 162.078 310.741C161.759 310.912 161.507 311.151 161.321 311.456C161.135 311.759 161.042 312.104 161.042 312.492V317.948H159.303ZM167.025 314.918L167.013 312.795H167.315L170.875 309.014H172.957L168.898 313.318H168.624L167.025 314.918ZM165.425 317.948V306.036H167.164V317.948H165.425ZM171.067 317.948L167.868 313.702L169.066 312.487L173.202 317.948H171.067Z" fill="white"/>
<path d="M33.7598 317.948H31.852L36.1387 306.036H38.2152L42.5019 317.948H40.5941L37.2264 308.2H37.1333L33.7598 317.948ZM34.0797 313.284H40.2684V314.796H34.0797V313.284ZM45.8557 306.036V317.948H44.0583V306.036H45.8557ZM54.2775 317.948L51.6484 309.014H53.4457L55.1964 315.575H55.2837L57.0403 309.014H58.8376L60.5825 315.546H60.6698L62.4089 309.014H64.2061L61.5829 317.948H59.8089L57.9942 311.497H57.8604L56.0457 317.948H54.2775ZM67.4319 312.643V317.948H65.6928V306.036H67.4086V310.468H67.5192C67.7286 309.987 68.0484 309.606 68.4789 309.323C68.9093 309.04 69.4716 308.898 70.1656 308.898C70.7783 308.898 71.3134 309.023 71.771 309.275C72.2325 309.527 72.5891 309.904 72.8412 310.405C73.0971 310.9 73.2251 311.521 73.2251 312.265V317.948H71.4859V312.475C71.4859 311.82 71.3173 311.312 70.9799 310.951C70.6426 310.587 70.1734 310.405 69.5724 310.405C69.1614 310.405 68.7929 310.491 68.4672 310.666C68.1454 310.84 67.8914 311.096 67.7053 311.434C67.523 311.767 67.4319 312.171 67.4319 312.643ZM79.2325 318.128C78.3523 318.128 77.5943 317.94 76.9583 317.564C76.3262 317.185 75.8377 316.651 75.4925 315.964C75.1513 315.275 74.9807 314.466 74.9807 313.539C74.9807 312.624 75.1513 311.818 75.4925 311.12C75.8377 310.422 76.3185 309.877 76.9351 309.486C77.5555 309.093 78.2806 308.898 79.1104 308.898C79.6145 308.898 80.1031 308.981 80.5762 309.148C81.0493 309.314 81.4738 309.577 81.8499 309.933C82.2261 310.29 82.5227 310.753 82.7398 311.323C82.9571 311.89 83.0656 312.578 83.0656 313.388V314.004H75.9637V312.701H81.3614C81.3614 312.245 81.2683 311.839 81.0822 311.486C80.896 311.129 80.6343 310.848 80.297 310.643C79.9635 310.437 79.5719 310.334 79.1221 310.334C78.6334 310.334 78.2069 310.455 77.8424 310.695C77.4818 310.931 77.2026 311.242 77.0049 311.626C76.811 312.005 76.7141 312.418 76.7141 312.864V313.882C76.7141 314.479 76.8187 314.987 77.0281 315.407C77.2414 315.825 77.538 316.145 77.918 316.366C78.298 316.583 78.7421 316.691 79.25 316.691C79.5796 316.691 79.8801 316.645 80.1516 316.552C80.423 316.455 80.6576 316.312 80.8553 316.122C81.0531 315.932 81.2043 315.697 81.309 315.417L82.9551 315.714C82.8232 316.199 82.5867 316.624 82.2455 316.988C81.9081 317.349 81.4835 317.631 80.9716 317.832C80.4637 318.029 79.884 318.128 79.2325 318.128ZM84.8314 317.948V309.014H86.5123V310.433H86.6054C86.7683 309.952 87.0552 309.575 87.4662 309.299C87.8812 309.02 88.3503 308.88 88.8738 308.88C88.9824 308.88 89.1104 308.884 89.2577 308.892C89.409 308.9 89.5273 308.91 89.6125 308.921V310.585C89.5427 310.565 89.4186 310.544 89.2403 310.52C89.0619 310.494 88.8836 310.48 88.7051 310.48C88.2941 310.48 87.9277 310.567 87.6058 310.741C87.2879 310.912 87.0358 311.151 86.8497 311.456C86.6636 311.759 86.5706 312.104 86.5706 312.492V317.948H84.8314ZM94.4845 318.128C93.6037 318.128 92.8457 317.94 92.2105 317.564C91.5781 317.185 91.0895 316.651 90.7443 315.964C90.4031 315.275 90.2325 314.466 90.2325 313.539C90.2325 312.624 90.4031 311.818 90.7443 311.12C91.0895 310.422 91.5699 309.877 92.1869 309.486C92.8075 309.093 93.5327 308.898 94.3626 308.898C94.8667 308.898 95.3544 308.981 95.8276 309.148C96.3008 309.314 96.7257 309.577 97.1015 309.933C97.4783 310.29 97.7749 310.753 97.9915 311.323C98.2089 311.89 98.3172 312.578 98.3172 313.388V314.004H91.2155V312.701H96.6129C96.6129 312.245 96.5201 311.839 96.3335 311.486C96.1479 311.129 95.8858 310.848 95.5491 310.643C95.2152 310.437 94.8239 310.334 94.3735 310.334C93.8849 310.334 93.459 310.455 93.0941 310.695C92.7338 310.931 92.4544 311.242 92.2569 311.626C92.0631 312.005 91.9658 312.418 91.9658 312.864V313.882C91.9658 314.479 92.0704 314.987 92.2797 315.407C92.4935 315.825 92.7902 316.145 93.1696 316.366C93.55 316.583 93.994 316.691 94.5018 316.691C94.8312 316.691 95.1315 316.645 95.4036 316.552C95.6747 316.455 95.9095 316.312 96.107 316.122C96.3053 315.932 96.4564 315.697 96.561 315.417L98.2071 315.714C98.0752 316.199 97.8386 316.624 97.4974 316.988C97.1598 317.349 96.7357 317.631 96.2234 317.832C95.7157 318.029 95.136 318.128 94.4845 318.128ZM105.354 321.299C105.094 321.299 104.857 321.277 104.644 321.235C104.43 321.196 104.272 321.153 104.167 321.107L104.586 319.682C104.903 319.767 105.186 319.803 105.435 319.792C105.683 319.78 105.902 319.687 106.092 319.512C106.286 319.338 106.457 319.053 106.604 318.658L106.819 318.065L103.55 309.014H105.411L107.674 315.947H107.767L110.03 309.014H111.897L108.215 319.14C108.045 319.606 107.827 319.999 107.563 320.321C107.3 320.647 106.986 320.891 106.621 321.054C106.257 321.217 105.834 321.299 105.354 321.299ZM116.827 318.128C115.989 318.128 115.259 317.936 114.634 317.552C114.01 317.168 113.525 316.631 113.18 315.942C112.835 315.251 112.663 314.445 112.663 313.522C112.663 312.595 112.835 311.785 113.18 311.091C113.525 310.396 114.01 309.858 114.634 309.474C115.259 309.09 115.989 308.898 116.827 308.898C117.665 308.898 118.395 309.09 119.02 309.474C119.644 309.858 120.129 310.396 120.474 311.091C120.819 311.785 120.991 312.595 120.991 313.522C120.991 314.445 120.819 315.251 120.474 315.942C120.129 316.631 119.644 317.168 119.02 317.552C118.395 317.936 117.665 318.128 116.827 318.128ZM116.833 316.669C117.375 316.669 117.826 316.525 118.182 316.238C118.539 315.951 118.803 315.569 118.973 315.093C119.148 314.615 119.235 314.09 119.235 313.516C119.235 312.946 119.148 312.423 118.973 311.945C118.803 311.465 118.539 311.079 118.182 310.788C117.826 310.497 117.375 310.352 116.833 310.352C116.286 310.352 115.832 310.497 115.472 310.788C115.115 311.079 114.849 311.465 114.675 311.945C114.504 312.423 114.419 312.946 114.419 313.516C114.419 314.09 114.504 314.615 114.675 315.093C114.849 315.569 115.115 315.951 115.472 316.238C115.832 316.525 116.286 316.669 116.833 316.669ZM128.428 314.243V309.014H130.174V317.948H128.463V316.401H128.37C128.165 316.878 127.835 317.276 127.381 317.593C126.932 317.907 126.371 318.065 125.7 318.065C125.126 318.065 124.618 317.938 124.176 317.686C123.739 317.43 123.394 317.053 123.142 316.552C122.893 316.052 122.769 315.434 122.769 314.697V309.014H124.508V314.488C124.508 315.096 124.677 315.58 125.014 315.942C125.352 316.302 125.79 316.482 126.328 316.482C126.654 316.482 126.978 316.401 127.3 316.238C127.626 316.075 127.895 315.829 128.108 315.499C128.326 315.17 128.432 314.751 128.428 314.243ZM138.454 317.948L135.825 309.014H137.623L139.373 315.575H139.461L141.217 309.014H143.014L144.759 315.546H144.847L146.586 309.014H148.383L145.759 317.948H143.986L142.171 311.497H142.037L140.222 317.948H138.454ZM153.361 318.128C152.523 318.128 151.792 317.936 151.168 317.552C150.544 317.168 150.059 316.631 149.714 315.942C149.368 315.251 149.196 314.445 149.196 313.522C149.196 312.595 149.368 311.785 149.714 311.091C150.059 310.396 150.544 309.858 151.168 309.474C151.792 309.09 152.523 308.898 153.361 308.898C154.198 308.898 154.929 309.09 155.553 309.474C156.177 309.858 156.662 310.396 157.007 311.091C157.353 311.785 157.525 312.595 157.525 313.522C157.525 314.445 157.353 315.251 157.007 315.942C156.662 316.631 156.177 317.168 155.553 317.552C154.929 317.936 154.198 318.128 153.361 318.128ZM153.367 316.669C153.91 316.669 154.359 316.525 154.716 316.238C155.073 315.951 155.337 315.569 155.507 315.093C155.682 314.615 155.769 314.09 155.769 313.516C155.769 312.946 155.682 312.423 155.507 311.945C155.337 311.465 155.073 311.079 154.716 310.788C154.359 310.497 153.91 310.352 153.367 310.352C152.82 310.352 152.366 310.497 152.005 310.788C151.649 311.079 151.383 311.465 151.208 311.945C151.038 312.423 150.952 312.946 150.952 313.516C150.952 314.09 151.038 314.615 151.208 315.093C151.383 315.569 151.649 315.951 152.005 316.238C152.366 316.525 152.82 316.669 153.367 316.669ZM159.303 317.948V309.014H160.984V310.433H161.077C161.24 309.952 161.526 309.575 161.937 309.299C162.352 309.02 162.822 308.88 163.345 308.88C163.453 308.88 163.582 308.884 163.729 308.892C163.88 308.9 163.998 308.91 164.084 308.921V310.585C164.014 310.565 163.89 310.544 163.712 310.52C163.533 310.494 163.355 310.48 163.177 310.48C162.766 310.48 162.399 310.567 162.078 310.741C161.759 310.912 161.507 311.151 161.321 311.456C161.135 311.759 161.042 312.104 161.042 312.492V317.948H159.303ZM167.025 314.918L167.013 312.795H167.315L170.875 309.014H172.957L168.898 313.318H168.624L167.025 314.918ZM165.425 317.948V306.036H167.164V317.948H165.425ZM171.067 317.948L167.868 313.702L169.066 312.487L173.202 317.948H171.067Z" fill="url(#paint5_linear_1_94)"/>
<path d="M36.036 340.697H32.6081V330.109H36.1446C37.182 330.109 38.073 330.321 38.8175 330.744C39.5621 331.165 40.1324 331.77 40.5289 332.559C40.9286 333.345 41.1285 334.287 41.1285 335.387C41.1285 336.49 40.927 337.439 40.5237 338.231C40.1239 339.024 39.5448 339.633 38.7865 340.061C38.0282 340.485 37.1114 340.697 36.036 340.697ZM34.2057 339.301H35.9481C36.7546 339.301 37.425 339.149 37.9593 338.846C38.4935 338.54 38.8933 338.096 39.1588 337.518C39.4241 336.935 39.5569 336.225 39.5569 335.387C39.5569 334.557 39.4241 333.851 39.1588 333.273C38.8968 332.694 38.5056 332.255 37.9851 331.954C37.4646 331.654 36.8184 331.505 36.0463 331.505H34.2057V339.301ZM46.2682 340.857C45.4858 340.857 44.8119 340.69 44.2467 340.356C43.6849 340.018 43.2506 339.544 42.9438 338.934C42.6404 338.32 42.4888 337.601 42.4888 336.778C42.4888 335.964 42.6404 335.247 42.9438 334.628C43.2506 334.007 43.678 333.523 44.226 333.174C44.7775 332.826 45.4221 332.652 46.1597 332.652C46.6077 332.652 47.0421 332.727 47.4625 332.874C47.883 333.023 48.2605 333.255 48.5948 333.572C48.9291 333.89 49.1928 334.302 49.3858 334.808C49.5788 335.311 49.6754 335.923 49.6754 336.643V337.192H43.3626V336.034H48.1605C48.1605 335.627 48.0778 335.266 47.9123 334.953C47.7469 334.636 47.5142 334.386 47.2144 334.204C46.9179 334.021 46.5698 333.929 46.17 333.929C45.7357 333.929 45.3566 334.036 45.0325 334.25C44.712 334.46 44.4638 334.736 44.288 335.077C44.1157 335.415 44.0296 335.781 44.0296 336.178V337.083C44.0296 337.614 44.1226 338.065 44.3087 338.438C44.4983 338.81 44.762 339.095 45.0998 339.291C45.4375 339.484 45.8322 339.581 46.2837 339.581C46.5767 339.581 46.8439 339.539 47.0851 339.456C47.3264 339.37 47.5349 339.243 47.7107 339.074C47.8865 338.904 48.0209 338.696 48.114 338.448L49.5771 338.712C49.46 339.143 49.2497 339.52 48.9464 339.844C48.6465 340.165 48.269 340.414 47.8141 340.593C47.3625 340.77 46.8472 340.857 46.2682 340.857ZM51.2449 343.675V332.756H52.7546V334.043H52.8839C52.9736 333.878 53.1028 333.686 53.2717 333.469C53.4406 333.252 53.675 333.063 53.9748 332.901C54.2747 332.735 54.6711 332.652 55.164 332.652C55.8051 332.652 56.3773 332.814 56.8805 333.138C57.3838 333.462 57.7784 333.929 58.0645 334.539C58.3539 335.149 58.4987 335.883 58.4987 336.741C58.4987 337.6 58.3557 338.336 58.0696 338.95C57.7836 339.56 57.3906 340.03 56.8908 340.361C56.391 340.689 55.8206 340.852 55.1795 340.852C54.6969 340.852 54.3023 340.771 53.9955 340.609C53.6922 340.447 53.4544 340.258 53.2821 340.04C53.1097 339.824 52.977 339.631 52.8839 339.461H52.7909V343.675H51.2449ZM52.7598 336.726C52.7598 337.285 52.8408 337.774 53.0029 338.195C53.1649 338.615 53.3993 338.944 53.706 339.182C54.0127 339.417 54.3885 339.534 54.8331 339.534C55.295 339.534 55.681 339.411 55.9913 339.166C56.3015 338.918 56.5358 338.582 56.6944 338.158C56.8563 337.734 56.9373 337.257 56.9373 336.726C56.9373 336.203 56.8581 335.732 56.6996 335.315C56.5444 334.898 56.31 334.569 55.9963 334.327C55.6861 334.086 55.2984 333.965 54.8331 333.965C54.385 333.965 54.0058 334.081 53.6956 334.312C53.3889 334.543 53.1562 334.865 52.9977 335.278C52.8391 335.692 52.7598 336.175 52.7598 336.726ZM61.631 330.109V340.697H60.0851V330.109H61.631ZM66.9103 340.857C66.1658 340.857 65.5161 340.687 64.9611 340.346C64.4062 340.005 63.9754 339.527 63.6686 338.914C63.3618 338.3 63.2084 337.583 63.2084 336.762C63.2084 335.939 63.3618 335.218 63.6686 334.601C63.9754 333.984 64.4062 333.506 64.9611 333.164C65.5161 332.823 66.1658 332.652 66.9103 332.652C67.6547 332.652 68.3045 332.823 68.8594 333.164C69.4144 333.506 69.8452 333.984 70.152 334.601C70.4588 335.218 70.6121 335.939 70.6121 336.762C70.6121 337.583 70.4588 338.3 70.152 338.914C69.8452 339.527 69.4144 340.005 68.8594 340.346C68.3045 340.687 67.6547 340.857 66.9103 340.857ZM66.9154 339.56C67.398 339.56 67.7978 339.432 68.1149 339.177C68.432 338.922 68.6664 338.582 68.818 338.158C68.9732 337.734 69.0507 337.267 69.0507 336.757C69.0507 336.251 68.9732 335.785 68.818 335.361C68.6664 334.934 68.432 334.591 68.1149 334.333C67.7978 334.074 67.398 333.945 66.9154 333.945C66.4294 333.945 66.0262 334.074 65.7056 334.333C65.3885 334.591 65.1524 334.934 64.9973 335.361C64.8456 335.785 64.7698 336.251 64.7698 336.757C64.7698 337.267 64.8456 337.734 64.9973 338.158C65.1524 338.582 65.3885 338.922 65.7056 339.177C66.0262 339.432 66.4294 339.56 66.9154 339.56ZM72.8991 343.675C72.6681 343.675 72.4579 343.656 72.2684 343.618C72.0788 343.583 71.9374 343.546 71.8443 343.504L72.2166 342.238C72.4992 342.314 72.7509 342.347 72.9715 342.336C73.1921 342.326 73.3868 342.243 73.5557 342.087C73.728 341.933 73.8797 341.68 74.0107 341.328L74.202 340.801L71.2964 332.756H72.9509L74.962 338.918H75.0447L77.0559 332.756H78.7156L75.4428 341.757C75.2912 342.17 75.0982 342.521 74.8638 342.806C74.6294 343.096 74.3502 343.313 74.0262 343.458C73.7022 343.603 73.3265 343.675 72.8991 343.675ZM89.6295 332.89C89.5743 332.401 89.3468 332.022 88.947 331.752C88.5472 331.48 88.044 331.345 87.4373 331.345C87.003 331.345 86.6273 331.413 86.3102 331.551C85.9931 331.686 85.7467 331.871 85.5709 332.109C85.3985 332.344 85.3124 332.611 85.3124 332.911C85.3124 333.163 85.371 333.379 85.4882 333.562C85.6087 333.745 85.7656 333.898 85.9586 334.023C86.1551 334.143 86.3654 334.245 86.5894 334.327C86.8134 334.407 87.0288 334.472 87.2356 334.524L88.2697 334.792C88.6075 334.875 88.9539 334.987 89.3089 335.129C89.6639 335.27 89.9931 335.457 90.2964 335.687C90.5997 335.918 90.8444 336.204 91.0306 336.546C91.2201 336.886 91.315 337.295 91.315 337.771C91.315 338.37 91.1598 338.903 90.8496 339.369C90.5429 339.834 90.0965 340.201 89.5105 340.47C88.9281 340.738 88.2231 340.873 87.396 340.873C86.6031 340.873 85.9173 340.747 85.3382 340.495C84.7591 340.244 84.3059 339.887 83.9785 339.425C83.651 338.96 83.4701 338.409 83.4356 337.771H85.0383C85.0693 338.154 85.1934 338.472 85.4105 338.727C85.6312 338.979 85.9121 339.166 86.2533 339.291C86.598 339.411 86.9754 339.471 87.3856 339.471C87.8371 339.471 88.2387 339.401 88.5903 339.259C88.9453 339.115 89.2244 338.915 89.4278 338.66C89.6312 338.401 89.7328 338.1 89.7328 337.755C89.7328 337.441 89.6433 337.185 89.464 336.984C89.2882 336.785 89.0486 336.62 88.7453 336.489C88.4455 336.357 88.106 336.242 87.7268 336.142L86.4757 335.801C85.6278 335.57 84.9556 335.23 84.4593 334.782C83.9664 334.335 83.7199 333.741 83.7199 333.003C83.7199 332.394 83.8854 331.861 84.2162 331.406C84.5472 330.951 84.9953 330.598 85.5605 330.346C86.1258 330.092 86.7635 329.964 87.4735 329.964C88.1905 329.964 88.8229 330.09 89.3709 330.341C89.9225 330.593 90.3567 330.94 90.6738 331.38C90.9909 331.818 91.1564 332.321 91.1702 332.89H89.6295ZM96.2999 340.857C95.5309 340.857 94.8694 340.683 94.3143 340.335C93.7629 339.984 93.3389 339.5 93.0422 338.883C92.7456 338.266 92.5973 337.559 92.5973 336.762C92.5973 335.956 92.7492 335.245 93.0522 334.628C93.3562 334.007 93.7829 333.523 94.3344 333.174C94.8867 332.826 95.5364 332.652 96.2844 332.652C96.8868 332.652 97.4246 332.764 97.8968 332.988C98.3691 333.209 98.7504 333.519 99.0397 333.919C99.3327 334.319 99.5065 334.786 99.562 335.32H98.057C97.9742 334.948 97.7849 334.628 97.4883 334.358C97.1953 334.09 96.8031 333.955 96.3099 333.955C95.8785 333.955 95.5018 334.069 95.1779 334.296C94.8567 334.52 94.6074 334.841 94.4281 335.258C94.2488 335.671 94.1587 336.161 94.1587 336.726C94.1587 337.306 94.247 337.805 94.4226 338.226C94.5982 338.646 94.8467 338.972 95.167 339.203C95.4909 339.434 95.8722 339.55 96.3099 339.55C96.6029 339.55 96.8686 339.496 97.1061 339.389C97.3472 339.278 97.5492 339.122 97.7112 338.918C97.8768 338.715 97.9915 338.47 98.057 338.185H99.562C99.5065 338.698 99.3391 339.156 99.0606 339.56C98.7813 339.963 98.4073 340.28 97.9387 340.511C97.4728 340.742 96.9268 340.857 96.2999 340.857ZM104.415 340.857C103.67 340.857 103.02 340.687 102.466 340.346C101.911 340.005 101.479 339.527 101.173 338.914C100.866 338.3 100.712 337.583 100.712 336.762C100.712 335.939 100.866 335.218 101.173 334.601C101.479 333.984 101.911 333.506 102.466 333.164C103.02 332.823 103.67 332.652 104.415 332.652C105.159 332.652 105.809 332.823 106.364 333.164C106.919 333.506 107.349 333.984 107.656 334.601C107.963 335.218 108.117 335.939 108.117 336.762C108.117 337.583 107.963 338.3 107.656 338.914C107.349 339.527 106.919 340.005 106.364 340.346C105.809 340.687 105.159 340.857 104.415 340.857ZM104.419 339.56C104.903 339.56 105.302 339.432 105.62 339.177C105.936 338.922 106.171 338.582 106.322 338.158C106.478 337.734 106.555 337.267 106.555 336.757C106.555 336.251 106.478 335.785 106.322 335.361C106.171 334.934 105.936 334.591 105.62 334.333C105.302 334.074 104.903 333.945 104.419 333.945C103.933 333.945 103.53 334.074 103.21 334.333C102.892 334.591 102.657 334.934 102.501 335.361C102.35 335.785 102.274 336.251 102.274 336.757C102.274 337.267 102.35 337.734 102.501 338.158C102.657 338.582 102.892 338.922 103.21 339.177C103.53 339.432 103.933 339.56 104.419 339.56ZM114.727 337.404V332.756H116.278V340.697H114.758V339.322H114.675C114.493 339.746 114.2 340.099 113.796 340.381C113.396 340.661 112.898 340.801 112.302 340.801C111.792 340.801 111.34 340.689 110.947 340.464C110.558 340.237 110.251 339.901 110.027 339.456C109.806 339.012 109.696 338.462 109.696 337.807V332.756H111.242V337.62C111.242 338.162 111.392 338.592 111.692 338.914C111.992 339.234 112.381 339.394 112.86 339.394C113.15 339.394 113.438 339.322 113.724 339.177C114.013 339.032 114.253 338.813 114.442 338.52C114.635 338.227 114.73 337.855 114.727 337.404ZM121.917 332.756V333.996H117.579V332.756H121.917ZM118.742 330.853H120.288V338.366C120.288 338.665 120.333 338.891 120.423 339.043C120.512 339.191 120.627 339.292 120.768 339.348C120.913 339.399 121.071 339.425 121.239 339.425C121.364 339.425 121.472 339.417 121.565 339.399C121.658 339.382 121.73 339.369 121.782 339.358L122.062 340.635C121.971 340.67 121.844 340.704 121.678 340.738C121.513 340.776 121.306 340.797 121.058 340.801C120.652 340.807 120.273 340.735 119.92 340.583C119.569 340.431 119.285 340.197 119.068 339.88C118.85 339.563 118.742 339.165 118.742 338.686V330.853ZM128.207 340.697H126.511L130.321 330.109H132.167L135.977 340.697H134.282L131.288 332.032H131.206L128.207 340.697ZM128.491 336.55H133.993V337.894H128.491V336.55ZM137.237 343.675V332.756H138.747V334.043H138.877C138.966 333.878 139.095 333.686 139.264 333.469C139.432 333.252 139.667 333.063 139.967 332.901C140.267 332.735 140.664 332.652 141.156 332.652C141.797 332.652 142.37 332.814 142.873 333.138C143.376 333.462 143.77 333.929 144.057 334.539C144.346 335.149 144.491 335.883 144.491 336.741C144.491 337.6 144.348 338.336 144.061 338.95C143.776 339.56 143.383 340.03 142.883 340.361C142.383 340.689 141.813 340.852 141.171 340.852C140.689 340.852 140.294 340.771 139.988 340.609C139.685 340.447 139.446 340.258 139.274 340.04C139.102 339.824 138.969 339.631 138.877 339.461H138.783V343.675H137.237ZM138.752 336.726C138.752 337.285 138.833 337.774 138.995 338.195C139.157 338.615 139.392 338.944 139.698 339.182C140.005 339.417 140.381 339.534 140.826 339.534C141.287 339.534 141.673 339.411 141.983 339.166C142.293 338.918 142.528 338.582 142.686 338.158C142.848 337.734 142.929 337.257 142.929 336.726C142.929 336.203 142.85 335.732 142.692 335.315C142.536 334.898 142.302 334.569 141.989 334.327C141.678 334.086 141.291 333.965 140.826 333.965C140.377 333.965 139.998 334.081 139.688 334.312C139.381 334.543 139.149 334.865 138.99 335.278C138.831 335.692 138.752 336.175 138.752 336.726ZM146.077 343.675V332.756H147.587V334.043H147.717C147.806 333.878 147.935 333.686 148.104 333.469C148.273 333.252 148.507 333.063 148.807 332.901C149.107 332.735 149.504 332.652 149.996 332.652C150.638 332.652 151.21 332.814 151.713 333.138C152.216 333.462 152.61 333.929 152.897 334.539C153.186 335.149 153.331 335.883 153.331 336.741C153.331 337.6 153.188 338.336 152.902 338.95C152.616 339.56 152.223 340.03 151.723 340.361C151.224 340.689 150.653 340.852 150.012 340.852C149.529 340.852 149.134 340.771 148.828 340.609C148.525 340.447 148.286 340.258 148.114 340.04C147.942 339.824 147.81 339.631 147.717 339.461H147.623V343.675H146.077ZM147.592 336.726C147.592 337.285 147.673 337.774 147.835 338.195C147.997 338.615 148.232 338.944 148.538 339.182C148.845 339.417 149.221 339.534 149.666 339.534C150.127 339.534 150.513 339.411 150.823 339.166C151.134 338.918 151.368 338.582 151.527 338.158C151.689 337.734 151.77 337.257 151.77 336.726C151.77 336.203 151.69 335.732 151.532 335.315C151.377 334.898 151.143 334.569 150.829 334.327C150.518 334.086 150.131 333.965 149.666 333.965C149.217 333.965 148.839 334.081 148.528 334.312C148.221 334.543 147.989 334.865 147.83 335.278C147.671 335.692 147.592 336.175 147.592 336.726ZM160.868 334.694L159.467 334.943C159.409 334.763 159.316 334.593 159.188 334.431C159.064 334.269 158.895 334.136 158.682 334.033C158.468 333.929 158.2 333.878 157.88 333.878C157.442 333.878 157.077 333.976 156.784 334.173C156.491 334.366 156.345 334.615 156.345 334.922C156.345 335.187 156.443 335.401 156.639 335.563C156.835 335.725 157.153 335.858 157.591 335.961L158.852 336.251C159.582 336.419 160.128 336.68 160.486 337.032C160.845 337.383 161.024 337.84 161.024 338.401C161.024 338.877 160.886 339.301 160.61 339.673C160.338 340.042 159.956 340.331 159.467 340.542C158.981 340.753 158.418 340.857 157.776 340.857C156.887 340.857 156.162 340.668 155.6 340.288C155.038 339.906 154.693 339.363 154.566 338.66L156.06 338.432C156.153 338.822 156.345 339.116 156.634 339.317C156.924 339.513 157.301 339.611 157.766 339.611C158.273 339.611 158.678 339.506 158.981 339.296C159.285 339.082 159.436 338.822 159.436 338.515C159.436 338.267 159.343 338.058 159.158 337.89C158.975 337.721 158.693 337.593 158.314 337.507L156.97 337.212C156.229 337.044 155.681 336.774 155.326 336.406C154.974 336.037 154.799 335.57 154.799 335.004C154.799 334.536 154.93 334.125 155.192 333.774C155.453 333.423 155.815 333.149 156.278 332.952C156.739 332.752 157.268 332.652 157.864 332.652C158.723 332.652 159.399 332.839 159.891 333.211C160.384 333.579 160.71 334.074 160.868 334.694ZM169.992 332.756V333.996H165.655V332.756H169.992ZM166.818 330.853H168.364V338.366C168.364 338.665 168.408 338.891 168.498 339.043C168.587 339.191 168.703 339.292 168.844 339.348C168.99 339.399 169.146 339.425 169.314 339.425C169.439 339.425 169.547 339.417 169.64 339.399C169.734 339.382 169.806 339.369 169.858 339.358L170.137 340.635C170.047 340.67 169.92 340.704 169.754 340.738C169.589 340.776 169.382 340.797 169.134 340.801C168.727 340.807 168.348 340.735 167.997 340.583C167.645 340.431 167.361 340.197 167.143 339.88C166.926 339.563 166.818 339.165 166.818 338.686V330.853ZM174.816 340.857C174.072 340.857 173.422 340.687 172.867 340.346C172.313 340.005 171.881 339.527 171.575 338.914C171.268 338.3 171.114 337.583 171.114 336.762C171.114 335.939 171.268 335.218 171.575 334.601C171.881 333.984 172.313 333.506 172.867 333.164C173.422 332.823 174.072 332.652 174.816 332.652C175.561 332.652 176.211 332.823 176.765 333.164C177.32 333.506 177.751 333.984 178.058 334.601C178.365 335.218 178.519 335.939 178.519 336.762C178.519 337.583 178.365 338.3 178.058 338.914C177.751 339.527 177.32 340.005 176.765 340.346C176.211 340.687 175.561 340.857 174.816 340.857ZM174.821 339.56C175.304 339.56 175.704 339.432 176.021 339.177C176.338 338.922 176.572 338.582 176.724 338.158C176.879 337.734 176.957 337.267 176.957 336.757C176.957 336.251 176.879 335.785 176.724 335.361C176.572 334.934 176.338 334.591 176.021 334.333C175.704 334.074 175.304 333.945 174.821 333.945C174.336 333.945 173.932 334.074 173.612 334.333C173.295 334.591 173.059 334.934 172.903 335.361C172.751 335.785 172.676 336.251 172.676 336.757C172.676 337.267 172.751 337.734 172.903 338.158C173.059 338.582 173.295 338.922 173.612 339.177C173.932 339.432 174.336 339.56 174.821 339.56ZM189.705 332.89C189.65 332.401 189.423 332.022 189.022 331.752C188.623 331.48 188.119 331.345 187.513 331.345C187.078 331.345 186.703 331.413 186.386 331.551C186.068 331.686 185.822 331.871 185.646 332.109C185.474 332.344 185.388 332.611 185.388 332.911C185.388 333.163 185.446 333.379 185.563 333.562C185.684 333.745 185.841 333.898 186.034 334.023C186.23 334.143 186.441 334.245 186.664 334.327C186.889 334.407 187.104 334.472 187.311 334.524L188.345 334.792C188.683 334.875 189.029 334.987 189.384 335.129C189.739 335.27 190.069 335.457 190.372 335.687C190.676 335.918 190.919 336.204 191.106 336.546C191.295 336.886 191.391 337.295 191.391 337.771C191.391 338.37 191.235 338.903 190.925 339.369C190.618 339.834 190.172 340.201 189.586 340.47C189.003 340.738 188.299 340.873 187.472 340.873C186.678 340.873 185.993 340.747 185.413 340.495C184.835 340.244 184.381 339.887 184.054 339.425C183.726 338.96 183.545 338.409 183.511 337.771H185.114C185.145 338.154 185.269 338.472 185.486 338.727C185.706 338.979 185.987 339.166 186.329 339.291C186.674 339.411 187.051 339.471 187.461 339.471C187.913 339.471 188.314 339.401 188.665 339.259C189.02 339.115 189.3 338.915 189.504 338.66C189.706 338.401 189.808 338.1 189.808 337.755C189.808 337.441 189.718 337.185 189.539 336.984C189.363 336.785 189.124 336.62 188.821 336.489C188.521 336.357 188.181 336.242 187.802 336.142L186.551 335.801C185.704 335.57 185.031 335.23 184.534 334.782C184.042 334.335 183.795 333.741 183.795 333.003C183.795 332.394 183.961 331.861 184.291 331.406C184.623 330.951 185.07 330.598 185.636 330.346C186.201 330.092 186.839 329.964 187.549 329.964C188.266 329.964 188.898 330.09 189.446 330.341C189.998 330.593 190.432 330.94 190.749 331.38C191.066 331.818 191.232 332.321 191.245 332.89H189.705ZM194.576 330.109V340.697H193.03V330.109H194.576ZM198.821 340.873C198.317 340.873 197.862 340.78 197.456 340.593C197.049 340.404 196.727 340.13 196.489 339.772C196.254 339.413 196.137 338.974 196.137 338.453C196.137 338.005 196.224 337.636 196.396 337.347C196.568 337.057 196.801 336.828 197.094 336.659C197.387 336.49 197.714 336.363 198.076 336.276C198.438 336.19 198.807 336.125 199.183 336.08C199.659 336.025 200.044 335.98 200.341 335.945C200.638 335.908 200.852 335.847 200.987 335.765C201.122 335.682 201.189 335.548 201.189 335.361V335.326C201.189 334.873 201.061 334.524 200.806 334.276C200.555 334.027 200.179 333.903 199.68 333.903C199.159 333.903 198.749 334.019 198.448 334.25C198.152 334.478 197.947 334.73 197.833 335.01L196.381 334.679C196.553 334.196 196.804 333.807 197.135 333.51C197.469 333.211 197.854 332.993 198.288 332.859C198.722 332.721 199.179 332.652 199.659 332.652C199.975 332.652 200.312 332.69 200.667 332.766C201.025 332.839 201.359 332.972 201.67 333.169C201.984 333.366 202.24 333.647 202.44 334.012C202.64 334.374 202.74 334.844 202.74 335.424V340.697H201.23V339.611H201.168C201.068 339.812 200.918 340.007 200.719 340.201C200.518 340.394 200.262 340.554 199.948 340.682C199.634 340.809 199.258 340.873 198.821 340.873ZM199.157 339.632C199.584 339.632 199.95 339.548 200.253 339.379C200.559 339.21 200.792 338.989 200.951 338.717C201.113 338.441 201.194 338.146 201.194 337.833V336.809C201.139 336.864 201.032 336.916 200.873 336.964C200.719 337.009 200.54 337.049 200.341 337.083C200.141 337.114 199.946 337.144 199.757 337.171C199.567 337.196 199.408 337.216 199.281 337.233C198.981 337.271 198.707 337.335 198.459 337.424C198.215 337.514 198.018 337.643 197.87 337.812C197.725 337.977 197.652 338.198 197.652 338.474C197.652 338.856 197.794 339.146 198.076 339.342C198.359 339.535 198.72 339.632 199.157 339.632ZM207.998 340.857C207.229 340.857 206.568 340.683 206.013 340.335C205.461 339.984 205.037 339.5 204.742 338.883C204.445 338.266 204.297 337.559 204.297 336.762C204.297 335.956 204.449 335.245 204.752 334.628C205.055 334.007 205.482 333.523 206.034 333.174C206.585 332.826 207.235 332.652 207.983 332.652C208.586 332.652 209.124 332.764 209.596 332.988C210.068 333.209 210.449 333.519 210.738 333.919C211.031 334.319 211.206 334.786 211.26 335.32H209.756C209.674 334.948 209.484 334.628 209.188 334.358C208.895 334.09 208.501 333.955 208.008 333.955C207.578 333.955 207.2 334.069 206.876 334.296C206.556 334.52 206.306 334.841 206.127 335.258C205.947 335.671 205.858 336.161 205.858 336.726C205.858 337.306 205.945 337.805 206.122 338.226C206.298 338.646 206.545 338.972 206.866 339.203C207.19 339.434 207.571 339.55 208.008 339.55C208.301 339.55 208.567 339.496 208.805 339.389C209.047 339.278 209.248 339.122 209.41 338.918C209.575 338.715 209.691 338.47 209.756 338.185H211.26C211.206 338.698 211.038 339.156 210.759 339.56C210.48 339.963 210.106 340.28 209.637 340.511C209.172 340.742 208.625 340.857 207.998 340.857ZM214.191 338.004L214.18 336.116H214.449L217.613 332.756H219.464L215.855 336.581H215.612L214.191 338.004ZM212.768 340.697V330.109H214.314V340.697H212.768ZM217.783 340.697L214.939 336.923L216.005 335.842L219.681 340.697H217.783ZM227.78 340.857C227.035 340.857 226.386 340.687 225.831 340.346C225.276 340.005 224.844 339.527 224.538 338.914C224.231 338.3 224.078 337.583 224.078 336.762C224.078 335.939 224.231 335.218 224.538 334.601C224.844 333.984 225.276 333.506 225.831 333.164C226.386 332.823 227.035 332.652 227.78 332.652C228.524 332.652 229.174 332.823 229.729 333.164C230.284 333.506 230.714 333.984 231.021 334.601C231.328 335.218 231.481 335.939 231.481 336.762C231.481 337.583 231.328 338.3 231.021 338.914C230.714 339.527 230.284 340.005 229.729 340.346C229.174 340.687 228.524 340.857 227.78 340.857ZM227.784 339.56C228.267 339.56 228.667 339.432 228.985 339.177C229.301 338.922 229.536 338.582 229.687 338.158C229.843 337.734 229.92 337.267 229.92 336.757C229.92 336.251 229.843 335.785 229.687 335.361C229.536 334.934 229.301 334.591 228.985 334.333C228.667 334.074 228.267 333.945 227.784 333.945C227.298 333.945 226.895 334.074 226.575 334.333C226.257 334.591 226.022 334.934 225.867 335.361C225.715 335.785 225.64 336.251 225.64 336.757C225.64 337.267 225.715 337.734 225.867 338.158C226.022 338.582 226.257 338.922 226.575 339.177C226.895 339.432 227.298 339.56 227.784 339.56ZM233.061 340.697V332.756H234.555V334.017H234.638C234.783 333.589 235.038 333.254 235.403 333.009C235.772 332.76 236.19 332.637 236.655 332.637C236.751 332.637 236.865 332.64 236.996 332.647C237.13 332.654 237.235 332.662 237.312 332.673V334.152C237.25 334.134 237.139 334.115 236.98 334.094C236.822 334.071 236.664 334.059 236.504 334.059C236.139 334.059 235.814 334.136 235.528 334.291C235.245 334.443 235.021 334.655 234.856 334.927C234.69 335.196 234.607 335.503 234.607 335.847V340.697H233.061ZM245.763 340.697H242.335V330.109H245.871C246.909 330.109 247.8 330.321 248.545 330.744C249.289 331.165 249.86 331.77 250.256 332.559C250.656 333.345 250.855 334.287 250.855 335.387C250.855 336.49 250.654 337.439 250.251 338.231C249.851 339.024 249.272 339.633 248.513 340.061C247.755 340.485 246.839 340.697 245.763 340.697ZM243.932 339.301H245.675C246.481 339.301 247.152 339.149 247.686 338.846C248.22 338.54 248.62 338.096 248.886 337.518C249.151 336.935 249.284 336.225 249.284 335.387C249.284 334.557 249.151 333.851 248.886 333.273C248.624 332.694 248.233 332.255 247.712 331.954C247.192 331.654 246.546 331.505 245.773 331.505H243.932V339.301ZM252.572 340.697V332.756H254.118V340.697H252.572ZM253.353 331.53C253.085 331.53 252.853 331.441 252.661 331.262C252.47 331.079 252.376 330.861 252.376 330.61C252.376 330.355 252.47 330.138 252.661 329.959C252.853 329.776 253.085 329.685 253.353 329.685C253.622 329.685 253.851 329.776 254.041 329.959C254.234 330.138 254.33 330.355 254.33 330.61C254.33 330.861 254.234 331.079 254.041 331.262C253.851 331.441 253.622 331.53 253.353 331.53ZM262.003 334.694L260.603 334.943C260.543 334.763 260.451 334.593 260.323 334.431C260.199 334.269 260.03 334.136 259.816 334.033C259.603 333.929 259.336 333.878 259.015 333.878C258.577 333.878 258.212 333.976 257.919 334.173C257.626 334.366 257.48 334.615 257.48 334.922C257.48 335.187 257.578 335.401 257.774 335.563C257.971 335.725 258.288 335.858 258.725 335.961L259.987 336.251C260.717 336.419 261.262 336.68 261.621 337.032C261.979 337.383 262.159 337.84 262.159 338.401C262.159 338.877 262.02 339.301 261.745 339.673C261.473 340.042 261.091 340.331 260.603 340.542C260.116 340.753 259.553 340.857 258.912 340.857C258.022 340.857 257.297 340.668 256.735 340.288C256.173 339.906 255.828 339.363 255.701 338.66L257.195 338.432C257.289 338.822 257.48 339.116 257.769 339.317C258.058 339.513 258.436 339.611 258.901 339.611C259.408 339.611 259.813 339.506 260.116 339.296C260.42 339.082 260.571 338.822 260.571 338.515C260.571 338.267 260.478 338.058 260.292 337.89C260.109 337.721 259.828 337.593 259.45 337.507L258.105 337.212C257.364 337.044 256.816 336.774 256.461 336.406C256.109 336.037 255.934 335.57 255.934 335.004C255.934 334.536 256.065 334.125 256.327 333.774C256.589 333.423 256.95 333.149 257.412 332.952C257.874 332.752 258.403 332.652 258.999 332.652C259.857 332.652 260.533 332.839 261.026 333.211C261.519 333.579 261.845 334.074 262.003 334.694ZM267.058 340.857C266.289 340.857 265.627 340.683 265.072 340.335C264.521 339.984 264.097 339.5 263.8 338.883C263.504 338.266 263.356 337.559 263.356 336.762C263.356 335.956 263.507 335.245 263.811 334.628C264.114 334.007 264.542 333.523 265.093 333.174C265.645 332.826 266.294 332.652 267.042 332.652C267.646 332.652 268.183 332.764 268.655 332.988C269.127 333.209 269.508 333.519 269.798 333.919C270.091 334.319 270.264 334.786 270.32 335.32H268.816C268.733 334.948 268.543 334.628 268.247 334.358C267.954 334.09 267.561 333.955 267.068 333.955C266.637 333.955 266.26 334.069 265.936 334.296C265.616 334.52 265.365 334.841 265.186 335.258C265.007 335.671 264.918 336.161 264.918 336.726C264.918 337.306 265.005 337.805 265.181 338.226C265.356 338.646 265.605 338.972 265.925 339.203C266.25 339.434 266.63 339.55 267.068 339.55C267.361 339.55 267.627 339.496 267.864 339.389C268.105 339.278 268.307 339.122 268.469 338.918C268.635 338.715 268.75 338.47 268.816 338.185H270.32C270.264 338.698 270.098 339.156 269.819 339.56C269.539 339.963 269.165 340.28 268.697 340.511C268.232 340.742 267.685 340.857 267.058 340.857ZM275.173 340.857C274.428 340.857 273.779 340.687 273.224 340.346C272.669 340.005 272.238 339.527 271.931 338.914C271.624 338.3 271.471 337.583 271.471 336.762C271.471 335.939 271.624 335.218 271.931 334.601C272.238 333.984 272.669 333.506 273.224 333.164C273.779 332.823 274.428 332.652 275.173 332.652C275.917 332.652 276.567 332.823 277.122 333.164C277.677 333.506 278.107 333.984 278.414 334.601C278.722 335.218 278.874 335.939 278.874 336.762C278.874 337.583 278.722 338.3 278.414 338.914C278.107 339.527 277.677 340.005 277.122 340.346C276.567 340.687 275.917 340.857 275.173 340.857ZM275.178 339.56C275.661 339.56 276.06 339.432 276.378 339.177C276.694 338.922 276.929 338.582 277.081 338.158C277.236 337.734 277.313 337.267 277.313 336.757C277.313 336.251 277.236 335.785 277.081 335.361C276.929 334.934 276.694 334.591 276.378 334.333C276.06 334.074 275.661 333.945 275.178 333.945C274.692 333.945 274.288 334.074 273.968 334.333C273.651 334.591 273.415 334.934 273.26 335.361C273.108 335.785 273.033 336.251 273.033 336.757C273.033 337.267 273.108 337.734 273.26 338.158C273.415 338.582 273.651 338.922 273.968 339.177C274.288 339.432 274.692 339.56 275.178 339.56ZM280.454 340.697V332.756H281.948V334.017H282.031C282.176 333.589 282.431 333.254 282.796 333.009C283.166 332.76 283.583 332.637 284.048 332.637C284.144 332.637 284.258 332.64 284.389 332.647C284.523 332.654 284.629 332.662 284.705 332.673V334.152C284.643 334.134 284.532 334.115 284.373 334.094C284.215 334.071 284.057 334.059 283.898 334.059C283.533 334.059 283.207 334.136 282.921 334.291C282.638 334.443 282.414 334.655 282.249 334.927C282.083 335.196 282 335.503 282 335.847V340.697H280.454ZM288.585 340.852C287.944 340.852 287.372 340.689 286.868 340.361C286.369 340.03 285.976 339.56 285.69 338.95C285.407 338.336 285.266 337.6 285.266 336.741C285.266 335.883 285.409 335.149 285.695 334.539C285.985 333.929 286.381 333.462 286.884 333.138C287.387 332.814 287.958 332.652 288.595 332.652C289.089 332.652 289.484 332.735 289.785 332.901C290.088 333.063 290.323 333.252 290.487 333.469C290.657 333.686 290.788 333.878 290.88 334.043H290.974V330.109H292.519V340.697H291.01V339.461H290.88C290.788 339.631 290.653 339.824 290.477 340.04C290.305 340.258 290.067 340.447 289.764 340.609C289.461 340.771 289.068 340.852 288.585 340.852ZM288.927 339.534C289.371 339.534 289.747 339.417 290.053 339.182C290.364 338.944 290.598 338.615 290.757 338.195C290.919 337.774 291 337.285 291 336.726C291 336.175 290.92 335.692 290.762 335.278C290.603 334.865 290.371 334.543 290.064 334.312C289.757 334.081 289.378 333.965 288.927 333.965C288.461 333.965 288.073 334.086 287.763 334.327C287.453 334.569 287.219 334.898 287.059 335.315C286.905 335.732 286.827 336.203 286.827 336.726C286.827 337.257 286.907 337.734 287.065 338.158C287.223 338.582 287.458 338.918 287.768 339.166C288.082 339.411 288.468 339.534 288.927 339.534Z" fill="white" fill-opacity="0.5"/>
<path d="M367.218 68.6213H321.72C313.679 68.6213 307.16 75.1397 307.16 83.1806V128.678C307.16 136.719 313.679 143.237 321.72 143.237H367.218C375.259 143.237 381.777 136.719 381.777 128.678V83.1806C381.777 75.1397 375.259 68.6213 367.218 68.6213Z" fill="url(#paint6_linear_1_94)" fill-opacity="0.05"/>
<path d="M367.218 68.6213H321.72C313.679 68.6213 307.16 75.1397 307.16 83.1806V128.678C307.16 136.719 313.679 143.237 321.72 143.237H367.218C375.259 143.237 381.777 136.719 381.777 128.678V83.1806C381.777 75.1397 375.259 68.6213 367.218 68.6213Z" stroke="#252527" stroke-linecap="round"/>
<g filter="url(#filter3_ddi_1_94)">
<path d="M360.848 78.6309H328.089C322.059 78.6309 317.17 83.5197 317.17 89.5503V122.309C317.17 128.339 322.059 133.228 328.089 133.228H360.848C366.879 133.228 371.768 128.339 371.768 122.309V89.5503C371.768 83.5197 366.879 78.6309 360.848 78.6309Z" fill="url(#paint7_linear_1_94)"/>
<path d="M360.848 78.6309H328.089C322.059 78.6309 317.17 83.5197 317.17 89.5503V122.309C317.17 128.339 322.059 133.228 328.089 133.228H360.848C366.879 133.228 371.768 128.339 371.768 122.309V89.5503C371.768 83.5197 366.879 78.6309 360.848 78.6309Z" fill="black" fill-opacity="0.1"/>
<mask id="mask3_1_94" style="mask-type:luminance" maskUnits="userSpaceOnUse" x="331" y="96" width="27" height="20">
<path d="M357.058 96.3877H331.879V115.47H357.058V96.3877Z" fill="white"/>
</mask>
<g mask="url(#mask3_1_94)">
<g filter="url(#filter4_i_1_94)">
<path d="M353.208 97.9865C351.553 97.2285 349.807 96.6916 348.014 96.3877C347.768 96.8272 347.546 97.2785 347.348 97.7408C345.437 97.4523 343.494 97.4523 341.583 97.7408C341.386 97.2785 341.163 96.8272 340.918 96.3877C339.122 96.6943 337.375 97.233 335.719 97.9901C332.432 102.854 331.541 107.596 331.987 112.273C333.911 113.695 336.066 114.777 338.357 115.471C338.873 114.777 339.329 114.041 339.721 113.271C338.977 112.992 338.258 112.649 337.573 112.245C337.753 112.114 337.93 111.98 338.1 111.849C340.093 112.786 342.266 113.272 344.469 113.272C346.671 113.272 348.845 112.786 350.837 111.849C351.009 111.99 351.186 112.124 351.364 112.245C350.678 112.649 349.957 112.993 349.211 113.273C349.603 114.043 350.059 114.778 350.576 115.471C352.869 114.78 355.025 113.699 356.95 112.275C357.474 106.852 356.058 102.153 353.208 97.9865ZM340.286 109.397C339.044 109.397 338.019 108.27 338.019 106.884C338.019 105.498 339.009 104.361 340.282 104.361C341.556 104.361 342.573 105.498 342.551 106.884C342.529 108.27 341.551 109.397 340.286 109.397ZM348.651 109.397C347.408 109.397 346.386 108.27 346.386 106.884C346.386 105.498 347.376 104.361 348.651 104.361C349.926 104.361 350.937 105.498 350.915 106.884C350.893 108.27 349.916 109.397 348.651 109.397Z" fill="white"/>
<path d="M353.208 97.9865C351.553 97.2285 349.807 96.6916 348.014 96.3877C347.768 96.8272 347.546 97.2785 347.348 97.7408C345.437 97.4523 343.494 97.4523 341.583 97.7408C341.386 97.2785 341.163 96.8272 340.918 96.3877C339.122 96.6943 337.375 97.233 335.719 97.9901C332.432 102.854 331.541 107.596 331.987 112.273C333.911 113.695 336.066 114.777 338.357 115.471C338.873 114.777 339.329 114.041 339.721 113.271C338.977 112.992 338.258 112.649 337.573 112.245C337.753 112.114 337.93 111.98 338.1 111.849C340.093 112.786 342.266 113.272 344.469 113.272C346.671 113.272 348.845 112.786 350.837 111.849C351.009 111.99 351.186 112.124 351.364 112.245C350.678 112.649 349.957 112.993 349.211 113.273C349.603 114.043 350.059 114.778 350.576 115.471C352.869 114.78 355.025 113.699 356.95 112.275C357.474 106.852 356.058 102.153 353.208 97.9865ZM340.286 109.397C339.044 109.397 338.019 108.27 338.019 106.884C338.019 105.498 339.009 104.361 340.282 104.361C341.556 104.361 342.573 105.498 342.551 106.884C342.529 108.27 341.551 109.397 340.286 109.397ZM348.651 109.397C347.408 109.397 346.386 108.27 346.386 106.884C346.386 105.498 347.376 104.361 348.651 104.361C349.926 104.361 350.937 105.498 350.915 106.884C350.893 108.27 349.916 109.397 348.651 109.397Z" fill="url(#paint8_linear_1_94)"/>
</g>
</g>
</g>
<path d="M367.218 175.086H321.72C313.679 175.086 307.16 181.604 307.16 189.645V235.143C307.16 243.183 313.679 249.702 321.72 249.702H367.218C375.259 249.702 381.777 243.183 381.777 235.143V189.645C381.777 181.604 375.259 175.086 367.218 175.086Z" fill="url(#paint9_linear_1_94)" fill-opacity="0.05"/>
<path d="M367.218 175.086H321.72C313.679 175.086 307.16 181.604 307.16 189.645V235.143C307.16 243.183 313.679 249.702 321.72 249.702H367.218C375.259 249.702 381.777 243.183 381.777 235.143V189.645C381.777 181.604 375.259 175.086 367.218 175.086Z" fill="url(#paint10_radial_1_94)" fill-opacity="0.05"/>
<path d="M367.218 175.086H321.72C313.679 175.086 307.16 181.604 307.16 189.645V235.143C307.16 243.183 313.679 249.702 321.72 249.702H367.218C375.259 249.702 381.777 243.183 381.777 235.143V189.645C381.777 181.604 375.259 175.086 367.218 175.086Z" stroke="#252527" stroke-linecap="round"/>
<g filter="url(#filter5_ddi_1_94)">
<path d="M360.848 185.095H328.089C322.059 185.095 317.17 189.984 317.17 196.015V228.773C317.17 234.804 322.059 239.692 328.089 239.692H360.848C366.879 239.692 371.768 234.804 371.768 228.773V196.015C371.768 189.984 366.879 185.095 360.848 185.095Z" fill="#252527"/>
<path d="M360.848 185.095H328.089C322.059 185.095 317.17 189.984 317.17 196.015V228.773C317.17 234.804 322.059 239.692 328.089 239.692H360.848C366.879 239.692 371.768 234.804 371.768 228.773V196.015C371.768 189.984 366.879 185.095 360.848 185.095Z" fill="url(#paint11_linear_1_94)"/>
<path d="M360.848 185.095H328.089C322.059 185.095 317.17 189.984 317.17 196.015V228.773C317.17 234.804 322.059 239.692 328.089 239.692H360.848C366.879 239.692 371.768 234.804 371.768 228.773V196.015C371.768 189.984 366.879 185.095 360.848 185.095Z" fill="black" fill-opacity="0.1"/>
<path d="M360.848 185.095H328.089C322.059 185.095 317.17 189.984 317.17 196.015V228.773C317.17 234.804 322.059 239.692 328.089 239.692H360.848C366.879 239.692 371.768 234.804 371.768 228.773V196.015C371.768 189.984 366.879 185.095 360.848 185.095Z" fill="url(#paint12_radial_1_94)" fill-opacity="0.05"/>
<path d="M360.848 185.55H328.089C322.31 185.55 317.625 190.235 317.625 196.015V228.773C317.625 234.552 322.31 239.237 328.089 239.237H360.848C366.627 239.237 371.313 234.552 371.313 228.773V196.015C371.313 190.235 366.627 185.55 360.848 185.55Z" stroke="url(#paint13_radial_1_94)" stroke-opacity="0.3"/>
<g filter="url(#filter6_i_1_94)">
<path d="M334.188 216.854C333.778 216.444 333.548 215.889 333.548 215.309C333.548 214.73 333.778 214.175 334.188 213.765C334.597 213.356 335.153 213.125 335.732 213.125H337.916V215.309C337.916 215.889 337.686 216.444 337.276 216.854C336.867 217.263 336.312 217.493 335.732 217.493C335.153 217.493 334.597 217.263 334.188 216.854Z" fill="white"/>
<path d="M334.188 216.854C333.778 216.444 333.548 215.889 333.548 215.309C333.548 214.73 333.778 214.175 334.188 213.765C334.597 213.356 335.153 213.125 335.732 213.125H337.916V215.309C337.916 215.889 337.686 216.444 337.276 216.854C336.867 217.263 336.312 217.493 335.732 217.493C335.153 217.493 334.597 217.263 334.188 216.854Z" fill="url(#paint14_linear_1_94)"/>
<path d="M340.019 213.765C340.428 213.356 340.984 213.125 341.563 213.125C342.143 213.125 342.698 213.356 343.107 213.765C343.517 214.175 343.747 214.73 343.747 215.309V221.129C343.747 221.709 343.517 222.264 343.107 222.674C342.698 223.083 342.143 223.313 341.563 223.313C340.984 223.313 340.428 223.083 340.019 222.674C339.609 222.264 339.379 221.709 339.379 221.129V215.309C339.379 214.73 339.609 214.175 340.019 213.765Z" fill="white"/>
<path d="M340.019 213.765C340.428 213.356 340.984 213.125 341.563 213.125C342.143 213.125 342.698 213.356 343.107 213.765C343.517 214.175 343.747 214.73 343.747 215.309V221.129C343.747 221.709 343.517 222.264 343.107 222.674C342.698 223.083 342.143 223.313 341.563 223.313C340.984 223.313 340.428 223.083 340.019 222.674C339.609 222.264 339.379 221.709 339.379 221.129V215.309C339.379 214.73 339.609 214.175 340.019 213.765Z" fill="url(#paint15_linear_1_94)"/>
<path d="M335.732 207.294H341.563C342.143 207.294 342.698 207.525 343.107 207.934C343.517 208.344 343.747 208.899 343.747 209.478C343.747 210.058 343.517 210.613 343.107 211.023C342.698 211.432 342.143 211.662 341.563 211.662H335.732C335.153 211.662 334.597 211.432 334.188 211.023C333.778 210.613 333.548 210.058 333.548 209.478C333.548 208.899 333.778 208.344 334.188 207.934C334.597 207.525 335.153 207.294 335.732 207.294Z" fill="white"/>
<path d="M335.732 207.294H341.563C342.143 207.294 342.698 207.525 343.107 207.934C343.517 208.344 343.747 208.899 343.747 209.478C343.747 210.058 343.517 210.613 343.107 211.023C342.698 211.432 342.143 211.662 341.563 211.662H335.732C335.153 211.662 334.597 211.432 334.188 211.023C333.778 210.613 333.548 210.058 333.548 209.478C333.548 208.899 333.778 208.344 334.188 207.934C334.597 207.525 335.153 207.294 335.732 207.294Z" fill="url(#paint16_linear_1_94)"/>
<path d="M340.019 202.114C340.428 201.705 340.984 201.474 341.563 201.474C342.143 201.474 342.698 201.705 343.107 202.114C343.517 202.524 343.747 203.079 343.747 203.658V205.842H341.563C340.984 205.842 340.428 205.612 340.019 205.202C339.609 204.793 339.379 204.238 339.379 203.658C339.379 203.079 339.609 202.524 340.019 202.114Z" fill="white"/>
<path d="M340.019 202.114C340.428 201.705 340.984 201.474 341.563 201.474C342.143 201.474 342.698 201.705 343.107 202.114C343.517 202.524 343.747 203.079 343.747 203.658V205.842H341.563C340.984 205.842 340.428 205.612 340.019 205.202C339.609 204.793 339.379 204.238 339.379 203.658C339.379 203.079 339.609 202.524 340.019 202.114Z" fill="url(#paint17_linear_1_94)"/>
<path d="M348.896 211.022C348.487 211.432 347.931 211.662 347.352 211.662H347.374C347.085 211.665 346.799 211.61 346.531 211.502C346.264 211.394 346.021 211.234 345.815 211.031C345.61 210.827 345.448 210.586 345.337 210.319C345.226 210.052 345.168 209.767 345.168 209.478V203.658C345.168 203.079 345.398 202.524 345.808 202.114C346.217 201.705 346.772 201.474 347.352 201.474C347.931 201.474 348.487 201.705 348.896 202.114C349.306 202.524 349.536 203.079 349.536 203.658V209.478C349.536 210.058 349.306 210.613 348.896 211.022Z" fill="white"/>
<path d="M348.896 211.022C348.487 211.432 347.931 211.662 347.352 211.662H347.374C347.085 211.665 346.799 211.61 346.531 211.502C346.264 211.394 346.021 211.234 345.815 211.031C345.61 210.827 345.448 210.586 345.337 210.319C345.226 210.052 345.168 209.767 345.168 209.478V203.658C345.168 203.079 345.398 202.524 345.808 202.114C346.217 201.705 346.772 201.474 347.352 201.474C347.931 201.474 348.487 201.705 348.896 202.114C349.306 202.524 349.536 203.079 349.536 203.658V209.478C349.536 210.058 349.306 210.613 348.896 211.022Z" fill="url(#paint18_linear_1_94)"/>
<path d="M354.706 207.934C355.115 208.344 355.345 208.899 355.345 209.478H355.389C355.389 209.769 355.331 210.056 355.219 210.325C355.106 210.592 354.941 210.835 354.734 211.038C354.526 211.242 354.281 211.402 354.01 211.508C353.74 211.616 353.452 211.668 353.161 211.662H350.977V209.478C350.977 208.899 351.208 208.344 351.617 207.934C352.027 207.525 352.582 207.294 353.161 207.294C353.74 207.294 354.296 207.525 354.706 207.934Z" fill="white"/>
<path d="M354.706 207.934C355.115 208.344 355.345 208.899 355.345 209.478H355.389C355.389 209.769 355.331 210.056 355.219 210.325C355.106 210.592 354.941 210.835 354.734 211.038C354.526 211.242 354.281 211.402 354.01 211.508C353.74 211.616 353.452 211.668 353.161 211.662H350.977V209.478C350.977 208.899 351.208 208.344 351.617 207.934C352.027 207.525 352.582 207.294 353.161 207.294C353.74 207.294 354.296 207.525 354.706 207.934Z" fill="url(#paint19_linear_1_94)"/>
<path d="M347.373 218.946H345.189V221.129C345.189 221.562 345.317 221.984 345.558 222.342C345.797 222.702 346.138 222.982 346.538 223.147C346.936 223.312 347.376 223.356 347.799 223.271C348.223 223.187 348.612 222.979 348.917 222.674C349.223 222.368 349.431 221.979 349.515 221.555C349.6 221.132 349.556 220.693 349.391 220.294C349.226 219.895 348.945 219.553 348.587 219.313C348.227 219.074 347.805 218.946 347.373 218.946ZM353.204 213.125H347.373C346.794 213.125 346.238 213.356 345.829 213.765C345.419 214.175 345.189 214.73 345.189 215.309C345.189 215.889 345.419 216.444 345.829 216.854C346.238 217.263 346.794 217.493 347.373 217.493H353.204C353.784 217.493 354.339 217.263 354.748 216.854C355.158 216.444 355.388 215.889 355.388 215.309C355.388 214.73 355.158 214.175 354.748 213.765C354.339 213.356 353.784 213.125 353.204 213.125Z" fill="white"/>
<path d="M347.373 218.946H345.189V221.129C345.189 221.562 345.317 221.984 345.558 222.342C345.797 222.702 346.138 222.982 346.538 223.147C346.936 223.312 347.376 223.356 347.799 223.271C348.223 223.187 348.612 222.979 348.917 222.674C349.223 222.368 349.431 221.979 349.515 221.555C349.6 221.132 349.556 220.693 349.391 220.294C349.226 219.895 348.945 219.553 348.587 219.313C348.227 219.074 347.805 218.946 347.373 218.946ZM353.204 213.125H347.373C346.794 213.125 346.238 213.356 345.829 213.765C345.419 214.175 345.189 214.73 345.189 215.309C345.189 215.889 345.419 216.444 345.829 216.854C346.238 217.263 346.794 217.493 347.373 217.493H353.204C353.784 217.493 354.339 217.263 354.748 216.854C355.158 216.444 355.388 215.889 355.388 215.309C355.388 214.73 355.158 214.175 354.748 213.765C354.339 213.356 353.784 213.125 353.204 213.125Z" fill="url(#paint20_linear_1_94)"/>
</g>
</g>
<path d="M106.972 120.489H61.4734C53.4325 120.489 46.914 127.007 46.914 135.048V181.455C46.914 189.496 53.4325 196.015 61.4734 196.015H106.972C115.012 196.015 121.531 189.496 121.531 181.455V135.048C121.531 127.007 115.012 120.489 106.972 120.489Z" fill="url(#paint21_linear_1_94)" fill-opacity="0.05"/>
<path d="M106.972 120.489H61.4734C53.4325 120.489 46.914 127.007 46.914 135.048V181.455C46.914 189.496 53.4325 196.015 61.4734 196.015H106.972C115.012 196.015 121.531 189.496 121.531 181.455V135.048C121.531 127.007 115.012 120.489 106.972 120.489Z" stroke="#252527" stroke-linecap="round"/>
<g filter="url(#filter7_ddi_1_94)">
<path d="M100.602 130.498H67.8432C61.8125 130.498 56.9236 135.387 56.9236 141.417V174.176C56.9236 180.206 61.8125 185.095 67.8432 185.095H100.602C106.632 185.095 111.521 180.206 111.521 174.176V141.417C111.521 135.387 106.632 130.498 100.602 130.498Z" fill="url(#paint22_linear_1_94)"/>
<path d="M100.602 130.498H67.8432C61.8125 130.498 56.9236 135.387 56.9236 141.417V174.176C56.9236 180.206 61.8125 185.095 67.8432 185.095H100.602C106.632 185.095 111.521 180.206 111.521 174.176V141.417C111.521 135.387 106.632 130.498 100.602 130.498Z" fill="url(#paint23_radial_1_94)" fill-opacity="0.1"/>
<path d="M100.602 130.043H67.8431C61.5612 130.043 56.4686 135.135 56.4686 141.417V174.176C56.4686 180.458 61.5612 185.55 67.8431 185.55H100.602C106.884 185.55 111.976 180.458 111.976 174.176V141.417C111.976 135.135 106.884 130.043 100.602 130.043Z" stroke="white" stroke-opacity="0.04"/>
<path d="M100.602 130.043H67.8431C61.5612 130.043 56.4686 135.135 56.4686 141.417V174.176C56.4686 180.458 61.5612 185.55 67.8431 185.55H100.602C106.884 185.55 111.976 180.458 111.976 174.176V141.417C111.976 135.135 106.884 130.043 100.602 130.043Z" stroke="url(#paint24_radial_1_94)" stroke-opacity="0.3"/>
<path d="M100.602 130.043H67.8431C61.5612 130.043 56.4686 135.135 56.4686 141.417V174.176C56.4686 180.458 61.5612 185.55 67.8431 185.55H100.602C106.884 185.55 111.976 180.458 111.976 174.176V141.417C111.976 135.135 106.884 130.043 100.602 130.043Z" stroke="url(#paint25_radial_1_94)" stroke-opacity="0.1"/>
<g filter="url(#filter8_i_1_94)">
<path fill-rule="evenodd" clip-rule="evenodd" d="M84.4257 170.084C83.4079 170.079 82.5862 169.251 82.5908 168.233L82.6231 160.939L76.1292 164.688C75.2476 165.197 74.1203 164.895 73.6113 164.013C73.1024 163.132 73.4044 162.004 74.2859 161.496L80.5358 157.888L74.2245 154.243C73.3429 153.735 73.0409 152.607 73.5499 151.725C74.0588 150.845 75.1862 150.542 76.0677 151.051L82.6501 154.851L82.6833 147.344C82.6879 146.326 83.5167 145.504 84.5347 145.509C85.5526 145.513 86.3741 146.342 86.3697 147.36L86.3378 154.537L92.3763 151.051C93.2581 150.542 94.3855 150.845 94.8942 151.725C95.4038 152.607 95.1017 153.735 94.2199 154.243L87.9085 157.888L94.158 161.496C95.0398 162.004 95.3419 163.132 94.8332 164.013C94.3237 164.895 93.1971 165.197 92.3154 164.688L86.3083 161.22L86.2771 168.249C86.2726 169.266 85.4437 170.088 84.4257 170.084Z" fill="white"/>
<path fill-rule="evenodd" clip-rule="evenodd" d="M84.4257 170.084C83.4079 170.079 82.5862 169.251 82.5908 168.233L82.6231 160.939L76.1292 164.688C75.2476 165.197 74.1203 164.895 73.6113 164.013C73.1024 163.132 73.4044 162.004 74.2859 161.496L80.5358 157.888L74.2245 154.243C73.3429 153.735 73.0409 152.607 73.5499 151.725C74.0588 150.845 75.1862 150.542 76.0677 151.051L82.6501 154.851L82.6833 147.344C82.6879 146.326 83.5167 145.504 84.5347 145.509C85.5526 145.513 86.3741 146.342 86.3697 147.36L86.3378 154.537L92.3763 151.051C93.2581 150.542 94.3855 150.845 94.8942 151.725C95.4038 152.607 95.1017 153.735 94.2199 154.243L87.9085 157.888L94.158 161.496C95.0398 162.004 95.3419 163.132 94.8332 164.013C94.3237 164.895 93.1971 165.197 92.3154 164.688L86.3083 161.22L86.2771 168.249C86.2726 169.266 85.4437 170.088 84.4257 170.084Z" fill="url(#paint26_linear_1_94)"/>
</g>
</g>
</g>
<path d="M404.525 6.28979H24.1653C16.3758 6.28979 10.0611 12.6045 10.0611 20.394V355.256C10.0611 363.046 16.3758 369.361 24.1653 369.361H404.525C412.315 369.361 418.63 363.046 418.63 355.256V20.394C418.63 12.6045 412.315 6.28979 404.525 6.28979Z" stroke="white" stroke-opacity="0.02"/>
</g>
<defs>
<filter id="filter0_d_1_94" x="-0.438934" y="-0.210205" width="429.568" height="384.071" filterUnits="userSpaceOnUse" color-interpolation-filters="sRGB">
<feFlood flood-opacity="0" result="BackgroundImageFix"/>
<feColorMatrix in="SourceAlpha" type="matrix" values="0 0 0 0 0 0 0 0 0 0 0 0 0 0 0 0 0 0 127 0" result="hardAlpha"/>
<feOffset dy="4"/>
<feGaussianBlur stdDeviation="5"/>
<feComposite in2="hardAlpha" operator="out"/>
<feColorMatrix type="matrix" values="0 0 0 0 0 0 0 0 0 0 0 0 0 0 0 0 0 0 0.3 0"/>
<feBlend mode="normal" in2="BackgroundImageFix" result="effect1_dropShadow_1_94"/>
<feBlend mode="normal" in="SourceGraphic" in2="effect1_dropShadow_1_94" result="shape"/>
</filter>
<filter id="filter1_f_1_94" x="33.7007" y="55.408" width="180.209" height="182.028" filterUnits="userSpaceOnUse" color-interpolation-filters="sRGB">
<feFlood flood-opacity="0" result="BackgroundImageFix"/>
<feBlend mode="normal" in="SourceGraphic" in2="BackgroundImageFix" result="shape"/>
<feGaussianBlur stdDeviation="38" result="effect1_foregroundBlur_1_94"/>
</filter>
<filter id="filter2_f_1_94" x="181.113" y="109.095" width="195.678" height="202.957" filterUnits="userSpaceOnUse" color-interpolation-filters="sRGB">
<feFlood flood-opacity="0" result="BackgroundImageFix"/>
<feBlend mode="normal" in="SourceGraphic" in2="BackgroundImageFix" result="shape"/>
<feGaussianBlur stdDeviation="38" result="effect1_foregroundBlur_1_94"/>
</filter>
<filter id="filter3_ddi_1_94" x="309.17" y="72.6309" width="70.5977" height="70.5972" filterUnits="userSpaceOnUse" color-interpolation-filters="sRGB">
<feFlood flood-opacity="0" result="BackgroundImageFix"/>
<feColorMatrix in="SourceAlpha" type="matrix" values="0 0 0 0 0 0 0 0 0 0 0 0 0 0 0 0 0 0 127 0" result="hardAlpha"/>
<feOffset dy="2"/>
<feGaussianBlur stdDeviation="4"/>
<feColorMatrix type="matrix" values="0 0 0 0 0 0 0 0 0 0 0 0 0 0 0 0 0 0 0.2 0"/>
<feBlend mode="normal" in2="BackgroundImageFix" result="effect1_dropShadow_1_94"/>
<feColorMatrix in="SourceAlpha" type="matrix" values="0 0 0 0 0 0 0 0 0 0 0 0 0 0 0 0 0 0 127 0" result="hardAlpha"/>
<feOffset dy="1"/>
<feGaussianBlur stdDeviation="0.5"/>
<feColorMatrix type="matrix" values="0 0 0 0 0 0 0 0 0 0 0 0 0 0 0 0 0 0 0.1 0"/>
<feBlend mode="normal" in2="effect1_dropShadow_1_94" result="effect2_dropShadow_1_94"/>
<feBlend mode="normal" in="SourceGraphic" in2="effect2_dropShadow_1_94" result="shape"/>
<feColorMatrix in="SourceAlpha" type="matrix" values="0 0 0 0 0 0 0 0 0 0 0 0 0 0 0 0 0 0 127 0" result="hardAlpha"/>
<feOffset/>
<feGaussianBlur stdDeviation="2"/>
<feComposite in2="hardAlpha" operator="arithmetic" k2="-1" k3="1"/>
<feColorMatrix type="matrix" values="0 0 0 0 1 0 0 0 0 1 0 0 0 0 1 0 0 0 0.1 0"/>
<feBlend mode="normal" in2="shape" result="effect3_innerShadow_1_94"/>
</filter>
<filter id="filter4_i_1_94" x="331.88" y="95.8877" width="25.1781" height="19.5835" filterUnits="userSpaceOnUse" color-interpolation-filters="sRGB">
<feFlood flood-opacity="0" result="BackgroundImageFix"/>
<feBlend mode="normal" in="SourceGraphic" in2="BackgroundImageFix" result="shape"/>
<feColorMatrix in="SourceAlpha" type="matrix" values="0 0 0 0 0 0 0 0 0 0 0 0 0 0 0 0 0 0 127 0" result="hardAlpha"/>
<feOffset dy="-0.5"/>
<feGaussianBlur stdDeviation="0.5"/>
<feComposite in2="hardAlpha" operator="arithmetic" k2="-1" k3="1"/>
<feColorMatrix type="matrix" values="0 0 0 0 0 0 0 0 0 0 0 0 0 0 0 0 0 0 0.45 0"/>
<feBlend mode="normal" in2="shape" result="effect1_innerShadow_1_94"/>
</filter>
<filter id="filter5_ddi_1_94" x="309.125" y="179.05" width="70.6877" height="70.6873" filterUnits="userSpaceOnUse" color-interpolation-filters="sRGB">
<feFlood flood-opacity="0" result="BackgroundImageFix"/>
<feColorMatrix in="SourceAlpha" type="matrix" values="0 0 0 0 0 0 0 0 0 0 0 0 0 0 0 0 0 0 127 0" result="hardAlpha"/>
<feOffset dy="2"/>
<feGaussianBlur stdDeviation="4"/>
<feColorMatrix type="matrix" values="0 0 0 0 0 0 0 0 0 0 0 0 0 0 0 0 0 0 0.2 0"/>
<feBlend mode="normal" in2="BackgroundImageFix" result="effect1_dropShadow_1_94"/>
<feColorMatrix in="SourceAlpha" type="matrix" values="0 0 0 0 0 0 0 0 0 0 0 0 0 0 0 0 0 0 127 0" result="hardAlpha"/>
<feOffset dy="1"/>
<feGaussianBlur stdDeviation="0.5"/>
<feColorMatrix type="matrix" values="0 0 0 0 0 0 0 0 0 0 0 0 0 0 0 0 0 0 0.1 0"/>
<feBlend mode="normal" in2="effect1_dropShadow_1_94" result="effect2_dropShadow_1_94"/>
<feBlend mode="normal" in="SourceGraphic" in2="effect2_dropShadow_1_94" result="shape"/>
<feColorMatrix in="SourceAlpha" type="matrix" values="0 0 0 0 0 0 0 0 0 0 0 0 0 0 0 0 0 0 127 0" result="hardAlpha"/>
<feOffset/>
<feGaussianBlur stdDeviation="2"/>
<feComposite in2="hardAlpha" operator="arithmetic" k2="-1" k3="1"/>
<feColorMatrix type="matrix" values="0 0 0 0 1 0 0 0 0 1 0 0 0 0 1 0 0 0 0.1 0"/>
<feBlend mode="normal" in2="shape" result="effect3_innerShadow_1_94"/>
</filter>
<filter id="filter6_i_1_94" x="333.548" y="200.974" width="21.8409" height="22.3391" filterUnits="userSpaceOnUse" color-interpolation-filters="sRGB">
<feFlood flood-opacity="0" result="BackgroundImageFix"/>
<feBlend mode="normal" in="SourceGraphic" in2="BackgroundImageFix" result="shape"/>
<feColorMatrix in="SourceAlpha" type="matrix" values="0 0 0 0 0 0 0 0 0 0 0 0 0 0 0 0 0 0 127 0" result="hardAlpha"/>
<feOffset dy="-0.5"/>
<feGaussianBlur stdDeviation="0.5"/>
<feComposite in2="hardAlpha" operator="arithmetic" k2="-1" k3="1"/>
<feColorMatrix type="matrix" values="0 0 0 0 0 0 0 0 0 0 0 0 0 0 0 0 0 0 0.45 0"/>
<feBlend mode="normal" in2="shape" result="effect1_innerShadow_1_94"/>
</filter>
<filter id="filter7_ddi_1_94" x="47.9686" y="123.543" width="72.5077" height="72.5071" filterUnits="userSpaceOnUse" color-interpolation-filters="sRGB">
<feFlood flood-opacity="0" result="BackgroundImageFix"/>
<feColorMatrix in="SourceAlpha" type="matrix" values="0 0 0 0 0 0 0 0 0 0 0 0 0 0 0 0 0 0 127 0" result="hardAlpha"/>
<feOffset dy="2"/>
<feGaussianBlur stdDeviation="4"/>
<feColorMatrix type="matrix" values="0 0 0 0 0 0 0 0 0 0 0 0 0 0 0 0 0 0 0.2 0"/>
<feBlend mode="normal" in2="BackgroundImageFix" result="effect1_dropShadow_1_94"/>
<feColorMatrix in="SourceAlpha" type="matrix" values="0 0 0 0 0 0 0 0 0 0 0 0 0 0 0 0 0 0 127 0" result="hardAlpha"/>
<feOffset dy="1"/>
<feGaussianBlur stdDeviation="0.5"/>
<feColorMatrix type="matrix" values="0 0 0 0 0 0 0 0 0 0 0 0 0 0 0 0 0 0 0.1 0"/>
<feBlend mode="normal" in2="effect1_dropShadow_1_94" result="effect2_dropShadow_1_94"/>
<feBlend mode="normal" in="SourceGraphic" in2="effect2_dropShadow_1_94" result="shape"/>
<feColorMatrix in="SourceAlpha" type="matrix" values="0 0 0 0 0 0 0 0 0 0 0 0 0 0 0 0 0 0 127 0" result="hardAlpha"/>
<feOffset/>
<feGaussianBlur stdDeviation="2"/>
<feComposite in2="hardAlpha" operator="arithmetic" k2="-1" k3="1"/>
<feColorMatrix type="matrix" values="0 0 0 0 1 0 0 0 0 1 0 0 0 0 1 0 0 0 0.1 0"/>
<feBlend mode="normal" in2="shape" result="effect3_innerShadow_1_94"/>
</filter>
<filter id="filter8_i_1_94" x="73.3026" y="145.009" width="21.8392" height="25.0752" filterUnits="userSpaceOnUse" color-interpolation-filters="sRGB">
<feFlood flood-opacity="0" result="BackgroundImageFix"/>
<feBlend mode="normal" in="SourceGraphic" in2="BackgroundImageFix" result="shape"/>
<feColorMatrix in="SourceAlpha" type="matrix" values="0 0 0 0 0 0 0 0 0 0 0 0 0 0 0 0 0 0 127 0" result="hardAlpha"/>
<feOffset dy="-0.5"/>
<feGaussianBlur stdDeviation="0.5"/>
<feComposite in2="hardAlpha" operator="arithmetic" k2="-1" k3="1"/>
<feColorMatrix type="matrix" values="0 0 0 0 0 0 0 0 0 0 0 0 0 0 0 0 0 0 0.45 0"/>
<feBlend mode="normal" in2="shape" result="effect1_innerShadow_1_94"/>
</filter>
<radialGradient id="paint0_radial_1_94" cx="0" cy="0" r="1" gradientUnits="userSpaceOnUse" gradientTransform="translate(9.60608 5.83472) rotate(41.6335) scale(547.864 616.347)">
<stop stop-color="#1B1B1B" stop-opacity="0"/>
<stop offset="0.494792" stop-color="#1B1B1B"/>
</radialGradient>
<radialGradient id="paint1_radial_1_94" cx="0" cy="0" r="1" gradientUnits="userSpaceOnUse" gradientTransform="translate(-44.991 150.517) rotate(26.4666) scale(118.42 182.874)">
<stop stop-color="#24FF95"/>
<stop offset="1" stop-color="#24FF95" stop-opacity="0"/>
</radialGradient>
<radialGradient id="paint2_radial_1_94" cx="0" cy="0" r="1" gradientUnits="userSpaceOnUse" gradientTransform="translate(209.341 187.825) rotate(90) scale(181.99 204.739)">
<stop stop-color="#1B1B1B"/>
<stop offset="1" stop-color="#1B1B1B" stop-opacity="0"/>
</radialGradient>
<linearGradient id="paint3_linear_1_94" x1="nan" y1="nan" x2="nan" y2="nan" gradientUnits="userSpaceOnUse">
<stop stop-color="#24FF95"/>
<stop offset="0.041424" stop-color="#24FF95"/>
<stop offset="0.958333" stop-color="#24FF95" stop-opacity="0"/>
</linearGradient>
<linearGradient id="paint4_linear_1_94" x1="201.151" y1="208.754" x2="259.954" y2="269.955" gradientUnits="userSpaceOnUse">
<stop stop-color="#24FF95" stop-opacity="0"/>
<stop offset="0.541667" stop-color="#24FF95"/>
<stop offset="0.838485" stop-color="#24FF95"/>
<stop offset="0.958333" stop-color="#24FF95" stop-opacity="0"/>
</linearGradient>
<linearGradient id="paint5_linear_1_94" x1="177.037" y1="301.569" x2="177.037" y2="322.498" gradientUnits="userSpaceOnUse">
<stop stop-color="white"/>
<stop offset="1" stop-color="#BABABA"/>
</linearGradient>
<linearGradient id="paint6_linear_1_94" x1="379.502" y1="106.828" x2="312.178" y2="100.843" gradientUnits="userSpaceOnUse">
<stop stop-color="#1B1B1B"/>
<stop offset="1" stop-color="#323234"/>
</linearGradient>
<linearGradient id="paint7_linear_1_94" x1="344.469" y1="95.01" x2="344.469" y2="133.228" gradientUnits="userSpaceOnUse">
<stop stop-color="#1F1F21"/>
<stop offset="1" stop-color="#202022"/>
</linearGradient>
<linearGradient id="paint8_linear_1_94" x1="344.469" y1="96.3877" x2="344.469" y2="115.471" gradientUnits="userSpaceOnUse">
<stop stop-color="white"/>
<stop offset="1" stop-color="#BABABA"/>
</linearGradient>
<linearGradient id="paint9_linear_1_94" x1="379.502" y1="213.293" x2="312.178" y2="207.307" gradientUnits="userSpaceOnUse">
<stop stop-color="#1B1B1B"/>
<stop offset="1" stop-color="#323234"/>
</linearGradient>
<radialGradient id="paint10_radial_1_94" cx="0" cy="0" r="1" gradientUnits="userSpaceOnUse" gradientTransform="translate(307.16 212.394) scale(34.1236 54.9923)">
<stop stop-color="#24E989"/>
<stop offset="1" stop-opacity="0"/>
</radialGradient>
<linearGradient id="paint11_linear_1_94" x1="344.469" y1="201.474" x2="344.469" y2="239.692" gradientUnits="userSpaceOnUse">
<stop stop-color="#1F1F21"/>
<stop offset="1" stop-color="#202022"/>
</linearGradient>
<radialGradient id="paint12_radial_1_94" cx="0" cy="0" r="1" gradientUnits="userSpaceOnUse" gradientTransform="translate(308.07 205.114) rotate(17.9277) scale(32.5175 39.4714)">
<stop stop-color="#24FF95"/>
<stop offset="1" stop-color="#24FF95" stop-opacity="0"/>
</radialGradient>
<radialGradient id="paint13_radial_1_94" cx="0" cy="0" r="1" gradientUnits="userSpaceOnUse" gradientTransform="translate(313.075 207.844) rotate(10.3047) scale(30.521 23.5224)">
<stop stop-color="#A8FFD5"/>
<stop offset="1" stop-color="#BDFFDF" stop-opacity="0"/>
</radialGradient>
<linearGradient id="paint14_linear_1_94" x1="344.468" y1="201.474" x2="344.468" y2="223.313" gradientUnits="userSpaceOnUse">
<stop stop-color="white"/>
<stop offset="1" stop-color="#BABABA"/>
</linearGradient>
<linearGradient id="paint15_linear_1_94" x1="344.468" y1="201.474" x2="344.468" y2="223.313" gradientUnits="userSpaceOnUse">
<stop stop-color="white"/>
<stop offset="1" stop-color="#BABABA"/>
</linearGradient>
<linearGradient id="paint16_linear_1_94" x1="344.468" y1="201.474" x2="344.468" y2="223.313" gradientUnits="userSpaceOnUse">
<stop stop-color="white"/>
<stop offset="1" stop-color="#BABABA"/>
</linearGradient>
<linearGradient id="paint17_linear_1_94" x1="344.468" y1="201.474" x2="344.468" y2="223.313" gradientUnits="userSpaceOnUse">
<stop stop-color="white"/>
<stop offset="1" stop-color="#BABABA"/>
</linearGradient>
<linearGradient id="paint18_linear_1_94" x1="344.468" y1="201.474" x2="344.468" y2="223.313" gradientUnits="userSpaceOnUse">
<stop stop-color="white"/>
<stop offset="1" stop-color="#BABABA"/>
</linearGradient>
<linearGradient id="paint19_linear_1_94" x1="344.468" y1="201.474" x2="344.468" y2="223.313" gradientUnits="userSpaceOnUse">
<stop stop-color="white"/>
<stop offset="1" stop-color="#BABABA"/>
</linearGradient>
<linearGradient id="paint20_linear_1_94" x1="344.468" y1="201.474" x2="344.468" y2="223.313" gradientUnits="userSpaceOnUse">
<stop stop-color="white"/>
<stop offset="1" stop-color="#BABABA"/>
</linearGradient>
<linearGradient id="paint21_linear_1_94" x1="119.256" y1="159.161" x2="51.9188" y2="153.247" gradientUnits="userSpaceOnUse">
<stop stop-color="#1B1B1B"/>
<stop offset="1" stop-color="#323234"/>
</linearGradient>
<linearGradient id="paint22_linear_1_94" x1="84.2225" y1="146.877" x2="84.2225" y2="185.095" gradientUnits="userSpaceOnUse">
<stop stop-color="#1F1F21"/>
<stop offset="1" stop-color="#202022"/>
</linearGradient>
<radialGradient id="paint23_radial_1_94" cx="0" cy="0" r="1" gradientUnits="userSpaceOnUse" gradientTransform="translate(47.824 150.517) rotate(17.9277) scale(32.5175 39.4714)">
<stop stop-color="#24FF95"/>
<stop offset="1" stop-color="#24FF95" stop-opacity="0"/>
</radialGradient>
<radialGradient id="paint24_radial_1_94" cx="0" cy="0" r="1" gradientUnits="userSpaceOnUse" gradientTransform="translate(52.8288 153.247) rotate(10.3047) scale(30.521 23.5224)">
<stop stop-color="#A8FFD5"/>
<stop offset="1" stop-color="#BDFFDF" stop-opacity="0"/>
</radialGradient>
<radialGradient id="paint25_radial_1_94" cx="0" cy="0" r="1" gradientUnits="userSpaceOnUse" gradientTransform="translate(81.904 130.498) rotate(94.0655) scale(31.4725 22.8364)">
<stop stop-color="white" stop-opacity="0.48"/>
<stop offset="1" stop-color="white" stop-opacity="0.04"/>
</radialGradient>
<linearGradient id="paint26_linear_1_94" x1="84.2222" y1="145.509" x2="84.2222" y2="170.084" gradientUnits="userSpaceOnUse">
<stop stop-color="white"/>
<stop offset="1" stop-color="#BABABA"/>
</linearGradient>
</defs>
</svg>
