<svg width="274" height="383" viewBox="0 0 274 383" fill="none" xmlns="http://www.w3.org/2000/svg">
<g filter="url(#filter0_d_1_448)">
<mask id="mask0_1_448" style="mask-type:luminance" maskUnits="userSpaceOnUse" x="9" y="6" width="255" height="365">
<path d="M248.923 6.09497H24.1653C16.1245 6.09497 9.60608 12.6134 9.60608 20.6542V355.516C9.60608 363.557 16.1245 370.076 24.1653 370.076H248.923C256.964 370.076 263.483 363.557 263.483 355.516V20.6542C263.483 12.6134 256.964 6.09497 248.923 6.09497Z" fill="white"/>
</mask>
<g mask="url(#mask0_1_448)">
<path d="M248.923 6.09497H24.1653C16.1245 6.09497 9.60608 12.6134 9.60608 20.6542V355.516C9.60608 363.557 16.1245 370.076 24.1653 370.076H248.923C256.964 370.076 263.483 363.557 263.483 355.516V20.6542C263.483 12.6134 256.964 6.09497 248.923 6.09497Z" fill="url(#paint0_radial_1_448)" fill-opacity="0.6"/>
<path d="M248.923 6.09497H24.1653C16.1245 6.09497 9.60608 12.6134 9.60608 20.6542V355.516C9.60608 363.557 16.1245 370.076 24.1653 370.076H248.923C256.964 370.076 263.483 363.557 263.483 355.516V20.6542C263.483 12.6134 256.964 6.09497 248.923 6.09497Z" fill="url(#paint1_radial_1_448)" fill-opacity="0.15"/>
<path d="M261.663 6.09497H9.60608V370.076H261.663V6.09497Z" fill="url(#paint2_radial_1_448)"/>
<g style="mix-blend-mode:luminosity">
<path d="M243.464 17.4695H27.8052C24.0361 17.4695 20.9806 20.525 20.9806 24.2941V350.967C20.9806 354.736 24.0361 357.791 27.8052 357.791H243.464C247.233 357.791 250.289 354.736 250.289 350.967V24.2941C250.289 20.525 247.233 17.4695 243.464 17.4695Z" stroke="#252527"/>
</g>
<path d="M132.904 344.597L132.904 18.8342" stroke="url(#paint3_radial_1_448)"/>
<path d="M33.7598 301.829H31.852L36.1387 289.917H38.2152L42.5019 301.829H40.5941L37.2264 292.081H37.1333L33.7598 301.829ZM34.0797 297.165H40.2684V298.677H34.0797V297.165ZM47.5381 302.009C46.6733 302.009 45.9288 301.814 45.3045 301.422C44.6841 301.027 44.2072 300.482 43.8737 299.787C43.5402 299.094 43.3735 298.299 43.3735 297.403C43.3735 296.495 43.5441 295.695 43.8853 295.001C44.2266 294.303 44.7074 293.758 45.3278 293.367C45.9482 292.974 46.6792 292.779 47.5206 292.779C48.1992 292.779 48.8041 292.904 49.3353 293.156C49.8666 293.405 50.2951 293.754 50.6208 294.204C50.9504 294.653 51.1462 295.179 51.2082 295.78H49.5157C49.4226 295.361 49.2093 295.001 48.8758 294.698C48.5462 294.396 48.1042 294.245 47.5497 294.245C47.065 294.245 46.6404 294.372 46.2759 294.629C45.9153 294.881 45.6341 295.241 45.4324 295.711C45.2309 296.176 45.1301 296.726 45.1301 297.362C45.1301 298.014 45.2289 298.576 45.4267 299.049C45.6245 299.522 45.9036 299.888 46.2642 300.149C46.6288 300.408 47.0573 300.538 47.5497 300.538C47.8793 300.538 48.1779 300.478 48.4454 300.358C48.7168 300.233 48.9437 300.058 49.1259 299.828C49.312 299.6 49.442 299.324 49.5157 299.002H51.2082C51.1462 299.58 50.9581 300.096 50.644 300.55C50.3299 301.003 49.9092 301.36 49.3818 301.62C48.8584 301.879 48.2437 302.009 47.5381 302.009ZM56.6675 302.009C55.8028 302.009 55.0583 301.814 54.434 301.422C53.8136 301.027 53.3366 300.482 53.0032 299.787C52.6697 299.094 52.503 298.299 52.503 297.403C52.503 296.495 52.6736 295.695 53.0148 295.001C53.356 294.303 53.8369 293.758 54.4573 293.367C55.0777 292.974 55.8086 292.779 56.6501 292.779C57.3286 292.779 57.9336 292.904 58.4648 293.156C58.996 293.405 59.4245 293.754 59.7502 294.204C60.0799 294.653 60.2757 295.179 60.3376 295.78H58.6451C58.552 295.361 58.3388 295.001 58.0053 294.698C57.6757 294.396 57.2336 294.245 56.6791 294.245C56.1945 294.245 55.7699 294.372 55.4053 294.629C55.0447 294.881 54.7636 295.241 54.5619 295.711C54.3603 296.176 54.2595 296.726 54.2595 297.362C54.2595 298.014 54.3584 298.576 54.5561 299.049C54.7539 299.522 55.0331 299.888 55.3937 300.149C55.7582 300.408 56.1866 300.538 56.6791 300.538C57.0088 300.538 57.3073 300.478 57.5749 300.358C57.8463 300.233 58.0731 300.058 58.2554 299.828C58.4415 299.6 58.5714 299.324 58.6451 299.002H60.3376C60.2757 299.58 60.0876 300.096 59.7735 300.55C59.4594 301.003 59.0387 301.36 58.5113 301.62C57.9879 301.879 57.3732 302.009 56.6675 302.009ZM65.8842 302.009C65.004 302.009 64.2459 301.821 63.6099 301.445C62.9779 301.066 62.4893 300.532 62.1442 299.845C61.8029 299.156 61.6323 298.347 61.6323 297.42C61.6323 296.505 61.8029 295.699 62.1442 295.001C62.4893 294.303 62.9701 293.758 63.5867 293.367C64.2071 292.974 64.9323 292.779 65.7621 292.779C66.2662 292.779 66.7547 292.862 67.2278 293.029C67.7009 293.196 68.1255 293.458 68.5016 293.814C68.8777 294.171 69.1744 294.634 69.3915 295.204C69.6087 295.771 69.7173 296.459 69.7173 297.269V297.885H62.6153V296.582H68.013C68.013 296.126 67.9199 295.72 67.7338 295.367C67.5477 295.01 67.2859 294.729 66.9486 294.524C66.6151 294.318 66.2235 294.216 65.7737 294.216C65.2851 294.216 64.8586 294.336 64.494 294.576C64.1334 294.813 63.8542 295.123 63.6565 295.507C63.4626 295.886 63.3657 296.299 63.3657 296.745V297.763C63.3657 298.36 63.4703 298.868 63.6797 299.288C63.893 299.706 64.1897 300.026 64.5697 300.247C64.9496 300.464 65.3937 300.573 65.9016 300.573C66.2312 300.573 66.5318 300.526 66.8032 300.433C67.0747 300.336 67.3092 300.193 67.507 300.003C67.7047 299.813 67.8559 299.578 67.9607 299.299L69.6067 299.595C69.4749 300.08 69.2383 300.505 68.8971 300.869C68.5598 301.23 68.1351 301.512 67.6233 301.713C67.1153 301.91 66.5356 302.009 65.8842 302.009ZM73.2222 289.917V301.829H71.483V289.917H73.2222ZM79.2485 302.009C78.3684 302.009 77.6103 301.821 76.9743 301.445C76.3423 301.066 75.8537 300.532 75.5086 299.845C75.1673 299.156 74.9967 298.347 74.9967 297.42C74.9967 296.505 75.1673 295.699 75.5086 295.001C75.8537 294.303 76.3345 293.758 76.951 293.367C77.5715 292.974 78.2966 292.779 79.1264 292.779C79.6305 292.779 80.1191 292.862 80.5922 293.029C81.0653 293.196 81.4898 293.458 81.8659 293.814C82.2421 294.171 82.5387 294.634 82.7559 295.204C82.973 295.771 83.0816 296.459 83.0816 297.269V297.885H75.9797V296.582H81.3774C81.3774 296.126 81.2843 295.72 81.0982 295.367C80.912 295.01 80.6503 294.729 80.3129 294.524C79.9795 294.318 79.5879 294.216 79.1381 294.216C78.6494 294.216 78.2229 294.336 77.8584 294.576C77.4978 294.813 77.2186 295.123 77.0208 295.507C76.827 295.886 76.73 296.299 76.73 296.745V297.763C76.73 298.36 76.8347 298.868 77.0441 299.288C77.2574 299.706 77.554 300.026 77.934 300.247C78.314 300.464 78.758 300.573 79.266 300.573C79.5956 300.573 79.8962 300.526 80.1675 300.433C80.4389 300.336 80.6736 300.193 80.8714 300.003C81.0691 299.813 81.2203 299.578 81.3251 299.299L82.9711 299.595C82.8392 300.08 82.6027 300.505 82.2615 300.869C81.9241 301.23 81.4995 301.512 80.9876 301.713C80.4797 301.91 79.9 302.009 79.2485 302.009ZM84.8474 301.829V292.895H86.5283V294.314H86.6214C86.7843 293.833 87.0712 293.456 87.4822 293.18C87.8972 292.901 88.3664 292.761 88.8899 292.761C88.9984 292.761 89.1263 292.765 89.2738 292.773C89.425 292.781 89.5432 292.791 89.6285 292.802V294.466C89.5588 294.446 89.4346 294.425 89.2563 294.401C89.0779 294.375 88.8995 294.361 88.7211 294.361C88.3101 294.361 87.9437 294.448 87.6218 294.622C87.3039 294.793 87.0518 295.032 86.8657 295.338C86.6796 295.641 86.5865 295.985 86.5865 296.373V301.829H84.8474ZM93.4899 302.027C92.9239 302.027 92.4116 301.922 91.9539 301.713C91.4966 301.5 91.1341 301.191 90.8665 300.788C90.6028 300.385 90.471 299.89 90.471 299.305C90.471 298.801 90.5679 298.386 90.7618 298.06C90.9557 297.734 91.2174 297.477 91.5472 297.287C91.8766 297.097 92.2451 296.953 92.6519 296.856C93.0595 296.759 93.4745 296.685 93.8967 296.635C94.4317 296.573 94.8667 296.522 95.1997 296.484C95.5337 296.441 95.7757 296.373 95.9268 296.28C96.0778 296.187 96.1534 296.036 96.1534 295.826V295.786C96.1534 295.278 96.0105 294.884 95.723 294.605C95.44 294.326 95.0177 294.187 94.4554 294.187C93.8694 294.187 93.408 294.317 93.0714 294.576C92.7374 294.832 92.5072 295.117 92.3789 295.431L90.7443 295.059C90.9382 294.516 91.2213 294.078 91.5936 293.744C91.9694 293.407 92.4016 293.163 92.8903 293.012C93.3789 292.856 93.893 292.779 94.4317 292.779C94.7884 292.779 95.167 292.822 95.5664 292.907C95.9696 292.988 96.3454 293.139 96.6948 293.36C97.0478 293.581 97.3363 293.897 97.5611 294.308C97.7858 294.716 97.8986 295.245 97.8986 295.896V301.829H96.1998V300.608H96.1306C96.0178 300.833 95.8494 301.054 95.6247 301.27C95.399 301.488 95.1106 301.668 94.7575 301.812C94.4044 301.955 93.9822 302.027 93.4899 302.027ZM93.8676 300.631C94.3489 300.631 94.7593 300.536 95.1005 300.346C95.4463 300.156 95.7075 299.907 95.8858 299.602C96.0687 299.291 96.1597 298.96 96.1597 298.607V297.455C96.0979 297.517 95.9768 297.575 95.7985 297.63C95.6247 297.68 95.4245 297.724 95.1997 297.763C94.975 297.798 94.7557 297.832 94.5428 297.863C94.3289 297.889 94.1506 297.913 94.0077 297.932C93.6701 297.975 93.3616 298.046 93.0823 298.147C92.8075 298.248 92.5863 298.393 92.4198 298.583C92.2569 298.77 92.1751 299.018 92.1751 299.328C92.1751 299.758 92.3343 300.084 92.6519 300.305C92.9704 300.522 93.3753 300.631 93.8676 300.631ZM104.222 292.895V294.291H99.3418V292.895H104.222ZM100.65 290.755H102.389V299.206C102.389 299.543 102.44 299.797 102.54 299.968C102.641 300.135 102.771 300.249 102.931 300.311C103.094 300.37 103.27 300.399 103.459 300.399C103.6 300.399 103.721 300.389 103.826 300.37C103.931 300.35 104.013 300.334 104.07 300.322L104.385 301.759C104.284 301.798 104.14 301.837 103.954 301.876C103.768 301.918 103.535 301.942 103.256 301.946C102.799 301.953 102.372 301.872 101.976 301.701C101.581 301.531 101.261 301.267 101.017 300.91C100.772 300.553 100.65 300.106 100.65 299.566V290.755ZM109.736 302.009C108.856 302.009 108.097 301.821 107.462 301.445C106.83 301.066 106.341 300.532 105.996 299.845C105.655 299.156 105.484 298.347 105.484 297.42C105.484 296.505 105.655 295.699 105.996 295.001C106.341 294.303 106.822 293.758 107.439 293.367C108.059 292.974 108.784 292.779 109.614 292.779C110.118 292.779 110.607 292.862 111.079 293.029C111.552 293.196 111.977 293.458 112.353 293.814C112.73 294.171 113.027 294.634 113.243 295.204C113.461 295.771 113.569 296.459 113.569 297.269V297.885H106.468V296.582H111.865C111.865 296.126 111.772 295.72 111.586 295.367C111.4 295.01 111.138 294.729 110.801 294.524C110.467 294.318 110.076 294.216 109.625 294.216C109.137 294.216 108.711 294.336 108.346 294.576C107.985 294.813 107.706 295.123 107.509 295.507C107.315 295.886 107.217 296.299 107.217 296.745V297.763C107.217 298.36 107.322 298.868 107.531 299.288C107.745 299.706 108.042 300.026 108.421 300.247C108.802 300.464 109.246 300.573 109.754 300.573C110.083 300.573 110.384 300.526 110.655 300.433C110.926 300.336 111.161 300.193 111.359 300.003C111.557 299.813 111.708 299.578 111.813 299.299L113.459 299.595C113.327 300.08 113.09 300.505 112.749 300.869C112.411 301.23 111.987 301.512 111.475 301.713C110.967 301.91 110.388 302.009 109.736 302.009ZM120.606 305.18C120.345 305.18 120.109 305.158 119.896 305.116C119.682 305.077 119.524 305.034 119.419 304.988L119.838 303.563C120.155 303.648 120.438 303.685 120.687 303.673C120.935 303.661 121.154 303.568 121.344 303.393C121.537 303.22 121.708 302.934 121.856 302.539L122.071 301.946L118.802 292.895H120.664L122.926 299.828H123.019L125.282 292.895H127.149L123.466 303.021C123.296 303.487 123.079 303.88 122.816 304.202C122.552 304.528 122.238 304.772 121.873 304.935C121.508 305.098 121.086 305.18 120.606 305.18ZM132.078 302.009C131.241 302.009 130.51 301.817 129.886 301.433C129.262 301.049 128.777 300.512 128.432 299.823C128.086 299.132 127.914 298.326 127.914 297.403C127.914 296.476 128.086 295.666 128.432 294.972C128.777 294.277 129.262 293.739 129.886 293.355C130.51 292.971 131.241 292.779 132.078 292.779C132.916 292.779 133.647 292.971 134.271 293.355C134.895 293.739 135.38 294.277 135.725 294.972C136.071 295.666 136.243 296.476 136.243 297.403C136.243 298.326 136.071 299.132 135.725 299.823C135.38 300.512 134.895 301.049 134.271 301.433C133.647 301.817 132.916 302.009 132.078 302.009ZM132.085 300.55C132.627 300.55 133.077 300.406 133.434 300.119C133.791 299.832 134.055 299.451 134.225 298.974C134.4 298.496 134.487 297.971 134.487 297.397C134.487 296.827 134.4 296.304 134.225 295.826C134.055 295.346 133.791 294.96 133.434 294.669C133.077 294.378 132.627 294.233 132.085 294.233C131.538 294.233 131.084 294.378 130.723 294.669C130.367 294.96 130.101 295.346 129.926 295.826C129.756 296.304 129.671 296.827 129.671 297.397C129.671 297.971 129.756 298.496 129.926 298.974C130.101 299.451 130.367 299.832 130.723 300.119C131.084 300.406 131.538 300.55 132.085 300.55ZM143.68 298.124V292.895H145.425V301.829H143.715V300.282H143.622C143.416 300.759 143.087 301.157 142.633 301.474C142.183 301.788 141.623 301.946 140.952 301.946C140.378 301.946 139.87 301.819 139.428 301.567C138.99 301.311 138.645 300.934 138.393 300.433C138.145 299.933 138.021 299.315 138.021 298.578V292.895H139.76V298.369C139.76 298.977 139.928 299.461 140.266 299.823C140.604 300.183 141.041 300.363 141.58 300.363C141.906 300.363 142.23 300.282 142.552 300.119C142.878 299.956 143.147 299.71 143.36 299.381C143.577 299.051 143.684 298.632 143.68 298.124ZM147.598 301.829V292.895H149.279V294.314H149.372C149.535 293.833 149.822 293.456 150.233 293.18C150.648 292.901 151.117 292.761 151.64 292.761C151.749 292.761 151.877 292.765 152.024 292.773C152.175 292.781 152.294 292.791 152.379 292.802V294.466C152.309 294.446 152.185 294.425 152.007 294.401C151.829 294.375 151.65 294.361 151.472 294.361C151.061 294.361 150.694 294.448 150.373 294.622C150.054 294.793 149.802 295.032 149.617 295.338C149.43 295.641 149.337 295.985 149.337 296.373V301.829H147.598ZM157.891 305.18V292.895H159.59V294.343H159.735C159.836 294.157 159.981 293.942 160.171 293.698C160.361 293.453 160.625 293.24 160.962 293.058C161.3 292.872 161.745 292.779 162.301 292.779C163.021 292.779 163.665 292.961 164.231 293.326C164.797 293.69 165.241 294.216 165.564 294.902C165.889 295.588 166.052 296.414 166.052 297.379C166.052 298.345 165.891 299.173 165.569 299.863C165.247 300.55 164.805 301.078 164.243 301.452C163.681 301.819 163.038 302.004 162.318 302.004C161.775 302.004 161.331 301.913 160.986 301.73C160.644 301.548 160.377 301.335 160.183 301.09C159.989 300.846 159.84 300.629 159.735 300.439H159.631V305.18H157.891ZM159.595 297.362C159.595 297.99 159.686 298.541 159.869 299.014C160.051 299.487 160.315 299.857 160.66 300.125C161.005 300.389 161.428 300.521 161.928 300.521C162.448 300.521 162.882 300.383 163.23 300.108C163.58 299.828 163.844 299.451 164.022 298.974C164.204 298.496 164.295 297.959 164.295 297.362C164.295 296.773 164.206 296.244 164.028 295.774C163.853 295.305 163.59 294.934 163.237 294.663C162.887 294.392 162.452 294.257 161.928 294.257C161.424 294.257 160.997 294.386 160.648 294.646C160.303 294.905 160.041 295.268 159.863 295.733C159.684 296.198 159.595 296.742 159.595 297.362ZM167.837 301.829V292.895H169.517V294.314H169.61C169.773 293.833 170.061 293.456 170.471 293.18C170.886 292.901 171.355 292.761 171.879 292.761C171.988 292.761 172.115 292.765 172.263 292.773C172.414 292.781 172.532 292.791 172.618 292.802V294.466C172.547 294.446 172.424 294.425 172.245 294.401C172.067 294.375 171.889 294.361 171.71 294.361C171.299 294.361 170.933 294.448 170.611 294.622C170.293 294.793 170.041 295.032 169.855 295.338C169.668 295.641 169.576 295.985 169.576 296.373V301.829H167.837ZM177.402 302.009C176.565 302.009 175.833 301.817 175.209 301.433C174.585 301.049 174.101 300.512 173.755 299.823C173.41 299.132 173.237 298.326 173.237 297.403C173.237 296.476 173.41 295.666 173.755 294.972C174.101 294.277 174.585 293.739 175.209 293.355C175.833 292.971 176.565 292.779 177.402 292.779C178.24 292.779 178.971 292.971 179.595 293.355C180.219 293.739 180.704 294.277 181.049 294.972C181.394 295.666 181.567 296.476 181.567 297.403C181.567 298.326 181.394 299.132 181.049 299.823C180.704 300.512 180.219 301.049 179.595 301.433C178.971 301.817 178.24 302.009 177.402 302.009ZM177.408 300.55C177.951 300.55 178.4 300.406 178.757 300.119C179.115 299.832 179.378 299.451 179.549 298.974C179.723 298.496 179.81 297.971 179.81 297.397C179.81 296.827 179.723 296.304 179.549 295.826C179.378 295.346 179.115 294.96 178.757 294.669C178.4 294.378 177.951 294.233 177.408 294.233C176.862 294.233 176.408 294.378 176.047 294.669C175.69 294.96 175.425 295.346 175.25 295.826C175.08 296.304 174.994 296.827 174.994 297.397C174.994 297.971 175.08 298.496 175.25 298.974C175.425 299.451 175.69 299.832 176.047 300.119C176.408 300.406 176.862 300.55 177.408 300.55ZM186.689 302.004C185.967 302.004 185.324 301.819 184.757 301.452C184.196 301.078 183.754 300.55 183.431 299.863C183.114 299.173 182.955 298.345 182.955 297.379C182.955 296.414 183.116 295.588 183.437 294.902C183.763 294.216 184.209 293.69 184.775 293.326C185.341 292.961 185.983 292.779 186.7 292.779C187.255 292.779 187.701 292.872 188.038 293.058C188.38 293.24 188.643 293.453 188.829 293.698C189.019 293.942 189.167 294.157 189.271 294.343H189.376V289.917H191.115V301.829H189.417V300.439H189.271C189.167 300.629 189.015 300.846 188.817 301.09C188.624 301.335 188.356 301.548 188.015 301.73C187.674 301.913 187.231 302.004 186.689 302.004ZM187.073 300.521C187.573 300.521 187.996 300.389 188.341 300.125C188.689 299.857 188.953 299.487 189.131 299.014C189.314 298.541 189.405 297.99 189.405 297.362C189.405 296.742 189.316 296.198 189.138 295.733C188.959 295.268 188.697 294.905 188.352 294.646C188.007 294.386 187.581 294.257 187.073 294.257C186.549 294.257 186.113 294.392 185.764 294.663C185.415 294.934 185.151 295.305 184.973 295.774C184.798 296.244 184.711 296.773 184.711 297.362C184.711 297.959 184.8 298.496 184.978 298.974C185.157 299.451 185.421 299.828 185.77 300.108C186.122 300.383 186.557 300.521 187.073 300.521ZM199.093 298.124V292.895H200.838V301.829H199.128V300.282H199.034C198.829 300.759 198.499 301.157 198.046 301.474C197.596 301.788 197.036 301.946 196.365 301.946C195.791 301.946 195.283 301.819 194.841 301.567C194.403 301.311 194.058 300.934 193.806 300.433C193.557 299.933 193.434 299.315 193.434 298.578V292.895H195.173V298.369C195.173 298.977 195.341 299.461 195.678 299.823C196.016 300.183 196.454 300.363 196.993 300.363C197.319 300.363 197.642 300.282 197.964 300.119C198.29 299.956 198.559 299.71 198.773 299.381C198.99 299.051 199.097 298.632 199.093 298.124ZM206.774 302.009C205.909 302.009 205.165 301.814 204.54 301.422C203.92 301.027 203.443 300.482 203.11 299.787C202.776 299.094 202.61 298.299 202.61 297.403C202.61 296.495 202.78 295.695 203.121 295.001C203.462 294.303 203.944 293.758 204.564 293.367C205.184 292.974 205.915 292.779 206.756 292.779C207.435 292.779 208.04 292.904 208.572 293.156C209.102 293.405 209.531 293.754 209.856 294.204C210.187 294.653 210.382 295.179 210.444 295.78H208.752C208.659 295.361 208.445 295.001 208.112 294.698C207.782 294.396 207.34 294.245 206.785 294.245C206.301 294.245 205.876 294.372 205.511 294.629C205.151 294.881 204.87 295.241 204.669 295.711C204.467 296.176 204.366 296.726 204.366 297.362C204.366 298.014 204.465 298.576 204.662 299.049C204.861 299.522 205.139 299.888 205.5 300.149C205.864 300.408 206.293 300.538 206.785 300.538C207.116 300.538 207.414 300.478 207.682 300.358C207.953 300.233 208.179 300.058 208.362 299.828C208.548 299.6 208.678 299.324 208.752 299.002H210.444C210.382 299.58 210.194 300.096 209.88 300.55C209.566 301.003 209.145 301.36 208.618 301.62C208.095 301.879 207.48 302.009 206.774 302.009ZM216.311 292.895V294.291H211.431V292.895H216.311ZM212.739 290.755H214.478V299.206C214.478 299.543 214.529 299.797 214.63 299.968C214.73 300.135 214.86 300.249 215.019 300.311C215.182 300.37 215.359 300.399 215.548 300.399C215.688 300.399 215.81 300.389 215.915 300.37C216.02 300.35 216.101 300.334 216.16 300.322L216.474 301.759C216.373 301.798 216.229 301.837 216.043 301.876C215.857 301.918 215.625 301.942 215.345 301.946C214.888 301.953 214.461 301.872 214.066 301.701C213.67 301.531 213.35 301.267 213.106 300.91C212.861 300.553 212.739 300.106 212.739 299.566V290.755Z" fill="white"/>
<path d="M33.7598 301.829H31.852L36.1387 289.917H38.2152L42.5019 301.829H40.5941L37.2264 292.081H37.1333L33.7598 301.829ZM34.0797 297.165H40.2684V298.677H34.0797V297.165ZM47.5381 302.009C46.6733 302.009 45.9288 301.814 45.3045 301.422C44.6841 301.027 44.2072 300.482 43.8737 299.787C43.5402 299.094 43.3735 298.299 43.3735 297.403C43.3735 296.495 43.5441 295.695 43.8853 295.001C44.2266 294.303 44.7074 293.758 45.3278 293.367C45.9482 292.974 46.6792 292.779 47.5206 292.779C48.1992 292.779 48.8041 292.904 49.3353 293.156C49.8666 293.405 50.2951 293.754 50.6208 294.204C50.9504 294.653 51.1462 295.179 51.2082 295.78H49.5157C49.4226 295.361 49.2093 295.001 48.8758 294.698C48.5462 294.396 48.1042 294.245 47.5497 294.245C47.065 294.245 46.6404 294.372 46.2759 294.629C45.9153 294.881 45.6341 295.241 45.4324 295.711C45.2309 296.176 45.1301 296.726 45.1301 297.362C45.1301 298.014 45.2289 298.576 45.4267 299.049C45.6245 299.522 45.9036 299.888 46.2642 300.149C46.6288 300.408 47.0573 300.538 47.5497 300.538C47.8793 300.538 48.1779 300.478 48.4454 300.358C48.7168 300.233 48.9437 300.058 49.1259 299.828C49.312 299.6 49.442 299.324 49.5157 299.002H51.2082C51.1462 299.58 50.9581 300.096 50.644 300.55C50.3299 301.003 49.9092 301.36 49.3818 301.62C48.8584 301.879 48.2437 302.009 47.5381 302.009ZM56.6675 302.009C55.8028 302.009 55.0583 301.814 54.434 301.422C53.8136 301.027 53.3366 300.482 53.0032 299.787C52.6697 299.094 52.503 298.299 52.503 297.403C52.503 296.495 52.6736 295.695 53.0148 295.001C53.356 294.303 53.8369 293.758 54.4573 293.367C55.0777 292.974 55.8086 292.779 56.6501 292.779C57.3286 292.779 57.9336 292.904 58.4648 293.156C58.996 293.405 59.4245 293.754 59.7502 294.204C60.0799 294.653 60.2757 295.179 60.3376 295.78H58.6451C58.552 295.361 58.3388 295.001 58.0053 294.698C57.6757 294.396 57.2336 294.245 56.6791 294.245C56.1945 294.245 55.7699 294.372 55.4053 294.629C55.0447 294.881 54.7636 295.241 54.5619 295.711C54.3603 296.176 54.2595 296.726 54.2595 297.362C54.2595 298.014 54.3584 298.576 54.5561 299.049C54.7539 299.522 55.0331 299.888 55.3937 300.149C55.7582 300.408 56.1866 300.538 56.6791 300.538C57.0088 300.538 57.3073 300.478 57.5749 300.358C57.8463 300.233 58.0731 300.058 58.2554 299.828C58.4415 299.6 58.5714 299.324 58.6451 299.002H60.3376C60.2757 299.58 60.0876 300.096 59.7735 300.55C59.4594 301.003 59.0387 301.36 58.5113 301.62C57.9879 301.879 57.3732 302.009 56.6675 302.009ZM65.8842 302.009C65.004 302.009 64.2459 301.821 63.6099 301.445C62.9779 301.066 62.4893 300.532 62.1442 299.845C61.8029 299.156 61.6323 298.347 61.6323 297.42C61.6323 296.505 61.8029 295.699 62.1442 295.001C62.4893 294.303 62.9701 293.758 63.5867 293.367C64.2071 292.974 64.9323 292.779 65.7621 292.779C66.2662 292.779 66.7547 292.862 67.2278 293.029C67.7009 293.196 68.1255 293.458 68.5016 293.814C68.8777 294.171 69.1744 294.634 69.3915 295.204C69.6087 295.771 69.7173 296.459 69.7173 297.269V297.885H62.6153V296.582H68.013C68.013 296.126 67.9199 295.72 67.7338 295.367C67.5477 295.01 67.2859 294.729 66.9486 294.524C66.6151 294.318 66.2235 294.216 65.7737 294.216C65.2851 294.216 64.8586 294.336 64.494 294.576C64.1334 294.813 63.8542 295.123 63.6565 295.507C63.4626 295.886 63.3657 296.299 63.3657 296.745V297.763C63.3657 298.36 63.4703 298.868 63.6797 299.288C63.893 299.706 64.1897 300.026 64.5697 300.247C64.9496 300.464 65.3937 300.573 65.9016 300.573C66.2312 300.573 66.5318 300.526 66.8032 300.433C67.0747 300.336 67.3092 300.193 67.507 300.003C67.7047 299.813 67.8559 299.578 67.9607 299.299L69.6067 299.595C69.4749 300.08 69.2383 300.505 68.8971 300.869C68.5598 301.23 68.1351 301.512 67.6233 301.713C67.1153 301.91 66.5356 302.009 65.8842 302.009ZM73.2222 289.917V301.829H71.483V289.917H73.2222ZM79.2485 302.009C78.3684 302.009 77.6103 301.821 76.9743 301.445C76.3423 301.066 75.8537 300.532 75.5086 299.845C75.1673 299.156 74.9967 298.347 74.9967 297.42C74.9967 296.505 75.1673 295.699 75.5086 295.001C75.8537 294.303 76.3345 293.758 76.951 293.367C77.5715 292.974 78.2966 292.779 79.1264 292.779C79.6305 292.779 80.1191 292.862 80.5922 293.029C81.0653 293.196 81.4898 293.458 81.8659 293.814C82.2421 294.171 82.5387 294.634 82.7559 295.204C82.973 295.771 83.0816 296.459 83.0816 297.269V297.885H75.9797V296.582H81.3774C81.3774 296.126 81.2843 295.72 81.0982 295.367C80.912 295.01 80.6503 294.729 80.3129 294.524C79.9795 294.318 79.5879 294.216 79.1381 294.216C78.6494 294.216 78.2229 294.336 77.8584 294.576C77.4978 294.813 77.2186 295.123 77.0208 295.507C76.827 295.886 76.73 296.299 76.73 296.745V297.763C76.73 298.36 76.8347 298.868 77.0441 299.288C77.2574 299.706 77.554 300.026 77.934 300.247C78.314 300.464 78.758 300.573 79.266 300.573C79.5956 300.573 79.8962 300.526 80.1675 300.433C80.4389 300.336 80.6736 300.193 80.8714 300.003C81.0691 299.813 81.2203 299.578 81.3251 299.299L82.9711 299.595C82.8392 300.08 82.6027 300.505 82.2615 300.869C81.9241 301.23 81.4995 301.512 80.9876 301.713C80.4797 301.91 79.9 302.009 79.2485 302.009ZM84.8474 301.829V292.895H86.5283V294.314H86.6214C86.7843 293.833 87.0712 293.456 87.4822 293.18C87.8972 292.901 88.3664 292.761 88.8899 292.761C88.9984 292.761 89.1263 292.765 89.2738 292.773C89.425 292.781 89.5432 292.791 89.6285 292.802V294.466C89.5588 294.446 89.4346 294.425 89.2563 294.401C89.0779 294.375 88.8995 294.361 88.7211 294.361C88.3101 294.361 87.9437 294.448 87.6218 294.622C87.3039 294.793 87.0518 295.032 86.8657 295.338C86.6796 295.641 86.5865 295.985 86.5865 296.373V301.829H84.8474ZM93.4899 302.027C92.9239 302.027 92.4116 301.922 91.9539 301.713C91.4966 301.5 91.1341 301.191 90.8665 300.788C90.6028 300.385 90.471 299.89 90.471 299.305C90.471 298.801 90.5679 298.386 90.7618 298.06C90.9557 297.734 91.2174 297.477 91.5472 297.287C91.8766 297.097 92.2451 296.953 92.6519 296.856C93.0595 296.759 93.4745 296.685 93.8967 296.635C94.4317 296.573 94.8667 296.522 95.1997 296.484C95.5337 296.441 95.7757 296.373 95.9268 296.28C96.0778 296.187 96.1534 296.036 96.1534 295.826V295.786C96.1534 295.278 96.0105 294.884 95.723 294.605C95.44 294.326 95.0177 294.187 94.4554 294.187C93.8694 294.187 93.408 294.317 93.0714 294.576C92.7374 294.832 92.5072 295.117 92.3789 295.431L90.7443 295.059C90.9382 294.516 91.2213 294.078 91.5936 293.744C91.9694 293.407 92.4016 293.163 92.8903 293.012C93.3789 292.856 93.893 292.779 94.4317 292.779C94.7884 292.779 95.167 292.822 95.5664 292.907C95.9696 292.988 96.3454 293.139 96.6948 293.36C97.0478 293.581 97.3363 293.897 97.5611 294.308C97.7858 294.716 97.8986 295.245 97.8986 295.896V301.829H96.1998V300.608H96.1306C96.0178 300.833 95.8494 301.054 95.6247 301.27C95.399 301.488 95.1106 301.668 94.7575 301.812C94.4044 301.955 93.9822 302.027 93.4899 302.027ZM93.8676 300.631C94.3489 300.631 94.7593 300.536 95.1005 300.346C95.4463 300.156 95.7075 299.907 95.8858 299.602C96.0687 299.291 96.1597 298.96 96.1597 298.607V297.455C96.0979 297.517 95.9768 297.575 95.7985 297.63C95.6247 297.68 95.4245 297.724 95.1997 297.763C94.975 297.798 94.7557 297.832 94.5428 297.863C94.3289 297.889 94.1506 297.913 94.0077 297.932C93.6701 297.975 93.3616 298.046 93.0823 298.147C92.8075 298.248 92.5863 298.393 92.4198 298.583C92.2569 298.77 92.1751 299.018 92.1751 299.328C92.1751 299.758 92.3343 300.084 92.6519 300.305C92.9704 300.522 93.3753 300.631 93.8676 300.631ZM104.222 292.895V294.291H99.3418V292.895H104.222ZM100.65 290.755H102.389V299.206C102.389 299.543 102.44 299.797 102.54 299.968C102.641 300.135 102.771 300.249 102.931 300.311C103.094 300.37 103.27 300.399 103.459 300.399C103.6 300.399 103.721 300.389 103.826 300.37C103.931 300.35 104.013 300.334 104.07 300.322L104.385 301.759C104.284 301.798 104.14 301.837 103.954 301.876C103.768 301.918 103.535 301.942 103.256 301.946C102.799 301.953 102.372 301.872 101.976 301.701C101.581 301.531 101.261 301.267 101.017 300.91C100.772 300.553 100.65 300.106 100.65 299.566V290.755ZM109.736 302.009C108.856 302.009 108.097 301.821 107.462 301.445C106.83 301.066 106.341 300.532 105.996 299.845C105.655 299.156 105.484 298.347 105.484 297.42C105.484 296.505 105.655 295.699 105.996 295.001C106.341 294.303 106.822 293.758 107.439 293.367C108.059 292.974 108.784 292.779 109.614 292.779C110.118 292.779 110.607 292.862 111.079 293.029C111.552 293.196 111.977 293.458 112.353 293.814C112.73 294.171 113.027 294.634 113.243 295.204C113.461 295.771 113.569 296.459 113.569 297.269V297.885H106.468V296.582H111.865C111.865 296.126 111.772 295.72 111.586 295.367C111.4 295.01 111.138 294.729 110.801 294.524C110.467 294.318 110.076 294.216 109.625 294.216C109.137 294.216 108.711 294.336 108.346 294.576C107.985 294.813 107.706 295.123 107.509 295.507C107.315 295.886 107.217 296.299 107.217 296.745V297.763C107.217 298.36 107.322 298.868 107.531 299.288C107.745 299.706 108.042 300.026 108.421 300.247C108.802 300.464 109.246 300.573 109.754 300.573C110.083 300.573 110.384 300.526 110.655 300.433C110.926 300.336 111.161 300.193 111.359 300.003C111.557 299.813 111.708 299.578 111.813 299.299L113.459 299.595C113.327 300.08 113.09 300.505 112.749 300.869C112.411 301.23 111.987 301.512 111.475 301.713C110.967 301.91 110.388 302.009 109.736 302.009ZM120.606 305.18C120.345 305.18 120.109 305.158 119.896 305.116C119.682 305.077 119.524 305.034 119.419 304.988L119.838 303.563C120.155 303.648 120.438 303.685 120.687 303.673C120.935 303.661 121.154 303.568 121.344 303.393C121.537 303.22 121.708 302.934 121.856 302.539L122.071 301.946L118.802 292.895H120.664L122.926 299.828H123.019L125.282 292.895H127.149L123.466 303.021C123.296 303.487 123.079 303.88 122.816 304.202C122.552 304.528 122.238 304.772 121.873 304.935C121.508 305.098 121.086 305.18 120.606 305.18ZM132.078 302.009C131.241 302.009 130.51 301.817 129.886 301.433C129.262 301.049 128.777 300.512 128.432 299.823C128.086 299.132 127.914 298.326 127.914 297.403C127.914 296.476 128.086 295.666 128.432 294.972C128.777 294.277 129.262 293.739 129.886 293.355C130.51 292.971 131.241 292.779 132.078 292.779C132.916 292.779 133.647 292.971 134.271 293.355C134.895 293.739 135.38 294.277 135.725 294.972C136.071 295.666 136.243 296.476 136.243 297.403C136.243 298.326 136.071 299.132 135.725 299.823C135.38 300.512 134.895 301.049 134.271 301.433C133.647 301.817 132.916 302.009 132.078 302.009ZM132.085 300.55C132.627 300.55 133.077 300.406 133.434 300.119C133.791 299.832 134.055 299.451 134.225 298.974C134.4 298.496 134.487 297.971 134.487 297.397C134.487 296.827 134.4 296.304 134.225 295.826C134.055 295.346 133.791 294.96 133.434 294.669C133.077 294.378 132.627 294.233 132.085 294.233C131.538 294.233 131.084 294.378 130.723 294.669C130.367 294.96 130.101 295.346 129.926 295.826C129.756 296.304 129.671 296.827 129.671 297.397C129.671 297.971 129.756 298.496 129.926 298.974C130.101 299.451 130.367 299.832 130.723 300.119C131.084 300.406 131.538 300.55 132.085 300.55ZM143.68 298.124V292.895H145.425V301.829H143.715V300.282H143.622C143.416 300.759 143.087 301.157 142.633 301.474C142.183 301.788 141.623 301.946 140.952 301.946C140.378 301.946 139.87 301.819 139.428 301.567C138.99 301.311 138.645 300.934 138.393 300.433C138.145 299.933 138.021 299.315 138.021 298.578V292.895H139.76V298.369C139.76 298.977 139.928 299.461 140.266 299.823C140.604 300.183 141.041 300.363 141.58 300.363C141.906 300.363 142.23 300.282 142.552 300.119C142.878 299.956 143.147 299.71 143.36 299.381C143.577 299.051 143.684 298.632 143.68 298.124ZM147.598 301.829V292.895H149.279V294.314H149.372C149.535 293.833 149.822 293.456 150.233 293.18C150.648 292.901 151.117 292.761 151.64 292.761C151.749 292.761 151.877 292.765 152.024 292.773C152.175 292.781 152.294 292.791 152.379 292.802V294.466C152.309 294.446 152.185 294.425 152.007 294.401C151.829 294.375 151.65 294.361 151.472 294.361C151.061 294.361 150.694 294.448 150.373 294.622C150.054 294.793 149.802 295.032 149.617 295.338C149.43 295.641 149.337 295.985 149.337 296.373V301.829H147.598ZM157.891 305.18V292.895H159.59V294.343H159.735C159.836 294.157 159.981 293.942 160.171 293.698C160.361 293.453 160.625 293.24 160.962 293.058C161.3 292.872 161.745 292.779 162.301 292.779C163.021 292.779 163.665 292.961 164.231 293.326C164.797 293.69 165.241 294.216 165.564 294.902C165.889 295.588 166.052 296.414 166.052 297.379C166.052 298.345 165.891 299.173 165.569 299.863C165.247 300.55 164.805 301.078 164.243 301.452C163.681 301.819 163.038 302.004 162.318 302.004C161.775 302.004 161.331 301.913 160.986 301.73C160.644 301.548 160.377 301.335 160.183 301.09C159.989 300.846 159.84 300.629 159.735 300.439H159.631V305.18H157.891ZM159.595 297.362C159.595 297.99 159.686 298.541 159.869 299.014C160.051 299.487 160.315 299.857 160.66 300.125C161.005 300.389 161.428 300.521 161.928 300.521C162.448 300.521 162.882 300.383 163.23 300.108C163.58 299.828 163.844 299.451 164.022 298.974C164.204 298.496 164.295 297.959 164.295 297.362C164.295 296.773 164.206 296.244 164.028 295.774C163.853 295.305 163.59 294.934 163.237 294.663C162.887 294.392 162.452 294.257 161.928 294.257C161.424 294.257 160.997 294.386 160.648 294.646C160.303 294.905 160.041 295.268 159.863 295.733C159.684 296.198 159.595 296.742 159.595 297.362ZM167.837 301.829V292.895H169.517V294.314H169.61C169.773 293.833 170.061 293.456 170.471 293.18C170.886 292.901 171.355 292.761 171.879 292.761C171.988 292.761 172.115 292.765 172.263 292.773C172.414 292.781 172.532 292.791 172.618 292.802V294.466C172.547 294.446 172.424 294.425 172.245 294.401C172.067 294.375 171.889 294.361 171.71 294.361C171.299 294.361 170.933 294.448 170.611 294.622C170.293 294.793 170.041 295.032 169.855 295.338C169.668 295.641 169.576 295.985 169.576 296.373V301.829H167.837ZM177.402 302.009C176.565 302.009 175.833 301.817 175.209 301.433C174.585 301.049 174.101 300.512 173.755 299.823C173.41 299.132 173.237 298.326 173.237 297.403C173.237 296.476 173.41 295.666 173.755 294.972C174.101 294.277 174.585 293.739 175.209 293.355C175.833 292.971 176.565 292.779 177.402 292.779C178.24 292.779 178.971 292.971 179.595 293.355C180.219 293.739 180.704 294.277 181.049 294.972C181.394 295.666 181.567 296.476 181.567 297.403C181.567 298.326 181.394 299.132 181.049 299.823C180.704 300.512 180.219 301.049 179.595 301.433C178.971 301.817 178.24 302.009 177.402 302.009ZM177.408 300.55C177.951 300.55 178.4 300.406 178.757 300.119C179.115 299.832 179.378 299.451 179.549 298.974C179.723 298.496 179.81 297.971 179.81 297.397C179.81 296.827 179.723 296.304 179.549 295.826C179.378 295.346 179.115 294.96 178.757 294.669C178.4 294.378 177.951 294.233 177.408 294.233C176.862 294.233 176.408 294.378 176.047 294.669C175.69 294.96 175.425 295.346 175.25 295.826C175.08 296.304 174.994 296.827 174.994 297.397C174.994 297.971 175.08 298.496 175.25 298.974C175.425 299.451 175.69 299.832 176.047 300.119C176.408 300.406 176.862 300.55 177.408 300.55ZM186.689 302.004C185.967 302.004 185.324 301.819 184.757 301.452C184.196 301.078 183.754 300.55 183.431 299.863C183.114 299.173 182.955 298.345 182.955 297.379C182.955 296.414 183.116 295.588 183.437 294.902C183.763 294.216 184.209 293.69 184.775 293.326C185.341 292.961 185.983 292.779 186.7 292.779C187.255 292.779 187.701 292.872 188.038 293.058C188.38 293.24 188.643 293.453 188.829 293.698C189.019 293.942 189.167 294.157 189.271 294.343H189.376V289.917H191.115V301.829H189.417V300.439H189.271C189.167 300.629 189.015 300.846 188.817 301.09C188.624 301.335 188.356 301.548 188.015 301.73C187.674 301.913 187.231 302.004 186.689 302.004ZM187.073 300.521C187.573 300.521 187.996 300.389 188.341 300.125C188.689 299.857 188.953 299.487 189.131 299.014C189.314 298.541 189.405 297.99 189.405 297.362C189.405 296.742 189.316 296.198 189.138 295.733C188.959 295.268 188.697 294.905 188.352 294.646C188.007 294.386 187.581 294.257 187.073 294.257C186.549 294.257 186.113 294.392 185.764 294.663C185.415 294.934 185.151 295.305 184.973 295.774C184.798 296.244 184.711 296.773 184.711 297.362C184.711 297.959 184.8 298.496 184.978 298.974C185.157 299.451 185.421 299.828 185.77 300.108C186.122 300.383 186.557 300.521 187.073 300.521ZM199.093 298.124V292.895H200.838V301.829H199.128V300.282H199.034C198.829 300.759 198.499 301.157 198.046 301.474C197.596 301.788 197.036 301.946 196.365 301.946C195.791 301.946 195.283 301.819 194.841 301.567C194.403 301.311 194.058 300.934 193.806 300.433C193.557 299.933 193.434 299.315 193.434 298.578V292.895H195.173V298.369C195.173 298.977 195.341 299.461 195.678 299.823C196.016 300.183 196.454 300.363 196.993 300.363C197.319 300.363 197.642 300.282 197.964 300.119C198.29 299.956 198.559 299.71 198.773 299.381C198.99 299.051 199.097 298.632 199.093 298.124ZM206.774 302.009C205.909 302.009 205.165 301.814 204.54 301.422C203.92 301.027 203.443 300.482 203.11 299.787C202.776 299.094 202.61 298.299 202.61 297.403C202.61 296.495 202.78 295.695 203.121 295.001C203.462 294.303 203.944 293.758 204.564 293.367C205.184 292.974 205.915 292.779 206.756 292.779C207.435 292.779 208.04 292.904 208.572 293.156C209.102 293.405 209.531 293.754 209.856 294.204C210.187 294.653 210.382 295.179 210.444 295.78H208.752C208.659 295.361 208.445 295.001 208.112 294.698C207.782 294.396 207.34 294.245 206.785 294.245C206.301 294.245 205.876 294.372 205.511 294.629C205.151 294.881 204.87 295.241 204.669 295.711C204.467 296.176 204.366 296.726 204.366 297.362C204.366 298.014 204.465 298.576 204.662 299.049C204.861 299.522 205.139 299.888 205.5 300.149C205.864 300.408 206.293 300.538 206.785 300.538C207.116 300.538 207.414 300.478 207.682 300.358C207.953 300.233 208.179 300.058 208.362 299.828C208.548 299.6 208.678 299.324 208.752 299.002H210.444C210.382 299.58 210.194 300.096 209.88 300.55C209.566 301.003 209.145 301.36 208.618 301.62C208.095 301.879 207.48 302.009 206.774 302.009ZM216.311 292.895V294.291H211.431V292.895H216.311ZM212.739 290.755H214.478V299.206C214.478 299.543 214.529 299.797 214.63 299.968C214.73 300.135 214.86 300.249 215.019 300.311C215.182 300.37 215.359 300.399 215.548 300.399C215.688 300.399 215.81 300.389 215.915 300.37C216.02 300.35 216.101 300.334 216.16 300.322L216.474 301.759C216.373 301.798 216.229 301.837 216.043 301.876C215.857 301.918 215.625 301.942 215.345 301.946C214.888 301.953 214.461 301.872 214.066 301.701C213.67 301.531 213.35 301.267 213.106 300.91C212.861 300.553 212.739 300.106 212.739 299.566V290.755Z" fill="url(#paint4_linear_1_448)"/>
<path d="M39.4173 313.99H41.02V320.954C41.02 321.694 40.8459 322.351 40.4979 322.924C40.1497 323.493 39.6602 323.94 39.0295 324.268C38.3987 324.592 37.6594 324.754 36.8115 324.754C35.967 324.754 35.2294 324.592 34.5986 324.268C33.9679 323.94 33.4784 323.493 33.1303 322.924C32.7822 322.351 32.6081 321.694 32.6081 320.954V313.99H34.2057V320.825C34.2057 321.304 34.3108 321.729 34.5211 322.101C34.7348 322.474 35.0364 322.766 35.4259 322.98C35.8153 323.19 36.2772 323.296 36.8115 323.296C37.3492 323.296 37.8128 323.19 38.2022 322.98C38.5952 322.766 38.8951 322.474 39.1019 322.101C39.3121 321.729 39.4173 321.304 39.4173 320.825V313.99ZM49.0239 318.575L47.6228 318.824C47.5642 318.644 47.4712 318.474 47.3436 318.312C47.2195 318.15 47.0506 318.017 46.8369 317.914C46.6232 317.81 46.3561 317.759 46.0356 317.759C45.5978 317.759 45.2324 317.857 44.9395 318.054C44.6465 318.247 44.5 318.496 44.5 318.803C44.5 319.068 44.5983 319.282 44.7947 319.444C44.9912 319.606 45.3083 319.739 45.746 319.842L47.0076 320.132C47.7383 320.3 48.2829 320.561 48.6413 320.913C48.9998 321.264 49.179 321.721 49.179 322.282C49.179 322.758 49.0411 323.182 48.7654 323.554C48.4932 323.923 48.1122 324.212 47.6228 324.423C47.1368 324.634 46.5732 324.738 45.9322 324.738C45.0429 324.738 44.3173 324.549 43.7555 324.17C43.1937 323.787 42.849 323.244 42.7215 322.541L44.2156 322.313C44.3087 322.703 44.5 322.997 44.7896 323.198C45.0791 323.394 45.4565 323.493 45.9218 323.493C46.4285 323.493 46.8335 323.387 47.1368 323.177C47.4402 322.963 47.5918 322.703 47.5918 322.396C47.5918 322.148 47.4988 321.939 47.3126 321.771C47.13 321.602 46.849 321.474 46.4699 321.388L45.1256 321.093C44.3845 320.925 43.8365 320.655 43.4815 320.287C43.1299 319.918 42.9541 319.451 42.9541 318.885C42.9541 318.417 43.0851 318.006 43.3471 317.655C43.609 317.304 43.971 317.03 44.4328 316.833C44.8947 316.633 45.4238 316.533 46.0201 316.533C46.8783 316.533 47.5539 316.72 48.0467 317.092C48.5397 317.46 48.8654 317.955 49.0239 318.575ZM54.1558 324.738C53.3734 324.738 52.6995 324.571 52.1342 324.237C51.5724 323.899 51.1381 323.425 50.8314 322.815C50.5281 322.201 50.3764 321.482 50.3764 320.659C50.3764 319.845 50.5281 319.128 50.8314 318.509C51.1381 317.888 51.5655 317.404 52.1136 317.055C52.6651 316.707 53.3096 316.533 54.0472 316.533C54.4953 316.533 54.9296 316.608 55.3501 316.755C55.7706 316.904 56.148 317.136 56.4824 317.453C56.8168 317.771 57.0804 318.183 57.2734 318.689C57.4665 319.192 57.5629 319.804 57.5629 320.524V321.073H51.2501V319.915H56.0481C56.0481 319.508 55.9653 319.147 55.7999 318.834C55.6345 318.517 55.4018 318.267 55.102 318.085C54.8055 317.902 54.4573 317.81 54.0576 317.81C53.6233 317.81 53.2441 317.917 52.9202 318.131C52.5996 318.341 52.3514 318.617 52.1756 318.958C52.0033 319.296 51.9171 319.663 51.9171 320.059V320.964C51.9171 321.495 52.0102 321.947 52.1963 322.319C52.3858 322.691 52.6495 322.976 52.9873 323.172C53.3251 323.365 53.7197 323.462 54.1713 323.462C54.4643 323.462 54.7314 323.42 54.9726 323.337C55.214 323.251 55.4225 323.124 55.5982 322.955C55.774 322.785 55.9084 322.577 56.0015 322.329L57.4647 322.593C57.3475 323.024 57.1372 323.401 56.834 323.725C56.534 324.046 56.1567 324.295 55.7017 324.474C55.2502 324.651 54.7349 324.738 54.1558 324.738ZM68.7392 316.771C68.6841 316.282 68.4566 315.903 68.0568 315.633C67.6569 315.361 67.1537 315.226 66.5471 315.226C66.1127 315.226 65.7371 315.294 65.42 315.432C65.1029 315.567 64.8565 315.752 64.6807 315.99C64.5083 316.225 64.4221 316.492 64.4221 316.792C64.4221 317.044 64.4807 317.26 64.5979 317.443C64.7185 317.626 64.8754 317.779 65.0684 317.904C65.2648 318.024 65.4751 318.126 65.6992 318.208C65.9232 318.288 66.1386 318.353 66.3454 318.405L67.3795 318.673C67.7173 318.756 68.0637 318.868 68.4186 319.01C68.7737 319.151 69.1028 319.338 69.4062 319.568C69.7095 319.799 69.9542 320.085 70.1404 320.427C70.3299 320.767 70.4247 321.176 70.4247 321.652C70.4247 322.251 70.2696 322.784 69.9594 323.25C69.6526 323.715 69.2063 324.082 68.6203 324.351C68.0378 324.619 67.3329 324.754 66.5057 324.754C65.7129 324.754 65.0271 324.628 64.448 324.376C63.8689 324.125 63.4156 323.768 63.0882 323.306C62.7607 322.841 62.5798 322.29 62.5454 321.652H64.1481C64.1791 322.035 64.3032 322.353 64.5203 322.608C64.741 322.86 65.0219 323.048 65.3631 323.172C65.7078 323.292 66.0852 323.352 66.4954 323.352C66.9469 323.352 67.3485 323.282 67.7001 323.14C68.055 322.996 68.3342 322.796 68.5376 322.541C68.7409 322.282 68.8426 321.981 68.8426 321.636C68.8426 321.322 68.7531 321.066 68.5738 320.865C68.398 320.666 68.1584 320.501 67.8551 320.37C67.5553 320.239 67.2158 320.123 66.8366 320.023L65.5854 319.682C64.7375 319.451 64.0653 319.111 63.5691 318.663C63.0761 318.216 62.8297 317.622 62.8297 316.884C62.8297 316.275 62.9952 315.742 63.326 315.287C63.657 314.832 64.105 314.479 64.6703 314.227C65.2355 313.973 65.8732 313.845 66.5833 313.845C67.3002 313.845 67.9326 313.971 68.4807 314.222C69.0322 314.474 69.4665 314.821 69.7836 315.261C70.1007 315.699 70.2661 316.202 70.28 316.771H68.7392ZM75.4093 324.738C74.6406 324.738 73.9788 324.564 73.4238 324.216C72.8724 323.865 72.4485 323.381 72.152 322.764C71.8556 322.147 71.7074 321.44 71.7074 320.643C71.7074 319.837 71.859 319.126 72.1624 318.509C72.4657 317.888 72.8931 317.404 73.4446 317.055C73.996 316.707 74.6457 316.533 75.3937 316.533C75.9969 316.533 76.5346 316.645 77.0068 316.869C77.479 317.09 77.8599 317.4 78.1494 317.8C78.4424 318.2 78.6165 318.667 78.6716 319.201H77.1671C77.0844 318.829 76.8948 318.509 76.5984 318.239C76.3054 317.971 75.9125 317.836 75.4195 317.836C74.9887 317.836 74.6113 317.95 74.2873 318.177C73.9667 318.401 73.7168 318.722 73.5376 319.139C73.3584 319.552 73.2688 320.042 73.2688 320.607C73.2688 321.187 73.3567 321.686 73.5325 322.107C73.7082 322.527 73.9564 322.853 74.2769 323.084C74.601 323.315 74.9819 323.431 75.4195 323.431C75.7126 323.431 75.978 323.377 76.2158 323.27C76.4571 323.159 76.6587 323.003 76.8207 322.799C76.9861 322.596 77.1016 322.351 77.1671 322.066H78.6716C78.6165 322.579 78.4493 323.038 78.1701 323.441C77.8909 323.844 77.5169 324.161 77.0482 324.392C76.5828 324.623 76.0366 324.738 75.4093 324.738ZM83.5243 324.738C82.7798 324.738 82.1301 324.568 81.5751 324.227C81.0202 323.886 80.5893 323.408 80.2826 322.795C79.9759 322.181 79.8224 321.464 79.8224 320.643C79.8224 319.82 79.9759 319.099 80.2826 318.482C80.5893 317.865 81.0202 317.387 81.5751 317.045C82.1301 316.704 82.7798 316.533 83.5243 316.533C84.2688 316.533 84.9185 316.704 85.4734 317.045C86.0284 317.387 86.4593 317.865 86.766 318.482C87.0728 319.099 87.2262 319.82 87.2262 320.643C87.2262 321.464 87.0728 322.181 86.766 322.795C86.4593 323.408 86.0284 323.886 85.4734 324.227C84.9185 324.568 84.2688 324.738 83.5243 324.738ZM83.5295 323.441C84.012 323.441 84.4119 323.313 84.7289 323.058C85.046 322.803 85.2804 322.463 85.4321 322.039C85.5872 321.615 85.6648 321.148 85.6648 320.638C85.6648 320.132 85.5872 319.666 85.4321 319.242C85.2804 318.815 85.046 318.472 84.7289 318.214C84.4119 317.955 84.012 317.826 83.5295 317.826C83.0435 317.826 82.6402 317.955 82.3196 318.214C82.0025 318.472 81.7665 318.815 81.6113 319.242C81.4596 319.666 81.3838 320.132 81.3838 320.638C81.3838 321.148 81.4596 321.615 81.6113 322.039C81.7665 322.463 82.0025 322.803 82.3196 323.058C82.6402 323.313 83.0435 323.441 83.5295 323.441ZM93.8366 321.285V316.637H95.3881V324.578H93.8675V323.203H93.7847C93.6028 323.627 93.3097 323.98 92.9057 324.262C92.5063 324.542 92.0085 324.682 91.4119 324.682C90.9017 324.682 90.4502 324.57 90.0573 324.345C89.6678 324.118 89.361 323.782 89.137 323.337C88.9164 322.893 88.8061 322.343 88.8061 321.688V316.637H90.352V321.502C90.352 322.043 90.5019 322.473 90.8018 322.795C91.1017 323.115 91.4911 323.275 91.9703 323.275C92.2597 323.275 92.5472 323.203 92.8338 323.058C93.1232 322.913 93.3625 322.694 93.5527 322.401C93.7456 322.108 93.8403 321.736 93.8366 321.285ZM101.026 316.637V317.877H96.6884V316.637H101.026ZM97.8522 314.734H99.3973V322.247C99.3973 322.546 99.4428 322.772 99.532 322.924C99.6221 323.072 99.7367 323.173 99.8787 323.229C100.023 323.281 100.18 323.306 100.349 323.306C100.473 323.306 100.582 323.298 100.675 323.28C100.768 323.263 100.841 323.25 100.891 323.239L101.171 324.516C101.082 324.551 100.954 324.585 100.789 324.619C100.623 324.657 100.416 324.678 100.168 324.682C99.7613 324.688 99.3819 324.616 99.0306 324.464C98.6794 324.312 98.3946 324.079 98.1771 323.761C97.9605 323.444 97.8522 323.046 97.8522 322.567V314.734ZM107.317 324.578H105.62L109.431 313.99H111.277L115.088 324.578H113.391L110.398 315.913H110.316L107.317 324.578ZM107.601 320.431H113.102V321.775H107.601V320.431ZM116.471 324.578V313.99H120.245C121.069 313.99 121.751 314.139 122.293 314.439C122.834 314.739 123.239 315.149 123.507 315.67C123.777 316.187 123.911 316.77 123.911 317.418C123.911 318.069 123.775 318.655 123.503 319.175C123.234 319.693 122.827 320.102 122.283 320.406C121.741 320.705 121.061 320.855 120.24 320.855H117.645V319.501H120.095C120.616 319.501 121.038 319.411 121.362 319.232C121.686 319.049 121.924 318.802 122.075 318.488C122.227 318.174 122.303 317.817 122.303 317.418C122.303 317.017 122.227 316.662 122.075 316.352C121.924 316.042 121.684 315.799 121.357 315.623C121.033 315.448 120.606 315.359 120.075 315.359H118.069V324.578H116.471ZM127.235 313.99V324.578H125.639V313.99H127.235ZM136.707 316.637V317.877H132.369V316.637H136.707ZM133.532 314.734H135.078V322.247C135.078 322.546 135.124 322.772 135.213 322.924C135.302 323.072 135.418 323.173 135.56 323.229C135.704 323.281 135.861 323.306 136.03 323.306C136.154 323.306 136.262 323.298 136.356 323.28C136.449 323.263 136.521 323.25 136.573 323.239L136.852 324.516C136.763 324.551 136.634 324.585 136.47 324.619C136.304 324.657 136.098 324.678 135.849 324.682C135.442 324.688 135.063 324.616 134.712 324.464C134.36 324.312 134.076 324.079 133.858 323.761C133.642 323.444 133.532 323.046 133.532 322.567V314.734ZM141.532 324.738C140.787 324.738 140.137 324.568 139.583 324.227C139.028 323.886 138.596 323.408 138.29 322.795C137.983 322.181 137.829 321.464 137.829 320.643C137.829 319.82 137.983 319.099 138.29 318.482C138.596 317.865 139.028 317.387 139.583 317.045C140.137 316.704 140.787 316.533 141.532 316.533C142.276 316.533 142.926 316.704 143.481 317.045C144.036 317.387 144.466 317.865 144.773 318.482C145.08 319.099 145.233 319.82 145.233 320.643C145.233 321.464 145.08 322.181 144.773 322.795C144.466 323.408 144.036 323.886 143.481 324.227C142.926 324.568 142.276 324.738 141.532 324.738ZM141.536 323.441C142.019 323.441 142.419 323.313 142.737 323.058C143.053 322.803 143.288 322.463 143.439 322.039C143.595 321.615 143.672 321.148 143.672 320.638C143.672 320.132 143.595 319.666 143.439 319.242C143.288 318.815 143.053 318.472 142.737 318.214C142.419 317.955 142.019 317.826 141.536 317.826C141.05 317.826 140.647 317.955 140.327 318.214C140.009 318.472 139.774 318.815 139.618 319.242C139.467 319.666 139.391 320.132 139.391 320.638C139.391 321.148 139.467 321.615 139.618 322.039C139.774 322.463 140.009 322.803 140.327 323.058C140.647 323.313 141.05 323.441 141.536 323.441ZM153.943 324.738C153.161 324.738 152.488 324.571 151.922 324.237C151.36 323.899 150.926 323.425 150.619 322.815C150.316 322.201 150.164 321.482 150.164 320.659C150.164 319.845 150.316 319.128 150.619 318.509C150.926 317.888 151.353 317.404 151.902 317.055C152.453 316.707 153.097 316.533 153.835 316.533C154.283 316.533 154.717 316.608 155.137 316.755C155.559 316.904 155.935 317.136 156.27 317.453C156.604 317.771 156.868 318.183 157.061 318.689C157.254 319.192 157.35 319.804 157.35 320.524V321.073H151.038V319.915H155.835C155.835 319.508 155.753 319.147 155.588 318.834C155.422 318.517 155.189 318.267 154.89 318.085C154.593 317.902 154.245 317.81 153.845 317.81C153.411 317.81 153.032 317.917 152.708 318.131C152.387 318.341 152.139 318.617 151.963 318.958C151.791 319.296 151.705 319.663 151.705 320.059V320.964C151.705 321.495 151.798 321.947 151.983 322.319C152.174 322.691 152.438 322.976 152.775 323.172C153.113 323.365 153.508 323.462 153.959 323.462C154.252 323.462 154.519 323.42 154.761 323.337C155.002 323.251 155.21 323.124 155.386 322.955C155.561 322.785 155.696 322.577 155.789 322.329L157.252 322.593C157.135 323.024 156.924 323.401 156.621 323.725C156.322 324.046 155.944 324.295 155.49 324.474C155.038 324.651 154.522 324.738 153.943 324.738ZM160.466 319.863V324.578H158.92V316.637H160.404V317.929H160.502C160.685 317.509 160.971 317.171 161.361 316.916C161.754 316.661 162.248 316.533 162.845 316.533C163.385 316.533 163.859 316.647 164.266 316.874C164.673 317.098 164.988 317.433 165.212 317.877C165.436 318.322 165.548 318.872 165.548 319.527V324.578H164.002V319.713C164.002 319.137 163.853 318.688 163.553 318.363C163.253 318.036 162.841 317.873 162.317 317.873C161.958 317.873 161.64 317.95 161.361 318.105C161.085 318.26 160.866 318.488 160.704 318.787C160.545 319.084 160.466 319.442 160.466 319.863ZM169.787 324.754C169.283 324.754 168.828 324.661 168.422 324.474C168.015 324.285 167.693 324.011 167.455 323.653C167.221 323.294 167.104 322.855 167.104 322.334C167.104 321.886 167.19 321.517 167.363 321.228C167.535 320.938 167.767 320.709 168.06 320.54C168.354 320.371 168.681 320.244 169.042 320.158C169.404 320.071 169.773 320.006 170.149 319.961C170.625 319.906 171.011 319.861 171.307 319.826C171.604 319.789 171.819 319.728 171.953 319.646C172.088 319.563 172.155 319.429 172.155 319.242V319.207C172.155 318.754 172.028 318.405 171.772 318.157C171.521 317.908 171.145 317.784 170.646 317.784C170.125 317.784 169.715 317.9 169.415 318.131C169.119 318.359 168.913 318.612 168.799 318.891L167.347 318.56C167.519 318.077 167.771 317.688 168.101 317.391C168.436 317.092 168.82 316.874 169.254 316.74C169.688 316.602 170.145 316.533 170.625 316.533C170.941 316.533 171.278 316.571 171.633 316.647C171.991 316.72 172.325 316.853 172.636 317.05C172.95 317.247 173.206 317.528 173.406 317.893C173.606 318.255 173.706 318.725 173.706 319.305V324.578H172.196V323.493H172.134C172.034 323.693 171.884 323.888 171.685 324.082C171.485 324.275 171.228 324.435 170.914 324.563C170.6 324.69 170.225 324.754 169.787 324.754ZM170.123 323.513C170.55 323.513 170.916 323.429 171.219 323.26C171.526 323.091 171.759 322.87 171.917 322.598C172.079 322.322 172.16 322.027 172.16 321.714V320.69C172.105 320.745 171.998 320.797 171.84 320.845C171.685 320.89 171.507 320.93 171.307 320.964C171.107 320.995 170.912 321.025 170.723 321.052C170.534 321.077 170.374 321.097 170.247 321.114C169.948 321.152 169.673 321.216 169.425 321.305C169.181 321.395 168.984 321.524 168.836 321.694C168.691 321.858 168.618 322.079 168.618 322.355C168.618 322.737 168.76 323.027 169.042 323.223C169.325 323.416 169.686 323.513 170.123 323.513ZM175.743 324.578V313.99H177.289V317.925H177.383C177.472 317.759 177.601 317.567 177.771 317.35C177.939 317.133 178.174 316.944 178.473 316.782C178.773 316.616 179.17 316.533 179.662 316.533C180.304 316.533 180.876 316.695 181.379 317.019C181.883 317.343 182.277 317.81 182.563 318.42C182.853 319.03 182.997 319.764 182.997 320.623C182.997 321.482 182.854 322.217 182.568 322.831C182.282 323.441 181.889 323.911 181.389 324.242C180.89 324.57 180.319 324.733 179.678 324.733C179.196 324.733 178.801 324.652 178.494 324.49C178.191 324.328 177.953 324.139 177.781 323.921C177.609 323.705 177.476 323.512 177.383 323.342H177.254V324.578H175.743ZM177.258 320.607C177.258 321.166 177.339 321.655 177.501 322.076C177.663 322.496 177.898 322.826 178.205 323.063C178.511 323.298 178.887 323.415 179.332 323.415C179.793 323.415 180.179 323.292 180.49 323.048C180.8 322.799 181.035 322.463 181.193 322.039C181.355 321.615 181.436 321.138 181.436 320.607C181.436 320.084 181.357 319.613 181.198 319.196C181.043 318.779 180.809 318.45 180.495 318.208C180.185 317.967 179.797 317.846 179.332 317.846C178.883 317.846 178.505 317.962 178.195 318.193C177.887 318.424 177.655 318.746 177.497 319.159C177.337 319.573 177.258 320.056 177.258 320.607ZM186.134 313.99V324.578H184.588V313.99H186.134ZM191.49 324.738C190.708 324.738 190.034 324.571 189.469 324.237C188.907 323.899 188.473 323.425 188.166 322.815C187.863 322.201 187.711 321.482 187.711 320.659C187.711 319.845 187.863 319.128 188.166 318.509C188.473 317.888 188.9 317.404 189.448 317.055C189.999 316.707 190.644 316.533 191.382 316.533C191.83 316.533 192.264 316.608 192.685 316.755C193.105 316.904 193.483 317.136 193.817 317.453C194.152 317.771 194.415 318.183 194.608 318.689C194.801 319.192 194.898 319.804 194.898 320.524V321.073H188.584V319.915H193.383C193.383 319.508 193.3 319.147 193.134 318.834C192.969 318.517 192.737 318.267 192.436 318.085C192.14 317.902 191.792 317.81 191.392 317.81C190.958 317.81 190.579 317.917 190.254 318.131C189.934 318.341 189.686 318.617 189.51 318.958C189.338 319.296 189.251 319.663 189.251 320.059V320.964C189.251 321.495 189.344 321.947 189.531 322.319C189.72 322.691 189.984 322.976 190.322 323.172C190.66 323.365 191.054 323.462 191.505 323.462C191.798 323.462 192.066 323.42 192.307 323.337C192.548 323.251 192.757 323.124 192.933 322.955C193.109 322.785 193.243 322.577 193.336 322.329L194.799 322.593C194.682 323.024 194.472 323.401 194.169 323.725C193.869 324.046 193.491 324.295 193.036 324.474C192.585 324.651 192.07 324.738 191.49 324.738ZM201.193 324.578H199.498L203.307 313.99H205.154L208.964 324.578H207.269L204.275 315.913H204.192L201.193 324.578ZM201.478 320.431H206.978V321.775H201.478V320.431ZM211.945 313.99V324.578H210.348V313.99H211.945ZM218.681 319.434V320.773H213.987V319.434H218.681ZM36.2635 335.746V336.986H31.7757V335.746H36.2635ZM33.0062 343.687V334.825C33.0062 334.329 33.1148 333.917 33.332 333.589C33.5491 333.259 33.8369 333.012 34.1953 332.85C34.5539 332.685 34.9433 332.602 35.3638 332.602C35.674 332.602 35.9395 332.628 36.16 332.679C36.3806 332.728 36.5444 332.773 36.6512 332.814L36.2893 334.065C36.2169 334.044 36.1238 334.021 36.0101 333.993C35.8963 333.961 35.7585 333.946 35.5965 333.946C35.2208 333.946 34.952 334.04 34.7899 334.225C34.6314 334.412 34.5521 334.68 34.5521 335.033V343.687H33.0062ZM40.8227 343.847C40.0403 343.847 39.3664 343.68 38.8012 343.346C38.2394 343.008 37.805 342.534 37.4983 341.924C37.195 341.31 37.0433 340.591 37.0433 339.768C37.0433 338.954 37.195 338.237 37.4983 337.618C37.805 336.997 38.2324 336.513 38.7805 336.164C39.332 335.816 39.9765 335.642 40.7142 335.642C41.1622 335.642 41.5965 335.717 42.017 335.864C42.4375 336.013 42.815 336.245 43.1493 336.562C43.4837 336.88 43.7473 337.292 43.9403 337.798C44.1334 338.301 44.2298 338.913 44.2298 339.633V340.182H37.9171V339.024H42.715C42.715 338.617 42.6322 338.256 42.4668 337.943C42.3014 337.626 42.0687 337.376 41.7689 337.194C41.4724 337.011 41.1243 336.919 40.7245 336.919C40.2902 336.919 39.911 337.026 39.5871 337.24C39.2665 337.45 39.0184 337.726 38.8426 338.067C38.6702 338.405 38.584 338.772 38.584 339.168V340.073C38.584 340.604 38.6771 341.056 38.8632 341.428C39.0528 341.8 39.3165 342.085 39.6542 342.281C39.992 342.474 40.3867 342.571 40.8383 342.571C41.1312 342.571 41.3983 342.529 41.6396 342.446C41.8809 342.36 42.0895 342.233 42.2652 342.064C42.441 341.894 42.5754 341.686 42.6685 341.438L44.1317 341.702C44.0145 342.133 43.8042 342.51 43.5009 342.834C43.201 343.155 42.8236 343.404 42.3686 343.583C41.9171 343.76 41.4018 343.847 40.8227 343.847ZM48.1105 343.863C47.6073 343.863 47.1523 343.77 46.7456 343.583C46.3389 343.394 46.0166 343.12 45.7788 342.762C45.5445 342.403 45.4273 341.964 45.4273 341.443C45.4273 340.995 45.5134 340.626 45.6858 340.337C45.8581 340.047 46.0907 339.818 46.3837 339.649C46.6767 339.48 47.0041 339.353 47.3661 339.267C47.728 339.18 48.0968 339.115 48.4725 339.07C48.9481 339.015 49.3341 338.97 49.6306 338.935C49.9271 338.898 50.1424 338.837 50.2768 338.755C50.4113 338.672 50.4785 338.538 50.4785 338.351V338.316C50.4785 337.863 50.351 337.514 50.0959 337.266C49.8442 337.017 49.4686 336.893 48.9688 336.893C48.4484 336.893 48.0382 337.009 47.7383 337.24C47.4419 337.468 47.2368 337.721 47.123 338L45.6702 337.669C45.8426 337.186 46.0942 336.797 46.4251 336.5C46.7594 336.201 47.1437 335.983 47.578 335.849C48.0123 335.711 48.469 335.642 48.9481 335.642C49.2652 335.642 49.6013 335.68 49.9564 335.756C50.3148 335.829 50.6491 335.962 50.9593 336.159C51.273 336.356 51.5298 336.637 51.7297 337.002C51.9296 337.364 52.0296 337.834 52.0296 338.414V343.687H50.5199V342.602H50.4578C50.3578 342.802 50.208 342.997 50.008 343.191C49.8081 343.384 49.5513 343.544 49.2377 343.672C48.924 343.799 48.5483 343.863 48.1105 343.863ZM48.4467 342.622C48.8741 342.622 49.2394 342.538 49.5427 342.369C49.8494 342.2 50.0821 341.979 50.2407 341.707C50.4027 341.431 50.4837 341.136 50.4837 340.823V339.799C50.4285 339.854 50.3217 339.906 50.1631 339.954C50.008 339.999 49.8305 340.039 49.6306 340.073C49.4307 340.104 49.2359 340.134 49.0464 340.161C48.8568 340.186 48.6983 340.206 48.5707 340.223C48.2708 340.261 47.9968 340.325 47.7486 340.414C47.5039 340.504 47.3075 340.633 47.1593 340.803C47.0145 340.967 46.9421 341.188 46.9421 341.464C46.9421 341.846 47.0835 342.136 47.3661 342.332C47.6487 342.525 48.0089 342.622 48.4467 342.622ZM57.65 335.746V336.986H53.3123V335.746H57.65ZM54.4755 333.843H56.0214V341.356C56.0214 341.655 56.0662 341.881 56.1559 342.033C56.2454 342.181 56.3609 342.282 56.5022 342.338C56.647 342.39 56.8038 342.415 56.9727 342.415C57.0968 342.415 57.2054 342.407 57.2984 342.389C57.3915 342.372 57.4639 342.359 57.5156 342.348L57.7948 343.625C57.7051 343.66 57.5777 343.694 57.4121 343.728C57.2467 343.766 57.04 343.787 56.7917 343.791C56.3851 343.797 56.0059 343.725 55.6543 343.573C55.3028 343.421 55.0184 343.187 54.8012 342.87C54.5841 342.553 54.4755 342.155 54.4755 341.676V333.843ZM64.2451 340.394V335.746H65.7961V343.687H64.2761V342.312H64.1934C64.0107 342.736 63.7177 343.089 63.3145 343.371C62.9146 343.651 62.4165 343.791 61.8202 343.791C61.3101 343.791 60.8586 343.679 60.4657 343.454C60.0761 343.227 59.7694 342.891 59.5453 342.446C59.3248 342.002 59.2145 341.452 59.2145 340.797V335.746H60.7603V340.611C60.7603 341.152 60.9103 341.582 61.2102 341.904C61.51 342.224 61.8995 342.384 62.3786 342.384C62.6681 342.384 62.9559 342.312 63.242 342.167C63.5316 342.022 63.7711 341.803 63.9607 341.51C64.1537 341.217 64.2485 340.845 64.2451 340.394ZM67.7276 343.687V335.746H69.2218V337.007H69.3046C69.4493 336.579 69.7043 336.244 70.0698 335.999C70.4386 335.75 70.8556 335.627 71.3209 335.627C71.4174 335.627 71.5311 335.63 71.6622 335.637C71.7966 335.644 71.9017 335.652 71.9776 335.663V337.142C71.9155 337.125 71.8052 337.105 71.6466 337.084C71.4881 337.061 71.3295 337.049 71.171 337.049C70.8056 337.049 70.4799 337.126 70.1938 337.281C69.9112 337.433 69.6871 337.645 69.5217 337.917C69.3563 338.186 69.2735 338.493 69.2735 338.837V343.687H67.7276ZM76.308 343.847C75.5256 343.847 74.8517 343.68 74.2865 343.346C73.7247 343.008 73.2903 342.534 72.9836 341.924C72.6802 341.31 72.5286 340.591 72.5286 339.768C72.5286 338.954 72.6802 338.237 72.9836 337.618C73.2903 336.997 73.7178 336.513 74.2658 336.164C74.8172 335.816 75.4619 335.642 76.1995 335.642C76.6475 335.642 77.0818 335.717 77.5023 335.864C77.9228 336.013 78.3003 336.245 78.6346 336.562C78.9689 336.88 79.2326 337.292 79.4256 337.798C79.6186 338.301 79.7152 338.913 79.7152 339.633V340.182H73.4024V339.024H78.2003C78.2003 338.617 78.1175 338.256 77.9521 337.943C77.7867 337.626 77.554 337.376 77.2542 337.194C76.9577 337.011 76.6096 336.919 76.2097 336.919C75.7755 336.919 75.3963 337.026 75.0723 337.24C74.7518 337.45 74.5036 337.726 74.3278 338.067C74.1555 338.405 74.0694 338.772 74.0694 339.168V340.073C74.0694 340.604 74.1624 341.056 74.3485 341.428C74.5381 341.8 74.8018 342.085 75.1396 342.281C75.4773 342.474 75.872 342.571 76.3235 342.571C76.6165 342.571 76.8837 342.529 77.1249 342.446C77.3662 342.36 77.5747 342.233 77.7505 342.064C77.9263 341.894 78.0607 341.686 78.1538 341.438L79.6169 341.702C79.4998 342.133 79.2895 342.51 78.9862 342.834C78.6863 343.155 78.3088 343.404 77.8539 343.583C77.4023 343.76 76.887 343.847 76.308 343.847ZM87.2356 337.684L85.8345 337.933C85.776 337.753 85.6829 337.583 85.5553 337.421C85.4313 337.259 85.2624 337.126 85.0487 337.023C84.835 336.919 84.5678 336.868 84.2473 336.868C83.8096 336.868 83.4442 336.966 83.1512 337.163C82.8582 337.356 82.7117 337.605 82.7117 337.912C82.7117 338.177 82.81 338.391 83.0065 338.553C83.2029 338.715 83.52 338.848 83.9577 338.951L85.2193 339.241C85.95 339.409 86.4946 339.67 86.8531 340.022C87.2115 340.373 87.3908 340.83 87.3908 341.391C87.3908 341.867 87.2529 342.291 86.9771 342.663C86.7049 343.032 86.324 343.321 85.8345 343.532C85.3486 343.743 84.785 343.847 84.1439 343.847C83.2546 343.847 82.5291 343.658 81.9672 343.279C81.4054 342.896 81.0607 342.353 80.9332 341.65L82.4274 341.422C82.5205 341.812 82.7117 342.106 83.0013 342.307C83.2908 342.503 83.6683 342.602 84.1335 342.602C84.6402 342.602 85.0452 342.496 85.3486 342.286C85.6519 342.072 85.8036 341.812 85.8036 341.505C85.8036 341.257 85.7105 341.048 85.5243 340.88C85.3417 340.711 85.0608 340.583 84.6816 340.497L83.3373 340.202C82.5962 340.034 82.0483 339.764 81.6932 339.396C81.3416 339.027 81.1659 338.56 81.1659 337.994C81.1659 337.526 81.2968 337.115 81.5588 336.764C81.8208 336.413 82.1827 336.139 82.6446 335.942C83.1064 335.742 83.6355 335.642 84.2318 335.642C85.0901 335.642 85.7656 335.829 86.2585 336.201C86.7514 336.569 87.0771 337.064 87.2356 337.684ZM96.4318 335.746V336.986H91.9439V335.746H96.4318ZM93.1742 343.687V334.825C93.1742 334.329 93.2834 333.917 93.4999 333.589C93.7174 333.259 94.005 333.012 94.3635 332.85C94.722 332.685 95.1115 332.602 95.5319 332.602C95.8421 332.602 96.1078 332.628 96.3281 332.679C96.5492 332.728 96.713 332.773 96.8194 332.814L96.4573 334.065C96.3854 334.044 96.2926 334.021 96.1788 333.993C96.0651 333.961 95.9268 333.946 95.7648 333.946C95.389 333.946 95.1206 334.04 94.9586 334.225C94.7993 334.412 94.7202 334.68 94.7202 335.033V343.687H93.1742ZM100.913 343.847C100.169 343.847 99.5193 343.677 98.9642 343.336C98.4091 342.995 97.9787 342.517 97.6721 341.904C97.3654 341.29 97.2116 340.573 97.2116 339.752C97.2116 338.929 97.3654 338.208 97.6721 337.591C97.9787 336.974 98.4091 336.496 98.9642 336.154C99.5193 335.813 100.169 335.642 100.913 335.642C101.658 335.642 102.307 335.813 102.862 336.154C103.417 336.496 103.849 336.974 104.155 337.591C104.462 338.208 104.615 338.929 104.615 339.752C104.615 340.573 104.462 341.29 104.155 341.904C103.849 342.517 103.417 342.995 102.862 343.336C102.307 343.677 101.658 343.847 100.913 343.847ZM100.919 342.55C101.401 342.55 101.801 342.422 102.118 342.167C102.436 341.912 102.67 341.572 102.821 341.148C102.976 340.724 103.054 340.257 103.054 339.747C103.054 339.241 102.976 338.775 102.821 338.351C102.67 337.924 102.436 337.581 102.118 337.323C101.801 337.064 101.401 336.935 100.919 336.935C100.433 336.935 100.03 337.064 99.7085 337.323C99.3919 337.581 99.1553 337.924 99.0006 338.351C98.8486 338.775 98.7731 339.241 98.7731 339.747C98.7731 340.257 98.8486 340.724 99.0006 341.148C99.1553 341.572 99.3919 341.912 99.7085 342.167C100.03 342.422 100.433 342.55 100.919 342.55ZM106.196 343.687V335.746H107.69V337.007H107.773C107.917 336.579 108.172 336.244 108.538 335.999C108.906 335.75 109.323 335.627 109.789 335.627C109.885 335.627 109.999 335.63 110.13 335.637C110.264 335.644 110.37 335.652 110.445 335.663V337.142C110.383 337.125 110.273 337.105 110.114 337.084C109.956 337.061 109.797 337.049 109.639 337.049C109.273 337.049 108.947 337.126 108.662 337.281C108.379 337.433 108.155 337.645 107.989 337.917C107.823 338.186 107.742 338.493 107.742 338.837V343.687H106.196ZM116.322 346.665C116.091 346.665 115.881 346.646 115.691 346.608C115.502 346.573 115.361 346.536 115.267 346.494L115.64 345.228C115.922 345.304 116.174 345.337 116.394 345.326C116.615 345.316 116.81 345.233 116.979 345.077C117.151 344.923 117.302 344.67 117.433 344.318L117.625 343.791L114.719 335.746H116.373L118.385 341.908H118.467L120.479 335.746H122.139L118.866 344.747C118.714 345.16 118.521 345.511 118.287 345.796C118.052 346.086 117.773 346.303 117.449 346.448C117.125 346.593 116.749 346.665 116.322 346.665ZM126.52 343.847C125.776 343.847 125.126 343.677 124.571 343.336C124.017 342.995 123.586 342.517 123.279 341.904C122.972 341.29 122.819 340.573 122.819 339.752C122.819 338.929 122.972 338.208 123.279 337.591C123.586 336.974 124.017 336.496 124.571 336.154C125.126 335.813 125.776 335.642 126.52 335.642C127.266 335.642 127.915 335.813 128.469 336.154C129.024 336.496 129.456 336.974 129.762 337.591C130.069 338.208 130.223 338.929 130.223 339.752C130.223 340.573 130.069 341.29 129.762 341.904C129.456 342.517 129.024 342.995 128.469 343.336C127.915 343.677 127.266 343.847 126.52 343.847ZM126.526 342.55C127.008 342.55 127.408 342.422 127.725 342.167C128.043 341.912 128.276 341.572 128.428 341.148C128.583 340.724 128.661 340.257 128.661 339.747C128.661 339.241 128.583 338.775 128.428 338.351C128.276 337.924 128.043 337.581 127.725 337.323C127.408 337.064 127.008 336.935 126.526 336.935C126.04 336.935 125.637 337.064 125.316 337.323C124.999 337.581 124.763 337.924 124.608 338.351C124.456 338.775 124.38 339.241 124.38 339.747C124.38 340.257 124.456 340.724 124.608 341.148C124.763 341.572 124.999 341.912 125.316 342.167C125.637 342.422 126.04 342.55 126.526 342.55ZM136.833 340.394V335.746H138.384V343.687H136.864V342.312H136.782C136.599 342.736 136.306 343.089 135.903 343.371C135.502 343.651 135.005 343.791 134.409 343.791C133.898 343.791 133.447 343.679 133.054 343.454C132.664 343.227 132.358 342.891 132.134 342.446C131.913 342.002 131.803 341.452 131.803 340.797V335.746H133.349V340.611C133.349 341.152 133.499 341.582 133.798 341.904C134.098 342.224 134.488 342.384 134.966 342.384C135.256 342.384 135.544 342.312 135.83 342.167C136.119 342.022 136.359 341.803 136.549 341.51C136.742 341.217 136.836 340.845 136.833 340.394ZM140.316 343.687V335.746H141.81V337.007H141.893C142.038 336.579 142.292 336.244 142.657 335.999C143.027 335.75 143.444 335.627 143.909 335.627C144.005 335.627 144.119 335.63 144.25 335.637C144.384 335.644 144.49 335.652 144.566 335.663V337.142C144.504 337.125 144.394 337.105 144.234 337.084C144.076 337.061 143.918 337.049 143.759 337.049C143.394 337.049 143.068 337.126 142.782 337.281C142.499 337.433 142.275 337.645 142.11 337.917C141.944 338.186 141.861 338.493 141.861 338.837V343.687H140.316ZM152.811 343.847C152.042 343.847 151.38 343.673 150.825 343.325C150.274 342.974 149.85 342.49 149.553 341.873C149.256 341.256 149.108 340.549 149.108 339.752C149.108 338.946 149.26 338.235 149.563 337.618C149.867 336.997 150.295 336.513 150.846 336.164C151.397 335.816 152.047 335.642 152.795 335.642C153.398 335.642 153.935 335.754 154.408 335.978C154.88 336.199 155.261 336.509 155.55 336.909C155.843 337.309 156.017 337.776 156.073 338.31H154.568C154.486 337.938 154.296 337.618 153.999 337.348C153.707 337.08 153.314 336.945 152.821 336.945C152.39 336.945 152.013 337.059 151.689 337.286C151.367 337.51 151.118 337.831 150.939 338.248C150.76 338.661 150.669 339.151 150.669 339.716C150.669 340.296 150.758 340.795 150.933 341.216C151.109 341.636 151.357 341.962 151.678 342.193C152.002 342.424 152.383 342.54 152.821 342.54C153.114 342.54 153.379 342.486 153.617 342.379C153.858 342.268 154.06 342.112 154.222 341.908C154.388 341.705 154.503 341.46 154.568 341.175H156.073C156.017 341.688 155.851 342.147 155.571 342.55C155.292 342.953 154.918 343.27 154.449 343.501C153.984 343.732 153.438 343.847 152.811 343.847ZM162.611 340.394V335.746H164.162V343.687H162.642V342.312H162.559C162.377 342.736 162.084 343.089 161.68 343.371C161.28 343.651 160.783 343.791 160.186 343.791C159.676 343.791 159.224 343.679 158.832 343.454C158.442 343.227 158.136 342.891 157.911 342.446C157.691 342.002 157.581 341.452 157.581 340.797V335.746H159.127V340.611C159.127 341.152 159.276 341.582 159.576 341.904C159.875 342.224 160.265 342.384 160.744 342.384C161.034 342.384 161.321 342.312 161.608 342.167C161.897 342.022 162.137 341.803 162.327 341.51C162.52 341.217 162.614 340.845 162.611 340.394ZM172.044 337.684L170.643 337.933C170.585 337.753 170.492 337.583 170.364 337.421C170.24 337.259 170.071 337.126 169.858 337.023C169.644 336.919 169.376 336.868 169.056 336.868C168.618 336.868 168.253 336.966 167.959 337.163C167.666 337.356 167.52 337.605 167.52 337.912C167.52 338.177 167.618 338.391 167.815 338.553C168.011 338.715 168.329 338.848 168.767 338.951L170.028 339.241C170.758 339.409 171.304 339.67 171.662 340.022C172.021 340.373 172.2 340.83 172.2 341.391C172.2 341.867 172.062 342.291 171.786 342.663C171.514 343.032 171.132 343.321 170.643 343.532C170.157 343.743 169.594 343.847 168.952 343.847C168.063 343.847 167.338 343.658 166.776 343.279C166.214 342.896 165.869 342.353 165.742 341.65L167.236 341.422C167.329 341.812 167.52 342.106 167.81 342.307C168.1 342.503 168.477 342.602 168.942 342.602C169.449 342.602 169.854 342.496 170.157 342.286C170.461 342.072 170.612 341.812 170.612 341.505C170.612 341.257 170.519 341.048 170.333 340.88C170.151 340.711 169.869 340.583 169.49 340.497L168.146 340.202C167.405 340.034 166.857 339.764 166.502 339.396C166.15 339.027 165.975 338.56 165.975 337.994C165.975 337.526 166.106 337.115 166.367 336.764C166.629 336.413 166.991 336.139 167.454 335.942C167.915 335.742 168.445 335.642 169.041 335.642C169.899 335.642 170.575 335.829 171.067 336.201C171.56 336.569 171.886 337.064 172.044 337.684ZM177.46 335.746V336.986H173.123V335.746H177.46ZM174.286 333.843H175.832V341.356C175.832 341.655 175.877 341.881 175.966 342.033C176.056 342.181 176.172 342.282 176.313 342.338C176.458 342.39 176.614 342.415 176.783 342.415C176.907 342.415 177.016 342.407 177.109 342.389C177.202 342.372 177.275 342.359 177.327 342.348L177.605 343.625C177.516 343.66 177.388 343.694 177.223 343.728C177.057 343.766 176.851 343.787 176.602 343.791C176.195 343.797 175.816 343.725 175.465 343.573C175.114 343.421 174.829 343.187 174.612 342.87C174.395 342.553 174.286 342.155 174.286 341.676V333.843ZM182.285 343.847C181.541 343.847 180.891 343.677 180.336 343.336C179.781 342.995 179.35 342.517 179.043 341.904C178.736 341.29 178.583 340.573 178.583 339.752C178.583 338.929 178.736 338.208 179.043 337.591C179.35 336.974 179.781 336.496 180.336 336.154C180.891 335.813 181.541 335.642 182.285 335.642C183.029 335.642 183.679 335.813 184.234 336.154C184.789 336.496 185.219 336.974 185.526 337.591C185.834 338.208 185.987 338.929 185.987 339.752C185.987 340.573 185.834 341.29 185.526 341.904C185.219 342.517 184.789 342.995 184.234 343.336C183.679 343.677 183.029 343.847 182.285 343.847ZM182.29 342.55C182.773 342.55 183.172 342.422 183.49 342.167C183.806 341.912 184.041 341.572 184.193 341.148C184.348 340.724 184.425 340.257 184.425 339.747C184.425 339.241 184.348 338.775 184.193 338.351C184.041 337.924 183.806 337.581 183.49 337.323C183.172 337.064 182.773 336.935 182.29 336.935C181.804 336.935 181.4 337.064 181.08 337.323C180.763 337.581 180.527 337.924 180.372 338.351C180.22 338.775 180.145 339.241 180.145 339.747C180.145 340.257 180.22 340.724 180.372 341.148C180.527 341.572 180.763 341.912 181.08 342.167C181.4 342.422 181.804 342.55 182.29 342.55ZM187.566 343.687V335.746H189.05V337.038H189.149C189.314 336.6 189.585 336.259 189.96 336.014C190.336 335.766 190.786 335.642 191.31 335.642C191.84 335.642 192.285 335.766 192.644 336.014C193.006 336.263 193.273 336.604 193.445 337.038H193.528C193.717 336.614 194.019 336.276 194.433 336.025C194.846 335.77 195.339 335.642 195.911 335.642C196.632 335.642 197.219 335.868 197.674 336.319C198.133 336.771 198.362 337.452 198.362 338.362V343.687H196.816V338.507C196.816 337.969 196.669 337.579 196.376 337.338C196.083 337.097 195.734 336.976 195.327 336.976C194.824 336.976 194.433 337.131 194.153 337.441C193.874 337.748 193.735 338.143 193.735 338.626V343.687H192.194V338.408C192.194 337.977 192.06 337.631 191.79 337.369C191.522 337.107 191.172 336.976 190.741 336.976C190.448 336.976 190.178 337.054 189.929 337.209C189.685 337.36 189.486 337.572 189.335 337.845C189.187 338.117 189.112 338.432 189.112 338.791V343.687H187.566ZM203.711 343.847C202.929 343.847 202.255 343.68 201.69 343.346C201.127 343.008 200.693 342.534 200.387 341.924C200.084 341.31 199.932 340.591 199.932 339.768C199.932 338.954 200.084 338.237 200.387 337.618C200.693 336.997 201.121 336.513 201.669 336.164C202.22 335.816 202.864 335.642 203.602 335.642C204.051 335.642 204.485 335.717 204.905 335.864C205.326 336.013 205.703 336.245 206.037 336.562C206.372 336.88 206.635 337.292 206.829 337.798C207.022 338.301 207.118 338.913 207.118 339.633V340.182H200.805V339.024H205.603C205.603 338.617 205.52 338.256 205.355 337.943C205.189 337.626 204.957 337.376 204.657 337.194C204.36 337.011 204.013 336.919 203.612 336.919C203.178 336.919 202.8 337.026 202.475 337.24C202.155 337.45 201.906 337.726 201.731 338.067C201.559 338.405 201.472 338.772 201.472 339.168V340.073C201.472 340.604 201.565 341.056 201.751 341.428C201.941 341.8 202.205 342.085 202.542 342.281C202.881 342.474 203.275 342.571 203.726 342.571C204.019 342.571 204.287 342.529 204.528 342.446C204.769 342.36 204.977 342.233 205.154 342.064C205.329 341.894 205.464 341.686 205.557 341.438L207.02 341.702C206.903 342.133 206.693 342.51 206.389 342.834C206.089 343.155 205.712 343.404 205.257 343.583C204.805 343.76 204.29 343.847 203.711 343.847ZM208.688 343.687V335.746H210.182V337.007H210.265C210.41 336.579 210.664 336.244 211.03 335.999C211.399 335.75 211.816 335.627 212.281 335.627C212.378 335.627 212.492 335.63 212.623 335.637C212.756 335.644 212.862 335.652 212.938 335.663V337.142C212.876 337.125 212.766 337.105 212.606 337.084C212.448 337.061 212.29 337.049 212.131 337.049C211.766 337.049 211.44 337.126 211.154 337.281C210.871 337.433 210.647 337.645 210.482 337.917C210.316 338.186 210.234 338.493 210.234 338.837V343.687H208.688ZM220.081 337.684L218.679 337.933C218.621 337.753 218.528 337.583 218.4 337.421C218.276 337.259 218.108 337.126 217.894 337.023C217.68 336.919 217.413 336.868 217.092 336.868C216.655 336.868 216.289 336.966 215.996 337.163C215.703 337.356 215.556 337.605 215.556 337.912C215.556 338.177 215.655 338.391 215.851 338.553C216.048 338.715 216.365 338.848 216.803 338.951L218.064 339.241C218.795 339.409 219.34 339.67 219.698 340.022C220.057 340.373 220.236 340.83 220.236 341.391C220.236 341.867 220.098 342.291 219.822 342.663C219.55 343.032 219.169 343.321 218.679 343.532C218.193 343.743 217.63 343.847 216.989 343.847C216.1 343.847 215.374 343.658 214.812 343.279C214.251 342.896 213.906 342.353 213.778 341.65L215.272 341.422C215.365 341.812 215.556 342.106 215.847 342.307C216.136 342.503 216.514 342.602 216.979 342.602C217.485 342.602 217.89 342.496 218.193 342.286C218.497 342.072 218.648 341.812 218.648 341.505C218.648 341.257 218.556 341.048 218.369 340.88C218.187 340.711 217.906 340.583 217.526 340.497L216.182 340.202C215.442 340.034 214.893 339.764 214.538 339.396C214.187 339.027 214.011 338.56 214.011 337.994C214.011 337.526 214.142 337.115 214.403 336.764C214.666 336.413 215.028 336.139 215.49 335.942C215.951 335.742 216.481 335.642 217.077 335.642C217.935 335.642 218.611 335.829 219.103 336.201C219.597 336.569 219.922 337.064 220.081 337.684Z" fill="white" fill-opacity="0.5"/>
<path d="M208.886 180.806C208.886 184.826 205.627 188.085 201.607 188.085H132.45V118.929H201.607C205.627 118.929 208.886 122.188 208.886 126.209V180.806Z" fill="#202021" fill-opacity="0.2"/>
<mask id="mask1_1_448" style="mask-type:luminance" maskUnits="userSpaceOnUse" x="132" y="118" width="77" height="71">
<path d="M208.886 180.806C208.886 184.826 205.627 188.085 201.607 188.085H132.45V118.929H201.607C205.627 118.929 208.886 122.188 208.886 126.209V180.806Z" fill="white"/>
</mask>
<g mask="url(#mask1_1_448)">
<path d="M132.45 188.085H131.54V188.995H132.45V188.085ZM132.45 118.929V118.019H131.54V118.929H132.45ZM201.607 187.175H132.45V188.995H201.607V187.175ZM133.359 188.085V118.929H131.54V188.085H133.359ZM132.45 119.839H201.607V118.019H132.45V119.839ZM207.976 126.209V180.806H209.796V126.209H207.976ZM201.607 119.839C205.125 119.839 207.976 122.691 207.976 126.209H209.796C209.796 121.685 206.13 118.019 201.607 118.019V119.839ZM201.607 188.995C206.13 188.995 209.796 185.329 209.796 180.806H207.976C207.976 184.324 205.125 187.175 201.607 187.175V188.995Z" fill="#272729"/>
</g>
<path d="M71.4828 118.929C67.4623 118.929 64.2031 122.188 64.2031 126.209V180.806C64.2031 184.826 67.4623 188.085 71.4828 188.085H133.36V174.511C133.36 170.662 136.534 167.634 139.856 165.692C144.139 163.191 147.01 158.586 147.01 153.318C147.01 146.608 144.193 142.589 139.98 140.567C136.51 138.902 133.36 135.974 133.36 132.126V118.929H71.4828Z" fill="url(#paint5_linear_1_448)"/>
<path d="M71.4828 118.929C67.4623 118.929 64.2031 122.188 64.2031 126.209V180.806C64.2031 184.826 67.4623 188.085 71.4828 188.085H133.36V174.511C133.36 170.662 136.534 167.634 139.856 165.692C144.139 163.191 147.01 158.586 147.01 153.318C147.01 146.608 144.193 142.589 139.98 140.567C136.51 138.902 133.36 135.974 133.36 132.126V118.929H71.4828Z" fill="url(#paint6_radial_1_448)" fill-opacity="0.1"/>
<path d="M64.6581 126.209C64.6581 122.44 67.7137 119.384 71.4828 119.384H132.905V132.126C132.905 136.243 136.262 139.288 139.784 140.977C141.816 141.953 143.502 143.404 144.683 145.415C145.864 147.428 146.555 150.027 146.555 153.318C146.555 158.415 143.777 162.875 139.627 165.3C136.278 167.258 132.905 170.403 132.905 174.511V187.63H71.4828C67.7137 187.63 64.6581 184.575 64.6581 180.806V126.209Z" stroke="#272729"/>
<path d="M64.6581 126.209C64.6581 122.44 67.7137 119.384 71.4828 119.384H132.905V132.126C132.905 136.243 136.262 139.288 139.784 140.977C141.816 141.953 143.502 143.404 144.683 145.415C145.864 147.428 146.555 150.027 146.555 153.318C146.555 158.415 143.777 162.875 139.627 165.3C136.278 167.258 132.905 170.403 132.905 174.511V187.63H71.4828C67.7137 187.63 64.6581 184.575 64.6581 180.806V126.209Z" stroke="url(#paint7_radial_1_448)" stroke-opacity="0.3"/>
<g filter="url(#filter1_ddi_1_448)">
<path d="M107.881 137.128H89.6819C85.6614 137.128 82.4022 140.387 82.4022 144.408V162.607C82.4022 166.627 85.6614 169.886 89.6819 169.886H107.881C111.902 169.886 115.161 166.627 115.161 162.607V144.408C115.161 140.387 111.902 137.128 107.881 137.128Z" fill="url(#paint8_linear_1_448)"/>
<path d="M107.881 137.128H89.6819C85.6614 137.128 82.4022 140.387 82.4022 144.408V162.607C82.4022 166.627 85.6614 169.886 89.6819 169.886H107.881C111.902 169.886 115.161 166.627 115.161 162.607V144.408C115.161 140.387 111.902 137.128 107.881 137.128Z" fill="url(#paint9_radial_1_448)" fill-opacity="0.1"/>
<path d="M107.881 136.855H89.6818C85.5106 136.855 82.1292 140.236 82.1292 144.408V162.607C82.1292 166.778 85.5106 170.159 89.6818 170.159H107.881C112.052 170.159 115.434 166.778 115.434 162.607V144.408C115.434 140.236 112.052 136.855 107.881 136.855Z" stroke="white" stroke-opacity="0.05" stroke-width="0.6"/>
<path d="M107.881 136.855H89.6818C85.5106 136.855 82.1292 140.236 82.1292 144.408V162.607C82.1292 166.778 85.5106 170.159 89.6818 170.159H107.881C112.052 170.159 115.434 166.778 115.434 162.607V144.408C115.434 140.236 112.052 136.855 107.881 136.855Z" stroke="url(#paint10_radial_1_448)" stroke-opacity="0.3" stroke-width="0.6"/>
<path d="M107.881 136.855H89.6818C85.5106 136.855 82.1292 140.236 82.1292 144.408V162.607C82.1292 166.778 85.5106 170.159 89.6818 170.159H107.881C112.052 170.159 115.434 166.778 115.434 162.607V144.408C115.434 140.236 112.052 136.855 107.881 136.855Z" stroke="url(#paint11_radial_1_448)" stroke-opacity="0.2" stroke-width="0.6"/>
<g filter="url(#filter2_i_1_448)">
<path fill-rule="evenodd" clip-rule="evenodd" d="M98.8897 160.059C98.3474 160.056 97.9088 159.615 97.9115 159.071L97.9288 155.182L94.4664 157.181C93.9959 157.453 93.3954 157.291 93.1233 156.822C92.8521 156.352 93.0132 155.751 93.4836 155.48L96.8159 153.555L93.4509 151.613C92.9804 151.341 92.8194 150.74 93.0905 150.27C93.3626 149.8 93.9632 149.639 94.4336 149.911L97.9434 151.936L97.9606 147.934C97.9634 147.391 98.4056 146.953 98.9479 146.955C99.4903 146.958 99.9289 147.399 99.9262 147.943L99.9098 151.769L103.129 149.911C103.6 149.639 104.2 149.8 104.471 150.27C104.743 150.74 104.582 151.341 104.112 151.613L100.747 153.555L104.079 155.48C104.55 155.751 104.711 156.352 104.439 156.822C104.167 157.291 103.567 157.453 103.096 157.181L99.8934 155.332L99.877 159.08C99.8743 159.623 99.433 160.061 98.8897 160.059Z" fill="white"/>
<path fill-rule="evenodd" clip-rule="evenodd" d="M98.8897 160.059C98.3474 160.056 97.9088 159.615 97.9115 159.071L97.9288 155.182L94.4664 157.181C93.9959 157.453 93.3954 157.291 93.1233 156.822C92.8521 156.352 93.0132 155.751 93.4836 155.48L96.8159 153.555L93.4509 151.613C92.9804 151.341 92.8194 150.74 93.0905 150.27C93.3626 149.8 93.9632 149.639 94.4336 149.911L97.9434 151.936L97.9606 147.934C97.9634 147.391 98.4056 146.953 98.9479 146.955C99.4903 146.958 99.9289 147.399 99.9262 147.943L99.9098 151.769L103.129 149.911C103.6 149.639 104.2 149.8 104.471 150.27C104.743 150.74 104.582 151.341 104.112 151.613L100.747 153.555L104.079 155.48C104.55 155.751 104.711 156.352 104.439 156.822C104.167 157.291 103.567 157.453 103.096 157.181L99.8934 155.332L99.877 159.08C99.8743 159.623 99.433 160.061 98.8897 160.059Z" fill="url(#paint12_linear_1_448)"/>
</g>
</g>
<g filter="url(#filter3_ddi_1_448)">
<path d="M186.137 137.128H167.938C163.917 137.128 160.658 140.387 160.658 144.408V162.607C160.658 166.627 163.917 169.886 167.938 169.886H186.137C190.157 169.886 193.417 166.627 193.417 162.607V144.408C193.417 140.387 190.157 137.128 186.137 137.128Z" fill="url(#paint13_linear_1_448)"/>
<path d="M186.137 136.855H167.938C163.767 136.855 160.385 140.236 160.385 144.408V162.607C160.385 166.778 163.767 170.159 167.938 170.159H186.137C190.308 170.159 193.69 166.778 193.69 162.607V144.408C193.69 140.236 190.308 136.855 186.137 136.855Z" stroke="white" stroke-opacity="0.05" stroke-width="0.6"/>
<path d="M186.137 136.855H167.938C163.767 136.855 160.385 140.236 160.385 144.408V162.607C160.385 166.778 163.767 170.159 167.938 170.159H186.137C190.308 170.159 193.69 166.778 193.69 162.607V144.408C193.69 140.236 190.308 136.855 186.137 136.855Z" stroke="url(#paint14_radial_1_448)" stroke-opacity="0.2" stroke-width="0.6"/>
<path d="M172.468 158.057H170.984L174.318 148.792H175.934L179.268 158.057H177.784L175.165 150.475H175.092L172.468 158.057ZM172.717 154.429H177.531V155.605H172.717V154.429ZM181.877 148.792V158.057H180.478V148.792H181.877Z" fill="white"/>
<path d="M172.468 158.057H170.984L174.318 148.792H175.934L179.268 158.057H177.784L175.165 150.475H175.092L172.468 158.057ZM172.717 154.429H177.531V155.605H172.717V154.429ZM181.877 148.792V158.057H180.478V148.792H181.877Z" fill="url(#paint15_linear_1_448)"/>
</g>
<g opacity="0.2" filter="url(#filter4_f_1_448)">
<path d="M86.0424 146.228C86.0424 134.166 76.2647 124.389 64.2033 124.389C52.1419 124.389 42.3643 134.166 42.3643 146.228V153.507C42.3643 165.568 52.1419 175.346 64.2033 175.346C76.2647 175.346 86.0424 165.568 86.0424 153.507V146.228Z" fill="#24E98A"/>
</g>
</g>
<path d="M248.923 6.55005H24.1653C16.3758 6.55005 10.0611 12.8647 10.0611 20.6543V355.517C10.0611 363.306 16.3758 369.621 24.1653 369.621H248.923C256.713 369.621 263.028 363.306 263.028 355.517V20.6543C263.028 12.8647 256.713 6.55005 248.923 6.55005Z" stroke="white" stroke-opacity="0.02"/>
</g>
<defs>
<filter id="filter0_d_1_448" x="-0.438934" y="0.0500488" width="273.967" height="384.071" filterUnits="userSpaceOnUse" color-interpolation-filters="sRGB">
<feFlood flood-opacity="0" result="BackgroundImageFix"/>
<feColorMatrix in="SourceAlpha" type="matrix" values="0 0 0 0 0 0 0 0 0 0 0 0 0 0 0 0 0 0 127 0" result="hardAlpha"/>
<feOffset dy="4"/>
<feGaussianBlur stdDeviation="5"/>
<feComposite in2="hardAlpha" operator="out"/>
<feColorMatrix type="matrix" values="0 0 0 0 0 0 0 0 0 0 0 0 0 0 0 0 0 0 0.3 0"/>
<feBlend mode="normal" in2="BackgroundImageFix" result="effect1_dropShadow_1_448"/>
<feBlend mode="normal" in="SourceGraphic" in2="effect1_dropShadow_1_448" result="shape"/>
</filter>
<filter id="filter1_ddi_1_448" x="73.8292" y="130.555" width="49.9046" height="49.9043" filterUnits="userSpaceOnUse" color-interpolation-filters="sRGB">
<feFlood flood-opacity="0" result="BackgroundImageFix"/>
<feColorMatrix in="SourceAlpha" type="matrix" values="0 0 0 0 0 0 0 0 0 0 0 0 0 0 0 0 0 0 127 0" result="hardAlpha"/>
<feOffset dy="2"/>
<feGaussianBlur stdDeviation="4"/>
<feColorMatrix type="matrix" values="0 0 0 0 0 0 0 0 0 0 0 0 0 0 0 0 0 0 0.2 0"/>
<feBlend mode="normal" in2="BackgroundImageFix" result="effect1_dropShadow_1_448"/>
<feColorMatrix in="SourceAlpha" type="matrix" values="0 0 0 0 0 0 0 0 0 0 0 0 0 0 0 0 0 0 127 0" result="hardAlpha"/>
<feOffset dy="1"/>
<feGaussianBlur stdDeviation="0.5"/>
<feColorMatrix type="matrix" values="0 0 0 0 0 0 0 0 0 0 0 0 0 0 0 0 0 0 0.1 0"/>
<feBlend mode="normal" in2="effect1_dropShadow_1_448" result="effect2_dropShadow_1_448"/>
<feBlend mode="normal" in="SourceGraphic" in2="effect2_dropShadow_1_448" result="shape"/>
<feColorMatrix in="SourceAlpha" type="matrix" values="0 0 0 0 0 0 0 0 0 0 0 0 0 0 0 0 0 0 127 0" result="hardAlpha"/>
<feOffset/>
<feGaussianBlur stdDeviation="2"/>
<feComposite in2="hardAlpha" operator="arithmetic" k2="-1" k3="1"/>
<feColorMatrix type="matrix" values="0 0 0 0 1 0 0 0 0 1 0 0 0 0 1 0 0 0 0.1 0"/>
<feBlend mode="normal" in2="shape" result="effect3_innerShadow_1_448"/>
</filter>
<filter id="filter2_i_1_448" x="92.9589" y="146.655" width="11.6448" height="13.4033" filterUnits="userSpaceOnUse" color-interpolation-filters="sRGB">
<feFlood flood-opacity="0" result="BackgroundImageFix"/>
<feBlend mode="normal" in="SourceGraphic" in2="BackgroundImageFix" result="shape"/>
<feColorMatrix in="SourceAlpha" type="matrix" values="0 0 0 0 0 0 0 0 0 0 0 0 0 0 0 0 0 0 127 0" result="hardAlpha"/>
<feOffset dy="-0.3"/>
<feGaussianBlur stdDeviation="0.3"/>
<feComposite in2="hardAlpha" operator="arithmetic" k2="-1" k3="1"/>
<feColorMatrix type="matrix" values="0 0 0 0 0 0 0 0 0 0 0 0 0 0 0 0 0 0 0.45 0"/>
<feBlend mode="normal" in2="shape" result="effect1_innerShadow_1_448"/>
</filter>
<filter id="filter3_ddi_1_448" x="152.085" y="130.555" width="49.9046" height="49.9043" filterUnits="userSpaceOnUse" color-interpolation-filters="sRGB">
<feFlood flood-opacity="0" result="BackgroundImageFix"/>
<feColorMatrix in="SourceAlpha" type="matrix" values="0 0 0 0 0 0 0 0 0 0 0 0 0 0 0 0 0 0 127 0" result="hardAlpha"/>
<feOffset dy="2"/>
<feGaussianBlur stdDeviation="4"/>
<feColorMatrix type="matrix" values="0 0 0 0 0 0 0 0 0 0 0 0 0 0 0 0 0 0 0.2 0"/>
<feBlend mode="normal" in2="BackgroundImageFix" result="effect1_dropShadow_1_448"/>
<feColorMatrix in="SourceAlpha" type="matrix" values="0 0 0 0 0 0 0 0 0 0 0 0 0 0 0 0 0 0 127 0" result="hardAlpha"/>
<feOffset dy="1"/>
<feGaussianBlur stdDeviation="0.5"/>
<feColorMatrix type="matrix" values="0 0 0 0 0 0 0 0 0 0 0 0 0 0 0 0 0 0 0.1 0"/>
<feBlend mode="normal" in2="effect1_dropShadow_1_448" result="effect2_dropShadow_1_448"/>
<feBlend mode="normal" in="SourceGraphic" in2="effect2_dropShadow_1_448" result="shape"/>
<feColorMatrix in="SourceAlpha" type="matrix" values="0 0 0 0 0 0 0 0 0 0 0 0 0 0 0 0 0 0 127 0" result="hardAlpha"/>
<feOffset/>
<feGaussianBlur stdDeviation="2"/>
<feComposite in2="hardAlpha" operator="arithmetic" k2="-1" k3="1"/>
<feColorMatrix type="matrix" values="0 0 0 0 1 0 0 0 0 1 0 0 0 0 1 0 0 0 0.1 0"/>
<feBlend mode="normal" in2="shape" result="effect3_innerShadow_1_448"/>
</filter>
<filter id="filter4_f_1_448" x="-33.6357" y="48.3887" width="195.678" height="202.957" filterUnits="userSpaceOnUse" color-interpolation-filters="sRGB">
<feFlood flood-opacity="0" result="BackgroundImageFix"/>
<feBlend mode="normal" in="SourceGraphic" in2="BackgroundImageFix" result="shape"/>
<feGaussianBlur stdDeviation="38" result="effect1_foregroundBlur_1_448"/>
</filter>
<radialGradient id="paint0_radial_1_448" cx="0" cy="0" r="1" gradientUnits="userSpaceOnUse" gradientTransform="translate(136.999 130.303) rotate(62.1877) scale(271.088 288.188)">
<stop stop-color="#1B1B1B" stop-opacity="0"/>
<stop offset="0.555278" stop-color="#1B1B1B"/>
</radialGradient>
<radialGradient id="paint1_radial_1_448" cx="0" cy="0" r="1" gradientUnits="userSpaceOnUse" gradientTransform="translate(-21.7873 58.4172) rotate(45) scale(133.191 190.507)">
<stop stop-color="#24FF95"/>
<stop offset="1" stop-color="#24FF95" stop-opacity="0"/>
</radialGradient>
<radialGradient id="paint2_radial_1_448" cx="0" cy="0" r="1" gradientUnits="userSpaceOnUse" gradientTransform="translate(-70.0147 -86.7201) rotate(54.0734) scale(475.332 330.983)">
<stop stop-color="#121212"/>
<stop offset="1" stop-color="#1B1B1B" stop-opacity="0"/>
</radialGradient>
<radialGradient id="paint3_radial_1_448" cx="0" cy="0" r="1" gradientUnits="userSpaceOnUse" gradientTransform="translate(nan nan) rotate(nan) scale(nan nan)">
<stop stop-color="#272729"/>
<stop offset="1" stop-color="#272729" stop-opacity="0"/>
</radialGradient>
<linearGradient id="paint4_linear_1_448" x1="124.26" y1="285.45" x2="124.26" y2="306.379" gradientUnits="userSpaceOnUse">
<stop stop-color="white"/>
<stop offset="1" stop-color="#BABABA"/>
</linearGradient>
<linearGradient id="paint5_linear_1_448" x1="98.7817" y1="141.678" x2="105.606" y2="188.085" gradientUnits="userSpaceOnUse">
<stop stop-color="#1B1B1C"/>
<stop offset="1" stop-color="#131313"/>
</linearGradient>
<radialGradient id="paint6_radial_1_448" cx="0" cy="0" r="1" gradientUnits="userSpaceOnUse" gradientTransform="translate(24.6198 135.763) rotate(16.3427) scale(63.0604 70.2307)">
<stop stop-color="#24FF95"/>
<stop offset="1" stop-color="#24FF95" stop-opacity="0"/>
</radialGradient>
<radialGradient id="paint7_radial_1_448" cx="0" cy="0" r="1" gradientUnits="userSpaceOnUse" gradientTransform="translate(57.9926 147.744) rotate(8.63421) scale(46.0656 29.9403)">
<stop stop-color="#A8FFD5"/>
<stop offset="1" stop-color="#BDFFDF" stop-opacity="0"/>
</radialGradient>
<linearGradient id="paint8_linear_1_448" x1="98.7815" y1="146.955" x2="98.7815" y2="169.886" gradientUnits="userSpaceOnUse">
<stop stop-color="#1F1F21"/>
<stop offset="1" stop-color="#202022"/>
</linearGradient>
<radialGradient id="paint9_radial_1_448" cx="0" cy="0" r="1" gradientUnits="userSpaceOnUse" gradientTransform="translate(76.9424 149.139) rotate(17.9277) scale(19.5106 23.6828)">
<stop stop-color="#24FF95"/>
<stop offset="1" stop-color="#24FF95" stop-opacity="0"/>
</radialGradient>
<radialGradient id="paint10_radial_1_448" cx="0" cy="0" r="1" gradientUnits="userSpaceOnUse" gradientTransform="translate(79.9452 150.777) rotate(10.3047) scale(18.3126 14.1134)">
<stop stop-color="#A8FFD5"/>
<stop offset="1" stop-color="#BDFFDF" stop-opacity="0"/>
</radialGradient>
<radialGradient id="paint11_radial_1_448" cx="0" cy="0" r="1" gradientUnits="userSpaceOnUse" gradientTransform="translate(97.3901 137.128) rotate(94.0655) scale(18.8835 13.7018)">
<stop stop-color="white" stop-opacity="0.48"/>
<stop offset="1" stop-color="white" stop-opacity="0.04"/>
</radialGradient>
<linearGradient id="paint12_linear_1_448" x1="98.7814" y1="146.955" x2="98.7814" y2="160.059" gradientUnits="userSpaceOnUse">
<stop stop-color="white"/>
<stop offset="1" stop-color="#BABABA"/>
</linearGradient>
<linearGradient id="paint13_linear_1_448" x1="177.037" y1="146.955" x2="177.037" y2="169.886" gradientUnits="userSpaceOnUse">
<stop stop-color="#1F1F21"/>
<stop offset="1" stop-color="#202022"/>
</linearGradient>
<radialGradient id="paint14_radial_1_448" cx="0" cy="0" r="1" gradientUnits="userSpaceOnUse" gradientTransform="translate(175.646 137.128) rotate(94.0655) scale(18.8835 13.7018)">
<stop stop-color="white" stop-opacity="0.48"/>
<stop offset="1" stop-color="white" stop-opacity="0.04"/>
</radialGradient>
<linearGradient id="paint15_linear_1_448" x1="177.037" y1="147.137" x2="177.037" y2="159.877" gradientUnits="userSpaceOnUse">
<stop stop-color="white"/>
<stop offset="1" stop-color="#BABABA"/>
</linearGradient>
</defs>
</svg>
