<svg width="30" height="30" viewBox="0 0 30 30" fill="none" xmlns="http://www.w3.org/2000/svg">
<g clip-path="url(#clip0_2138_3149)">
<path d="M9.99037 28.7841C9.9909 28.9517 10.0259 29.1174 10.0933 29.2709C10.1607 29.4244 10.259 29.5623 10.382 29.6761C10.5051 29.7898 10.6502 29.877 10.8085 29.9321C10.9667 29.9873 11.1346 30.0091 11.3016 29.9964C17.6519 29.5418 23.6496 25.0477 25.5643 18.0284C25.665 17.6247 25.9679 17.4222 26.3714 17.4222C26.5783 17.4306 26.7736 17.5201 26.9149 17.6715C27.0563 17.8228 27.1323 18.0238 27.1265 18.2309C27.1265 19.796 25.1146 23.8864 22.2377 26.2601C22.0911 26.3834 21.9742 26.5383 21.8958 26.7131C21.8172 26.888 21.7792 27.0783 21.7845 27.2699C21.7874 27.4257 21.8211 27.5794 21.8835 27.7221C21.9459 27.8649 22.0358 27.9939 22.1482 28.1018C22.2606 28.2097 22.3931 28.2943 22.5382 28.3509C22.6834 28.4075 22.8383 28.4347 22.994 28.4313C23.246 28.4313 23.6495 28.2798 24.1537 27.8252C26.1656 26.0067 29.9999 20.9065 29.9999 15.3007C29.9999 7.08206 23.646 0 14.7786 0C6.86613 0 0.0117188 6.46407 0.0117188 13.9381C0.0117188 18.8867 3.94306 22.6231 9.13356 22.6231C13.1158 22.6231 16.7951 19.796 17.8034 15.9068C17.904 15.5031 18.2058 15.3007 18.6093 15.3007C18.8163 15.309 19.0117 15.3986 19.1532 15.5499C19.2947 15.7012 19.371 15.9021 19.3656 16.1093C19.3656 17.8769 16.0389 24.0414 9.28509 24.0414C7.67206 24.0414 5.65668 23.5868 4.24482 22.7782C4.05583 22.6866 3.84995 22.635 3.64013 22.6267C3.47942 22.6205 3.31919 22.6477 3.16949 22.7064C3.01978 22.7652 2.8839 22.8543 2.77032 22.9682C2.65673 23.082 2.56791 23.2182 2.50944 23.368C2.45097 23.5179 2.42415 23.6782 2.43062 23.839C2.43715 24.0449 2.49615 24.2457 2.60197 24.4225C2.70779 24.5992 2.85696 24.7459 3.03537 24.8489C4.90046 25.9144 7.11818 26.4648 9.38568 26.4648C15.0306 26.4648 20.1715 22.6267 21.6839 16.9712C21.7845 16.5675 22.0875 16.365 22.4898 16.365C22.6968 16.3734 22.8922 16.4628 23.0337 16.6142C23.1752 16.7655 23.2515 16.9665 23.246 17.1736C23.246 19.4964 19.1135 26.9704 11.1502 27.5765C10.8421 27.5994 10.5532 27.7353 10.3392 27.9582C10.1251 28.1811 10.0009 28.4752 9.99037 28.7841Z" fill="#4B4B4C"/>
<path d="M17.8833 9.44394C18.9702 9.43588 20.0372 9.73634 20.9602 10.3106C21.0535 9.79981 21.1049 9.28235 21.114 8.76324C21.114 6.36581 19.2868 4.21826 17.062 4.21826C15.3318 4.21826 14.2501 5.65194 14.2501 7.42303C14.2419 8.37984 14.578 9.30765 15.1969 10.0371C16.0355 9.63711 16.9543 9.43423 17.8833 9.44394Z" fill="#79797A"/>
<path d="M23.0959 18.129C23.4047 17.0729 23.5408 16.3401 23.5408 15.8642C23.5314 15.6587 23.4433 15.4646 23.2948 15.3222C23.1464 15.1798 22.9489 15.1001 22.7432 15.0994C22.5516 15.103 22.3667 15.1705 22.2179 15.2912C22.069 15.412 21.9649 15.5791 21.9219 15.7659C21.8379 16.1128 21.658 17.0528 21.4805 17.6495C21.5538 17.4261 21.6209 17.1992 21.6816 16.9687C21.7822 16.5639 22.0852 16.3626 22.4876 16.3626C22.6944 16.3706 22.8898 16.4599 23.0313 16.611C23.1729 16.7621 23.2492 16.963 23.2438 17.17C23.2343 17.4954 23.1821 17.8183 23.0887 18.1301L23.0959 18.129Z" fill="#2C2C2D"/>
<path d="M27.3776 17.0258C27.3679 16.8206 27.2799 16.6269 27.1318 16.4846C26.9836 16.3423 26.7865 16.2623 26.5812 16.261C26.3898 16.2648 26.2051 16.3325 26.0565 16.4532C25.908 16.574 25.804 16.7409 25.761 16.9275C25.6758 17.2827 25.4924 18.2369 25.3125 18.8324H25.3208C25.4084 18.5672 25.49 18.2985 25.5575 18.025C25.6581 17.6201 25.961 17.4188 26.3646 17.4188C26.5714 17.4268 26.7666 17.5161 26.908 17.6673C27.0494 17.8185 27.1254 18.0193 27.1196 18.2262C27.1138 18.4776 27.0793 18.7275 27.0166 18.9709C27.2675 18.0901 27.3776 17.4531 27.3776 17.0258Z" fill="#2C2C2D"/>
<path d="M17.8801 9.44403C18.4203 9.44298 18.9581 9.51503 19.4789 9.65833C19.7523 9.28533 19.889 8.82946 19.8658 8.36741C19.8427 7.90541 19.6612 7.46548 19.3518 7.12166C19.0424 6.77784 18.6241 6.55114 18.1673 6.47973C17.7104 6.40826 17.2429 6.49644 16.8434 6.72938L17.6718 8.09323L16.1204 7.42195C15.9102 7.76118 15.8048 8.15494 15.8174 8.55381C15.8301 8.95275 15.9601 9.33904 16.1914 9.66427C16.7419 9.5158 17.3099 9.44174 17.8801 9.44403Z" fill="#2C2C2D"/>
<path d="M5.92954 18.2215C6.58312 18.2215 7.11294 17.6915 7.11294 17.0377C7.11294 16.3838 6.58312 15.8538 5.92954 15.8538C5.27591 15.8538 4.74609 16.3838 4.74609 17.0377C4.74609 17.6915 5.27591 18.2215 5.92954 18.2215Z" fill="#2C2C2D"/>
<path d="M5.92954 13.4857C6.58312 13.4857 7.11294 12.9557 7.11294 12.3018C7.11294 11.648 6.58312 11.1179 5.92954 11.1179C5.27591 11.1179 4.74609 11.648 4.74609 12.3018C4.74609 12.9557 5.27591 13.4857 5.92954 13.4857Z" fill="#2C2C2D"/>
<path d="M3.56236 15.8536C4.21593 15.8536 4.74581 15.3236 4.74581 14.6697C4.74581 14.0159 4.21593 13.4858 3.56236 13.4858C2.90878 13.4858 2.37891 14.0159 2.37891 14.6697C2.37891 15.3236 2.90878 15.8536 3.56236 15.8536Z" fill="#2C2C2D"/>
<path d="M8.88755 22.6207H9.12426C13.1065 22.6207 16.7858 19.7936 17.7941 15.9045C17.8947 15.5007 18.1965 15.2983 18.6 15.2983C18.807 15.3066 19.0024 15.3961 19.1439 15.5475C19.2854 15.6988 19.3617 15.8997 19.3562 16.1069C19.3381 16.5201 19.2447 16.9266 19.0805 17.3062C19.109 17.2621 19.134 17.2158 19.155 17.1677C19.4545 16.483 19.6092 15.7437 19.6095 14.9964C19.6095 13.835 18.8024 13.0773 17.6438 13.0773C15.6237 13.0773 15.2189 14.8413 14.3669 16.7273C13.4828 18.6854 11.8592 20.8034 7.76452 20.8034C3.51006 20.8034 -0.861514 17.8235 0.204762 11.7643C0.217761 11.6886 0.228407 11.6211 0.236701 11.5583C0.0804687 12.3412 0.00117645 13.1374 0 13.9356C0.0118233 18.8133 3.82129 22.507 8.88755 22.6207Z" fill="#2C2C2D"/>
</g>
<defs>
<clipPath id="clip0_2138_3149">
<rect width="30" height="30" fill="white"/>
</clipPath>
</defs>
</svg>
