<svg width="30" height="30" viewBox="0 0 30 30" fill="none" xmlns="http://www.w3.org/2000/svg">
<g clip-path="url(#clip0_2138_3105)">
<path fill-rule="evenodd" clip-rule="evenodd" d="M5.90164 0H24.0984C27.3577 0 30 2.64225 30 5.90164V24.0984C30 27.3577 27.3577 30 24.0984 30H5.90164C2.64225 30 0 27.3577 0 24.0984V5.90164C0 2.64225 2.64225 0 5.90164 0ZM14.0714 9.13568C14.3682 8.7388 14.9993 8.9487 14.9993 9.44424V16.5168H9.58067C9.15639 16.5168 8.91393 16.0327 9.16799 15.6929L14.0714 9.13568ZM15.9287 20.6012C15.6317 20.9981 15 20.7882 15 20.2927V13.2202H20.4234C20.848 13.2202 21.0907 13.7042 20.8363 14.044L15.9287 20.6012Z" fill="#4B4B4C"/>
</g>
<defs>
<clipPath id="clip0_2138_3105">
<rect width="30" height="30" fill="white"/>
</clipPath>
</defs>
</svg>
