<svg width="34" height="30" viewBox="0 0 34 30" fill="none" xmlns="http://www.w3.org/2000/svg">
<g clip-path="url(#clip0_2138_3111)">
<path fill-rule="evenodd" clip-rule="evenodd" d="M32.8561 13.5585C33.2434 14.2291 33.2434 15.0554 32.8561 15.7261L25.6534 28.2008C25.2661 28.8714 24.5505 29.2846 23.776 29.2846H9.37056C8.59609 29.2846 7.88044 28.8714 7.49313 28.2008L0.290482 15.7261C-0.0968273 15.0554 -0.0968273 14.2291 0.290482 13.5585L7.49313 1.08381C7.88044 0.413149 8.59609 0 9.37056 0H23.776C24.5505 0 25.2661 0.413149 25.6534 1.08381L32.8561 13.5585ZM26.4983 9.3054C26.7879 9.23633 27.0321 9.52737 26.9137 9.80049L24.9262 14.3853C24.8194 14.6318 24.4906 14.6797 24.3179 14.4739L23.5796 13.594L18.9748 17.6203C18.5256 18.013 17.8436 17.969 17.4488 17.5219L14.3969 14.0656L10.8868 17.121C10.9299 17.2974 10.9527 17.4818 10.9527 17.6716C10.9527 18.9484 9.91753 19.9837 8.64042 19.9837C7.36345 19.9837 6.32812 18.9484 6.32812 17.6716C6.32812 16.3945 7.36345 15.3594 8.64042 15.3594C8.92309 15.3594 9.19392 15.41 9.44423 15.5029L13.7854 11.724C14.2346 11.333 14.9153 11.3777 15.3095 11.8242L18.3598 15.2785L22.1858 11.9331L21.4449 11.0501C21.2722 10.8444 21.3764 10.5288 21.6377 10.4665L26.4983 9.3054Z" fill="#4B4B4C"/>
</g>
<defs>
<clipPath id="clip0_2138_3111">
<rect width="33.15" height="30" fill="white"/>
</clipPath>
</defs>
</svg>
