<!-- <svg xmlns="http://www.w3.org/2000/svg" width="591" height="562" viewBox="0 0 591 562" fill="none">
<path opacity="0.1" d="M539.754 625.189L538.883 625.185L539.319 625.939L831.02 1131.06C870.48 1199.39 847.06 1286.77 778.714 1326.22C710.369 1365.67 622.971 1342.26 583.511 1273.92L302.77 787.795L302.337 787.046L301.904 787.795L18.415 1278.7C-21.046 1347.04 -108.443 1370.45 -176.791 1331C-245.14 1291.54 -268.557 1204.17 -229.097 1135.84L66.574 623.841L67.0049 623.095L66.1429 623.091L-517.953 620.504C-596.873 620.155 -660.568 555.908 -660.219 477.006C-659.869 398.099 -595.607 334.428 -516.686 334.771L41.72 337.246L42.5909 337.25L42.155 336.496L-229.097 -133.212C-268.558 -201.549 -245.14 -288.917 -176.791 -328.377C-108.443 -367.827 -21.047 -344.416 18.415 -276.078L301.904 214.829L302.337 215.578L302.77 214.829L583.511 -271.299C622.971 -339.637 710.369 -363.048 778.714 -323.598C847.06 -284.138 870.48 -196.77 831.02 -128.433L561.202 338.8L560.771 339.546L561.633 339.55L1108.51 341.977C1187.43 342.32 1251.12 406.569 1250.78 485.471C1250.43 564.374 1186.16 628.054 1107.24 627.704L539.754 625.189Z" stroke="url(#paint0_radial_1_668)" stroke-opacity="0.6"/>
<defs>
<radialGradient id="paint0_radial_1_668" cx="0" cy="0" r="1" gradientUnits="userSpaceOnUse" gradientTransform="translate(854.47 719.413) rotate(-32.8557) scale(658.806 585.311)">
<stop offset="0.105218" stop-color="red"/>
<stop offset="0.312923" stop-color="red" stop-opacity="0.0103403"/>
<stop offset="1" stop-color="red" stop-opacity="0"/>
</radialGradient>
</defs>
</svg> -->
<svg width="1024" height="568" viewBox="0 0 1024 568" fill="none" xmlns="http://www.w3.org/2000/svg"><g clip-path="url(#clip0_201_5003)"><path d="M756.474 631.189L755.603 631.185L756.039 631.939L1047.74 1137.06C1087.2 1205.39 1063.78 1292.77 995.434 1332.22C927.089 1371.67 839.691 1348.26 800.231 1279.92L519.49 793.795L519.057 793.046L518.624 793.795L235.135 1284.7C195.674 1353.04 108.277 1376.45 39.9286 1337C-28.4199 1297.54 -51.8374 1210.17 -12.3769 1141.84L283.294 629.841L283.725 629.095L282.863 629.091L-301.233 626.504C-380.153 626.155 -443.848 561.908 -443.499 483.006C-443.149 404.099 -378.887 340.428 -299.966 340.771L258.44 343.246L259.311 343.25L258.875 342.496L-12.3769 -127.212C-51.8375 -195.549 -28.42 -282.917 39.9286 -322.377C108.277 -361.827 195.673 -338.416 235.135 -270.078L518.624 220.829L519.057 221.578L519.49 220.829L800.231 -265.299C839.691 -333.637 927.089 -357.048 995.434 -317.598C1063.78 -278.138 1087.2 -190.77 1047.74 -122.433L777.922 344.8L777.491 345.546L778.353 345.55L1325.23 347.977C1404.15 348.32 1467.84 412.569 1467.5 491.471C1467.15 570.374 1402.88 634.054 1323.96 633.704L756.474 631.189Z" stroke="url(#paint0_linear_201_5003)" stroke-opacity="0.2"></path><path d="M756.474 631.189L755.603 631.185L756.039 631.939L1047.74 1137.06C1087.2 1205.39 1063.78 1292.77 995.434 1332.22C927.089 1371.67 839.691 1348.26 800.231 1279.92L519.49 793.795L519.057 793.046L518.624 793.795L235.135 1284.7C195.674 1353.04 108.277 1376.45 39.9286 1337C-28.4199 1297.54 -51.8374 1210.17 -12.3769 1141.84L283.294 629.841L283.725 629.095L282.863 629.091L-301.233 626.504C-380.153 626.155 -443.848 561.908 -443.499 483.006C-443.149 404.099 -378.887 340.428 -299.966 340.771L258.44 343.246L259.311 343.25L258.875 342.496L-12.3769 -127.212C-51.8375 -195.549 -28.42 -282.917 39.9286 -322.377C108.277 -361.827 195.673 -338.416 235.135 -270.078L518.624 220.829L519.057 221.578L519.49 220.829L800.231 -265.299C839.691 -333.637 927.089 -357.048 995.434 -317.598C1063.78 -278.138 1087.2 -190.77 1047.74 -122.433L777.922 344.8L777.491 345.546L778.353 345.55L1325.23 347.977C1404.15 348.32 1467.84 412.569 1467.5 491.471C1467.15 570.374 1402.88 634.054 1323.96 633.704L756.474 631.189Z" stroke="url(#paint1_angular_201_5003)" stroke-opacity="0.6"></path></g><defs><linearGradient id="paint0_linear_201_5003" x1="457.234" y1="-899.307" x2="446.665" y2="884.906" gradientUnits="userSpaceOnUse"><stop stop-color="white"></stop><stop offset="1" stop-color="white" stop-opacity="0"></stop></linearGradient><radialGradient id="paint1_angular_201_5003" cx="0" cy="0" r="1" gradientUnits="userSpaceOnUse" gradientTransform="translate(1071.19 725.413) rotate(-32.8557) scale(658.806 585.311)"><stop offset="0.105218" stop-color="white"></stop><stop offset="0.312923" stop-color="white" stop-opacity="0.0103403"></stop><stop offset="1" stop-color="white" stop-opacity="0"></stop></radialGradient><clipPath id="clip0_201_5003"><rect width="1024" height="870" fill="white" transform="translate(0 -302)"></rect></clipPath></defs></svg>