<svg xmlns="http://www.w3.org/2000/svg" width="591" height="562" viewBox="0 0 591 562" fill="none">
  <path opacity="0.1" d="M539.754 625.189L538.883 625.185L539.319 625.939L831.02 1131.06C870.48 1199.39 847.06 1286.77 778.714 1326.22C710.369 1365.67 622.971 1342.26 583.511 1273.92L302.77 787.795L302.337 787.046L301.904 787.795L18.415 1278.7C-21.046 1347.04 -108.443 1370.45 -176.791 1331C-245.14 1291.54 -268.557 1204.17 -229.097 1135.84L66.574 623.841L67.0049 623.095L66.1429 623.091L-517.953 620.504C-596.873 620.155 -660.568 555.908 -660.219 477.006C-659.869 398.099 -595.607 334.428 -516.686 334.771L41.72 337.246L42.5909 337.25L42.155 336.496L-229.097 -133.212C-268.558 -201.549 -245.14 -288.917 -176.791 -328.377C-108.443 -367.827 -21.047 -344.416 18.415 -276.078L301.904 214.829L302.337 215.578L302.77 214.829L583.511 -271.299C622.971 -339.637 710.369 -363.048 778.714 -323.598C847.06 -284.138 870.48 -196.77 831.02 -128.433L561.202 338.8L560.771 339.546L561.633 339.55L1108.51 341.977C1187.43 342.32 1251.12 406.569 1250.78 485.471C1250.43 564.374 1186.16 628.054 1107.24 627.704L539.754 625.189Z" stroke="url(#paint0_radial_1_668)" stroke-opacity="0.6"/>
  <defs>
    <radialGradient id="paint0_radial_1_668" cx="0" cy="0" r="1" gradientUnits="userSpaceOnUse" gradientTransform="translate(854.47 719.413) rotate(-32.8557) scale(658.806 585.311)">
      <stop offset="0.105218" stop-color="white"/>
      <stop offset="0.312923" stop-color="white" stop-opacity="0.0103403"/>
      <stop offset="1" stop-color="white" stop-opacity="0"/>
    </radialGradient>
  </defs>
</svg>