<svg xmlns="http://www.w3.org/2000/svg" width="111" height="20" viewBox="0 0 111 20" fill="none">
  <path d="M45.0544 7.27413L42.4255 7.73976C42.3155 7.40346 42.1409 7.08335 41.9016 6.77939C41.6688 6.47543 41.3519 6.22645 40.9509 6.03244C40.55 5.83842 40.0488 5.74141 39.4473 5.74141C38.6261 5.74141 37.9405 5.92573 37.3908 6.29435C36.8411 6.65652 36.5663 7.12538 36.5663 7.70096C36.5663 8.19892 36.7506 8.59988 37.1192 8.90383C37.4878 9.20778 38.0827 9.45677 38.9041 9.65079L41.271 10.1941C42.6421 10.5109 43.6639 10.9991 44.3365 11.6588C45.0091 12.3184 45.3454 13.1753 45.3454 14.2295C45.3454 15.122 45.0866 15.9174 44.5693 16.6158C44.0584 17.3078 43.3438 17.851 42.4255 18.2456C41.5136 18.6401 40.4562 18.8373 39.2534 18.8373C37.5848 18.8373 36.2235 18.4817 35.1694 17.7703C34.1152 17.0524 33.4685 16.0339 33.2292 14.7145L36.0327 14.2877C36.2073 15.0184 36.5663 15.5714 37.1095 15.9465C37.6527 16.3151 38.3609 16.4994 39.234 16.4994C40.1846 16.4994 40.9445 16.3023 41.5136 15.9077C42.0827 15.5067 42.3672 15.0184 42.3672 14.4429C42.3672 13.9773 42.1926 13.5861 41.8434 13.2692C41.5007 12.9522 40.9736 12.713 40.2622 12.5513L37.74 11.9984C36.3496 11.6815 35.3214 11.177 34.6552 10.4851C33.9956 9.79308 33.6658 8.91677 33.6658 7.85616C33.6658 6.97663 33.9115 6.20705 34.403 5.5474C34.8946 4.88776 35.5736 4.37362 36.4401 4.005C37.3067 3.6299 38.2994 3.44236 39.4183 3.44236C41.0286 3.44236 42.2961 3.79158 43.2209 4.49003C44.1457 5.18201 44.7569 6.11004 45.0544 7.27413ZM54.2644 18.8373C52.8223 18.8373 51.5806 18.5107 50.5394 17.8576C49.5046 17.1979 48.7092 16.2893 48.153 15.1316C47.5969 13.9741 47.3187 12.6483 47.3187 11.1544C47.3187 9.64108 47.6033 8.30563 48.1724 7.14801C48.7416 5.98393 49.5434 5.07531 50.5782 4.42213C51.6129 3.76895 52.832 3.44236 54.2353 3.44236C55.367 3.44236 56.3759 3.65254 57.262 4.07291C58.1479 4.4868 58.8625 5.06884 59.4058 5.81902C59.9555 6.56921 60.2821 7.4455 60.3856 8.4479H57.5626C57.4074 7.74945 57.0517 7.14801 56.4956 6.64358C55.9459 6.13914 55.2086 5.88693 54.2838 5.88693C53.4754 5.88693 52.7673 6.10034 52.1594 6.52717C51.558 6.94753 51.0891 7.54897 50.7528 8.33149C50.4165 9.10755 50.2484 10.0259 50.2484 11.0864C50.2484 12.173 50.4133 13.1106 50.7431 13.8997C51.0729 14.6887 51.5386 15.2998 52.14 15.7331C52.7479 16.1664 53.4626 16.383 54.2838 16.383C54.8336 16.383 55.3315 16.2828 55.7778 16.0823C56.2305 15.8754 56.6088 15.5811 56.9127 15.1995C57.2231 14.818 57.4398 14.3588 57.5626 13.8221H60.3856C60.2821 14.7857 59.9684 15.6458 59.4446 16.4024C58.9208 17.1591 58.219 17.7541 57.3395 18.1873C56.4665 18.6207 55.4415 18.8373 54.2644 18.8373ZM69.2174 18.8373C67.8204 18.8373 66.6014 18.5172 65.5602 17.877C64.5189 17.2367 63.7105 16.341 63.135 15.1899C62.5594 14.0387 62.2716 12.6936 62.2716 11.1544C62.2716 9.60875 62.5594 8.25712 63.135 7.09951C63.7105 5.94189 64.5189 5.04297 65.5602 4.40272C66.6014 3.76248 67.8204 3.44236 69.2174 3.44236C70.6143 3.44236 71.8333 3.76248 72.8745 4.40272C73.9157 5.04297 74.7241 5.94189 75.2996 7.09951C75.8752 8.25712 76.163 9.60875 76.163 11.1544C76.163 12.6936 75.8752 14.0387 75.2996 15.1899C74.7241 16.341 73.9157 17.2367 72.8745 17.877C71.8333 18.5172 70.6143 18.8373 69.2174 18.8373ZM69.227 16.4024C70.1324 16.4024 70.8826 16.1631 71.4776 15.6846C72.0726 15.2061 72.5123 14.569 72.7969 13.7736C73.0879 12.9782 73.2334 12.1019 73.2334 11.1447C73.2334 10.1941 73.0879 9.32097 72.7969 8.52551C72.5123 7.72359 72.0726 7.08011 71.4776 6.59507C70.8826 6.11004 70.1324 5.86752 69.227 5.86752C68.3151 5.86752 67.5585 6.11004 66.9571 6.59507C66.3621 7.08011 65.9191 7.72359 65.6281 8.52551C65.3435 9.32097 65.2013 10.1941 65.2013 11.1447C65.2013 12.1019 65.3435 12.9782 65.6281 13.7736C65.9191 14.569 66.3621 15.2061 66.9571 15.6846C67.5585 16.1631 68.3151 16.4024 69.227 16.4024ZM88.293 12.3573V3.63637H91.2032V18.5366H88.3512V15.9562H88.196C87.8533 16.7517 87.3035 17.4145 86.5469 17.9449C85.7967 18.4687 84.8623 18.7306 83.7434 18.7306C82.7863 18.7306 81.939 18.5204 81.2019 18.1001C80.471 17.6733 79.8954 17.0427 79.4751 16.2084C79.0612 15.3742 78.8543 14.3426 78.8543 13.114V3.63637H81.7547V12.7647C81.7547 13.78 82.0361 14.5884 82.5987 15.1899C83.1614 15.7913 83.8921 16.092 84.791 16.092C85.3344 16.092 85.8744 15.9562 86.4111 15.6846C86.9543 15.413 87.4038 15.0024 87.7595 14.4526C88.1217 13.9029 88.2995 13.2045 88.293 12.3573ZM101.509 3.63637V5.96454H93.3706V3.63637H101.509ZM95.5533 0.0665283H98.4538V14.1616C98.4538 14.7242 98.5379 15.1478 98.706 15.4324C98.8742 15.7104 99.0907 15.9013 99.3559 16.0047C99.6275 16.1018 99.9218 16.1503 100.239 16.1503C100.472 16.1503 100.675 16.1341 100.85 16.1018C101.024 16.0694 101.16 16.0435 101.257 16.0241L101.781 18.4202C101.613 18.4849 101.374 18.5496 101.063 18.6142C100.753 18.6854 100.365 18.7241 99.8991 18.7306C99.136 18.7435 98.4247 18.6077 97.765 18.3231C97.1054 18.0386 96.5718 17.5988 96.1644 17.0039C95.757 16.4089 95.5533 15.662 95.5533 14.763V0.0665283Z" fill="white"/>
  <path fill-rule="evenodd" clip-rule="evenodd" d="M16.7689 19.9088C15.9607 19.9052 15.3084 19.247 15.312 18.4388L15.3376 12.6476L10.1816 15.6244C9.48171 16.0286 8.5867 15.7887 8.18259 15.0888C7.77847 14.3889 8.01829 13.4939 8.71823 13.0898L13.6804 10.2248L8.66945 7.33176C7.96951 6.92765 7.72969 6.03264 8.1338 5.3327C8.53792 4.63276 9.43293 4.39294 10.1329 4.79705L15.3591 7.81439L15.3855 1.85365C15.389 1.04545 16.0471 0.393162 16.8553 0.396743C17.6636 0.400324 18.3158 1.05842 18.3123 1.86663L18.287 7.5652L23.0816 4.79705C23.7816 4.39294 24.6765 4.63276 25.0807 5.3327C25.4848 6.03264 25.245 6.92765 24.545 7.33176L19.534 10.2248L24.4962 13.0898C25.1962 13.4939 25.436 14.3889 25.0319 15.0888C24.6277 15.7887 23.7328 16.0286 23.0328 15.6244L18.2635 12.8709L18.2387 18.4518C18.2352 19.26 17.5771 19.9123 16.7689 19.9088Z" fill="white"/>
</svg>