<svg xmlns="http://www.w3.org/2000/svg" width="63" height="12" viewBox="0 0 63 12" fill="none">
<g clip-path="url(#clip0_1_1700)">
<path d="M25.6125 4.09994L24.1308 4.36239C24.0688 4.17284 23.9703 3.99241 23.8355 3.82109C23.7043 3.64977 23.5257 3.50943 23.2997 3.40008C23.0736 3.29072 22.7912 3.23605 22.4522 3.23605C21.9893 3.23605 21.6029 3.33993 21.2931 3.5477C20.9832 3.75183 20.8283 4.0161 20.8283 4.34052C20.8283 4.62119 20.9322 4.84718 21.14 5.0185C21.3477 5.18982 21.683 5.33016 22.146 5.43951L23.4801 5.74572C24.2528 5.92432 24.8288 6.19949 25.2079 6.57132C25.587 6.9431 25.7765 7.42607 25.7765 8.02023C25.7765 8.52326 25.6307 8.97159 25.3391 9.36525C25.0511 9.75529 24.6484 10.0615 24.1308 10.2838C23.6168 10.5062 23.0208 10.6174 22.3428 10.6174C21.4024 10.6174 20.6351 10.4169 20.041 10.0159C19.4468 9.61133 19.0823 9.03725 18.9474 8.29363L20.5275 8.05305C20.626 8.46492 20.8283 8.7766 21.1345 8.98803C21.4406 9.19578 21.8398 9.29965 22.3319 9.29965C22.8677 9.29965 23.296 9.18852 23.6168 8.96615C23.9376 8.74014 24.0979 8.46492 24.0979 8.14054C24.0979 7.87808 23.9995 7.65757 23.8027 7.47897C23.6095 7.30031 23.3124 7.16548 22.9114 7.07436L21.4899 6.76268C20.7062 6.58408 20.1266 6.29973 19.7512 5.90975C19.3794 5.51971 19.1935 5.02579 19.1935 4.428C19.1935 3.93226 19.332 3.4985 19.609 3.1267C19.886 2.75489 20.2688 2.46511 20.7572 2.25734C21.2456 2.04592 21.8052 1.94022 22.4358 1.94022C23.3434 1.94022 24.0578 2.13705 24.5791 2.53072C25.1003 2.92075 25.4448 3.44382 25.6125 4.09994ZM30.8036 10.6174C29.9908 10.6174 29.2909 10.4333 28.7041 10.0652C28.1208 9.69332 27.6725 9.18121 27.359 8.52871C27.0455 7.87627 26.8888 7.12902 26.8888 6.28698C26.8888 5.43404 27.0492 4.68133 27.3699 4.02886C27.6907 3.37274 28.1427 2.86061 28.7259 2.49245C29.3091 2.12429 29.9963 1.94022 30.7872 1.94022C31.4251 1.94022 31.9937 2.05868 32.4931 2.29562C32.9925 2.5289 33.3953 2.85696 33.7015 3.27979C34.0113 3.70262 34.1954 4.19653 34.2537 4.76152H32.6626C32.5751 4.36785 32.3746 4.02886 32.0612 3.74454C31.7513 3.46022 31.3358 3.31806 30.8145 3.31806C30.3589 3.31806 29.9598 3.43835 29.6172 3.67893C29.2782 3.91586 29.0139 4.25485 28.8243 4.69591C28.6348 5.13332 28.54 5.65092 28.54 6.2487C28.54 6.86111 28.633 7.38961 28.8189 7.83436C29.0047 8.27906 29.2672 8.62351 29.6062 8.86772C29.9489 9.11192 30.3516 9.23405 30.8145 9.23405C31.1244 9.23405 31.4051 9.17758 31.6566 9.06458C31.9117 8.94794 32.125 8.78204 32.2963 8.56698C32.4713 8.35192 32.5934 8.09314 32.6626 7.79059H34.2537C34.1954 8.33372 34.0186 8.8185 33.7233 9.24499C33.4281 9.67149 33.0326 10.0068 32.5369 10.251C32.0448 10.4953 31.467 10.6174 30.8036 10.6174ZM39.2316 10.6174C38.4443 10.6174 37.7572 10.4369 37.1703 10.0761C36.5834 9.7152 36.1278 9.21035 35.8034 8.56154C35.479 7.91272 35.3168 7.15454 35.3168 6.28698C35.3168 5.41582 35.479 4.65399 35.8034 4.00152C36.1278 3.34904 36.5834 2.84238 37.1703 2.48151C37.7572 2.12065 38.4443 1.94022 39.2316 1.94022C40.019 1.94022 40.7061 2.12065 41.2929 2.48151C41.8798 2.84238 42.3354 3.34904 42.6598 4.00152C42.9842 4.65399 43.1465 5.41582 43.1465 6.28698C43.1465 7.15454 42.9842 7.91272 42.6598 8.56154C42.3354 9.21035 41.8798 9.7152 41.2929 10.0761C40.7061 10.4369 40.019 10.6174 39.2316 10.6174ZM39.2371 9.24499C39.7474 9.24499 40.1702 9.11011 40.5056 8.84039C40.8409 8.57067 41.0888 8.21159 41.2492 7.76326C41.4132 7.31494 41.4952 6.82103 41.4952 6.28153C41.4952 5.74572 41.4132 5.25361 41.2492 4.80527C41.0888 4.35327 40.8409 3.99058 40.5056 3.7172C40.1702 3.44382 39.7474 3.30713 39.2371 3.30713C38.7231 3.30713 38.2967 3.44382 37.9577 3.7172C37.6223 3.99058 37.3726 4.35327 37.2086 4.80527C37.0482 5.25361 36.968 5.74572 36.968 6.28153C36.968 6.82103 37.0482 7.31494 37.2086 7.76326C37.3726 8.21159 37.6223 8.57067 37.9577 8.84039C38.2967 9.11011 38.7231 9.24499 39.2371 9.24499ZM49.9833 6.96499V2.04957H51.6237V10.4479H50.0162V8.99347H49.9287C49.7355 9.44185 49.4257 9.81545 48.9992 10.1144C48.5763 10.4096 48.0497 10.5572 47.4191 10.5572C46.8796 10.5572 46.402 10.4387 45.9865 10.2019C45.5746 9.96128 45.2502 9.60589 45.0133 9.13562C44.78 8.66541 44.6633 8.08401 44.6633 7.39148V2.04957H46.2982V7.19462C46.2982 7.76689 46.4567 8.22253 46.7739 8.56154C47.091 8.90054 47.5029 9.07002 48.0095 9.07002C48.3158 9.07002 48.6201 8.99347 48.9227 8.84039C49.2288 8.6873 49.4822 8.45585 49.6827 8.14599C49.8868 7.83618 49.987 7.44251 49.9833 6.96499ZM57.4326 2.04957V3.36181H52.8453V2.04957H57.4326ZM54.0755 0.0374756H55.7103V7.98195C55.7103 8.29908 55.7577 8.53784 55.8525 8.69824C55.9473 8.85496 56.0694 8.96252 56.2188 9.0208C56.3719 9.07552 56.5378 9.10285 56.7164 9.10285C56.8476 9.10285 56.9624 9.09372 57.0609 9.07552C57.1593 9.05726 57.2358 9.04269 57.2905 9.03175L57.5857 10.3823C57.491 10.4187 57.3561 10.4552 57.1811 10.4916C57.0061 10.5317 56.7875 10.5536 56.525 10.5572C56.0949 10.5645 55.6939 10.488 55.3221 10.3276C54.9503 10.1672 54.6496 9.91932 54.42 9.584C54.1903 9.24862 54.0755 8.82763 54.0755 8.32096V0.0374756Z" fill="white"/>
<path fill-rule="evenodd" clip-rule="evenodd" d="M9.66971 11.2213C9.21417 11.2193 8.84652 10.8483 8.84854 10.3928L8.863 7.12865L5.9569 8.80647C5.56239 9.03429 5.05793 8.89907 4.83016 8.50458C4.60238 8.11009 4.73755 7.60562 5.13207 7.37786L7.92892 5.76305L5.10457 4.13244C4.71006 3.90466 4.57489 3.40021 4.80266 3.00569C5.03043 2.61118 5.53489 2.47601 5.92941 2.70378L8.87507 4.40446L8.88996 1.04478C8.89198 0.589245 9.2629 0.221592 9.71844 0.223611C10.174 0.225629 10.5416 0.596553 10.5396 1.05209L10.5254 4.26401L13.2278 2.70378C13.6223 2.47601 14.1267 2.61118 14.3545 3.00569C14.5823 3.40021 14.4471 3.90466 14.0526 4.13244L11.2283 5.76305L14.0251 7.37786C14.4196 7.60562 14.5548 8.11009 14.327 8.50458C14.0992 8.89907 13.5948 9.03429 13.2003 8.80647L10.5121 7.25452L10.4982 10.4001C10.4962 10.8556 10.1252 11.2233 9.66971 11.2213Z" fill="white"/>
</g>
<defs>
<clipPath id="clip0_1_1700">
<rect width="62" height="11.2727" fill="white" transform="translate(0.5)"/>
</clipPath>
</defs>
</svg>