<svg width="94" height="29" viewBox="0 0 94 29" fill="none" xmlns="http://www.w3.org/2000/svg">
<path d="M0.484375 14.2812C0.484375 6.54926 6.75239 0.28125 14.4844 0.28125H79.2044C86.9364 0.28125 93.2044 6.54926 93.2044 14.2812C93.2044 22.0132 86.9364 28.2812 79.2044 28.2812H14.4844C6.75239 28.2812 0.484375 22.0132 0.484375 14.2812Z" fill="white" fill-opacity="0.02"/>
<path d="M0.484375 14.2812C0.484375 6.54926 6.75239 0.28125 14.4844 0.28125H79.2044C86.9364 0.28125 93.2044 6.54926 93.2044 14.2812C93.2044 22.0132 86.9364 28.2812 79.2044 28.2812H14.4844C6.75239 28.2812 0.484375 22.0132 0.484375 14.2812Z" fill="url(#paint0_linear_1_1449)"/>
<path d="M0.984375 14.2812C0.984375 6.82541 7.02853 0.78125 14.4844 0.78125H79.2044C86.6602 0.78125 92.7044 6.82541 92.7044 14.2812C92.7044 21.7371 86.6602 27.7812 79.2044 27.7812H14.4844C7.02853 27.7812 0.984375 21.7371 0.984375 14.2812Z" stroke="white" stroke-opacity="0.06"/>
<path d="M36.2607 13.96L34.8452 9.84033L33.3408 13.96H36.2607ZM34.1851 8.45654H35.6133L38.9966 17.7812H37.6128L36.667 14.9883H32.979L31.9697 17.7812H30.6748L34.1851 8.45654ZM44.3756 16.7021C44.803 16.7021 45.1542 16.6577 45.4293 16.5688C45.9202 16.4038 46.3222 16.0864 46.6354 15.6167C46.885 15.2401 47.0649 14.7576 47.1749 14.1694C47.2384 13.8182 47.2701 13.4924 47.2701 13.1919C47.2701 12.0366 47.0395 11.1395 46.5782 10.5005C46.1212 9.86149 45.3827 9.54199 44.3629 9.54199H42.1222V16.7021H44.3756ZM40.8526 8.45654H44.6295C45.9117 8.45654 46.9062 8.91146 47.6129 9.82129C48.2434 10.6423 48.5587 11.6938 48.5587 12.9761C48.5587 13.9663 48.3725 14.8613 48.0001 15.6611C47.3442 17.0745 46.2164 17.7812 44.6168 17.7812H40.8526V8.45654ZM54.4201 16.7021C54.8475 16.7021 55.1988 16.6577 55.4738 16.5688C55.9647 16.4038 56.3667 16.0864 56.6799 15.6167C56.9296 15.2401 57.1094 14.7576 57.2194 14.1694C57.2829 13.8182 57.3146 13.4924 57.3146 13.1919C57.3146 12.0366 57.084 11.1395 56.6228 10.5005C56.1657 9.86149 55.4273 9.54199 54.4074 9.54199H52.1667V16.7021H54.4201ZM50.8972 8.45654H54.674C55.9562 8.45654 56.9507 8.91146 57.6574 9.82129C58.288 10.6423 58.6032 11.6938 58.6032 12.9761C58.6032 13.9663 58.417 14.8613 58.0446 15.6611C57.3887 17.0745 56.2609 17.7812 54.6613 17.7812H50.8972V8.45654ZM69.1771 8.20264C70.8233 8.20264 72.0421 8.73161 72.8334 9.78955C73.4512 10.6147 73.7602 11.6706 73.7602 12.957C73.7602 14.3493 73.4068 15.5067 72.7001 16.4292C71.8707 17.5125 70.6879 18.0542 69.1518 18.0542C67.7172 18.0542 66.5894 17.5802 65.7685 16.6323C65.0364 15.7183 64.6703 14.563 64.6703 13.1665C64.6703 11.9054 64.9835 10.8263 65.6098 9.9292C66.4138 8.77816 67.6029 8.20264 69.1771 8.20264ZM69.3041 16.9243C70.4171 16.9243 71.2211 16.5265 71.7162 15.731C72.2156 14.9312 72.4652 14.0129 72.4652 12.9761C72.4652 11.88 72.1775 10.9977 71.602 10.3291C71.0307 9.66048 70.2478 9.32617 69.2533 9.32617C68.2885 9.32617 67.5014 9.65837 66.892 10.3228C66.2826 10.9829 65.9779 11.9583 65.9779 13.249C65.9779 14.2816 66.2382 15.1533 66.7587 15.8643C67.2834 16.571 68.1319 16.9243 69.3041 16.9243ZM75.9209 8.45654H77.4126L82.1226 16.0103V8.45654H83.3223V17.7812H81.9067L77.127 10.2339V17.7812H75.9209V8.45654Z" fill="#CECECE"/>
<g clip-path="url(#clip0_1_1449)">
<path d="M23.5306 14.4392C23.6179 9.44309 19.6384 5.32226 14.6423 5.23505C9.64621 5.14784 5.52537 9.12729 5.43817 14.1234C5.35096 19.1195 9.3304 23.2403 14.3265 23.3275C19.3226 23.4147 23.4434 19.4353 23.5306 14.4392Z" fill="url(#paint1_linear_1_1449)"/>
<path d="M23.5306 14.4392C23.6179 9.44309 19.6384 5.32226 14.6423 5.23505C9.64621 5.14784 5.52537 9.12729 5.43817 14.1234C5.35096 19.1195 9.3304 23.2403 14.3265 23.3275C19.3226 23.4147 23.4434 19.4353 23.5306 14.4392Z" stroke="url(#paint2_radial_1_1449)"/>
<path fill-rule="evenodd" clip-rule="evenodd" d="M14.4843 10.4717C14.835 10.4717 15.1193 10.7559 15.1193 11.1066V13.6463H17.6589C18.0096 13.6463 18.2939 13.9305 18.2939 14.2812C18.2939 14.6319 18.0096 14.9162 17.6589 14.9162H15.1193V17.4558C15.1193 17.8064 14.835 18.0907 14.4843 18.0907C14.1337 18.0907 13.8494 17.8064 13.8494 17.4558V14.9162H11.3097C10.9591 14.9162 10.6748 14.6319 10.6748 14.2812C10.6748 13.9305 10.9591 13.6463 11.3097 13.6463H13.8494V11.1066C13.8494 10.7559 14.1337 10.4717 14.4843 10.4717Z" fill="white"/>
</g>
<defs>
<linearGradient id="paint0_linear_1_1449" x1="0.484375" y1="0.28125" x2="95.176" y2="11.2312" gradientUnits="userSpaceOnUse">
<stop offset="0.1583" stop-color="#8261E2" stop-opacity="0.2"/>
<stop offset="0.6301" stop-color="#171717" stop-opacity="0.2"/>
</linearGradient>
<linearGradient id="paint1_linear_1_1449" x1="14.6591" y1="4.75084" x2="14.3267" y2="23.7955" gradientUnits="userSpaceOnUse">
<stop stop-color="#B097F8"/>
<stop offset="1" stop-color="#7A58DD"/>
</linearGradient>
<radialGradient id="paint2_radial_1_1449" cx="0" cy="0" r="1" gradientUnits="userSpaceOnUse" gradientTransform="translate(13.8504 4.73673) rotate(88.5684) scale(19.0648 20.8889)">
<stop stop-color="white" stop-opacity="0.48"/>
<stop offset="1" stop-color="white" stop-opacity="0.04"/>
</radialGradient>
<clipPath id="clip0_1_1449">
<rect width="20" height="20" fill="white" transform="translate(4.48438 4.28125)"/>
</clipPath>
</defs>
</svg>
