<svg width="129" height="30" viewBox="0 0 129 30" fill="none" xmlns="http://www.w3.org/2000/svg">
<path d="M0.160156 14.7969C0.160156 6.78875 6.65203 0.296875 14.6602 0.296875H113.81C121.818 0.296875 128.31 6.78875 128.31 14.7969C128.31 22.805 121.818 29.2969 113.81 29.2969H14.6602C6.65203 29.2969 0.160156 22.805 0.160156 14.7969Z" fill="white" fill-opacity="0.02"/>
<path d="M0.160156 14.7969C0.160156 6.78875 6.65203 0.296875 14.6602 0.296875H113.81C121.818 0.296875 128.31 6.78875 128.31 14.7969C128.31 22.805 121.818 29.2969 113.81 29.2969H14.6602C6.65203 29.2969 0.160156 22.805 0.160156 14.7969Z" fill="url(#paint0_linear_1_1613)"/>
<path d="M0.660156 14.7969C0.660156 7.06489 6.92817 0.796875 14.6602 0.796875H113.81C121.542 0.796875 127.81 7.06489 127.81 14.7969C127.81 22.5289 121.542 28.7969 113.81 28.7969H14.6602C6.92817 28.7969 0.660156 22.5289 0.660156 14.7969Z" stroke="white" stroke-opacity="0.06"/>
<path d="M32.1989 18.8938V9.43925H38.1264V10.6672H33.6254V13.5479H37.8171V14.7713H33.6254V17.6658H38.1818V18.8938H32.1989ZM48.3129 9.43925V18.8938H47.0018L42.1961 11.9598H42.1084V18.8938H40.6819V9.43925H42.0022L46.8126 16.3824H46.9003V9.43925H48.3129ZM50.5775 10.6672V9.43925H57.8946V10.6672H54.9447V18.8938H53.5228V10.6672H50.5775ZM60.1616 18.8938V9.43925H66.0891V10.6672H61.5881V13.5479H65.7798V14.7713H61.5881V17.6658H66.1445V18.8938H60.1616ZM68.6446 18.8938V9.43925H72.0146C72.7471 9.43925 73.3549 9.56544 73.8381 9.8178C74.3244 10.0702 74.6875 10.4195 74.9276 10.8657C75.1676 11.3089 75.2877 11.8214 75.2877 12.403C75.2877 12.9816 75.1661 13.491 74.923 13.9311C74.6829 14.3681 74.3198 14.7082 73.8335 14.9513C73.3503 15.1945 72.7425 15.316 72.01 15.316H69.4571V14.088H71.8807C72.3424 14.088 72.7178 14.0219 73.0071 13.8895C73.2995 13.7572 73.5134 13.5648 73.6488 13.3125C73.7842 13.0601 73.852 12.757 73.852 12.403C73.852 12.046 73.7827 11.7367 73.6442 11.4751C73.5088 11.2135 73.2949 11.0135 73.0025 10.875C72.7132 10.7334 72.3331 10.6626 71.8623 10.6626H70.0711V18.8938H68.6446ZM73.3118 14.6282L75.6478 18.8938H74.0228L71.733 14.6282H73.3118ZM77.6735 18.8938V9.43925H81.0435C81.7791 9.43925 82.3884 9.57313 82.8716 9.84089C83.3548 10.1086 83.7164 10.4749 83.9565 10.9396C84.1966 11.4013 84.3166 11.9214 84.3166 12.5C84.3166 13.0817 84.195 13.6049 83.9519 14.0696C83.7118 14.5312 83.3487 14.8975 82.8624 15.1683C82.3792 15.4361 81.7714 15.5699 81.0389 15.5699H78.7214V14.3604H80.9096C81.3743 14.3604 81.7514 14.2804 82.0407 14.1204C82.33 13.9572 82.5423 13.7357 82.6777 13.4556C82.8132 13.1755 82.8809 12.857 82.8809 12.5C82.8809 12.143 82.8132 11.826 82.6777 11.549C82.5423 11.272 82.3284 11.055 82.036 10.8981C81.7467 10.7411 81.3651 10.6626 80.8912 10.6626H79.1V18.8938H77.6735ZM86.6389 18.8938V9.43925H90.0089C90.7414 9.43925 91.3493 9.56544 91.8324 9.8178C92.3187 10.0702 92.6819 10.4195 92.9219 10.8657C93.162 11.3089 93.282 11.8214 93.282 12.403C93.282 12.9816 93.1604 13.491 92.9173 13.9311C92.6773 14.3681 92.3141 14.7082 91.8278 14.9513C91.3446 15.1945 90.7368 15.316 90.0043 15.316H87.4514V14.088H89.8751C90.3367 14.088 90.7122 14.0219 91.0015 13.8895C91.2939 13.7572 91.5077 13.5648 91.6432 13.3125C91.7786 13.0601 91.8463 12.757 91.8463 12.403C91.8463 12.046 91.777 11.7367 91.6385 11.4751C91.5031 11.2135 91.2892 11.0135 90.9969 10.875C90.7076 10.7334 90.3275 10.6626 89.8566 10.6626H88.0654V18.8938H86.6389ZM91.3062 14.6282L93.6421 18.8938H92.0171L89.7273 14.6282H91.3062ZM97.0943 9.43925V18.8938H95.6678V9.43925H97.0943ZM104.978 11.9229C104.929 11.4859 104.726 11.1473 104.369 10.9073C104.012 10.6642 103.563 10.5426 103.021 10.5426C102.633 10.5426 102.298 10.6041 102.015 10.7273C101.731 10.8473 101.511 11.0135 101.354 11.2258C101.201 11.4351 101.124 11.6736 101.124 11.9414C101.124 12.1661 101.176 12.3599 101.281 12.5231C101.388 12.6862 101.528 12.8231 101.701 12.9339C101.876 13.0416 102.064 13.1324 102.264 13.2063C102.464 13.2771 102.656 13.3356 102.841 13.3817L103.764 13.6218C104.066 13.6956 104.375 13.7957 104.692 13.9219C105.009 14.048 105.303 14.2142 105.574 14.4204C105.845 14.6266 106.063 14.8821 106.229 15.1868C106.399 15.4915 106.483 15.8562 106.483 16.2809C106.483 16.8164 106.345 17.2919 106.068 17.7074C105.794 18.1228 105.395 18.4506 104.872 18.6907C104.352 18.9307 103.723 19.0508 102.984 19.0508C102.276 19.0508 101.664 18.9384 101.147 18.7138C100.63 18.4891 100.225 18.1706 99.9325 17.7581C99.6401 17.3427 99.4786 16.8502 99.4478 16.2809H100.879C100.907 16.6225 101.017 16.9072 101.211 17.1349C101.408 17.3596 101.659 17.5273 101.964 17.6381C102.272 17.7458 102.609 17.7997 102.975 17.7997C103.378 17.7997 103.736 17.7366 104.05 17.6104C104.367 17.4812 104.617 17.3027 104.798 17.0749C104.98 16.8441 105.071 16.5748 105.071 16.267C105.071 15.987 104.991 15.7577 104.831 15.5792C104.674 15.4007 104.46 15.2529 104.189 15.136C103.921 15.019 103.618 14.9159 103.279 14.8267L102.162 14.522C101.405 14.3158 100.805 14.0126 100.362 13.6125C99.9217 13.2125 99.7017 12.6831 99.7017 12.0245C99.7017 11.4797 99.8494 11.0042 100.145 10.598C100.44 10.1917 100.84 9.87628 101.345 9.65161C101.85 9.42386 102.419 9.30999 103.053 9.30999C103.693 9.30999 104.258 9.42233 104.747 9.64699C105.24 9.87166 105.628 10.181 105.911 10.5749C106.194 10.9658 106.342 11.4151 106.354 11.9229H104.978ZM108.838 18.8938V9.43925H114.765V10.6672H110.264V13.5479H114.456V14.7713H110.264V17.6658H114.821V18.8938H108.838Z" fill="#CECECE"/>
<g clip-path="url(#clip0_1_1613)">
<path d="M23.8318 14.6356C23.9234 9.38966 19.7449 5.06279 14.499 4.97122C9.25314 4.87965 4.92626 9.05807 4.83469 14.304C4.74312 19.5499 8.92154 23.8768 14.1674 23.9683C19.4134 24.0599 23.7402 19.8815 23.8318 14.6356Z" fill="url(#paint1_linear_1_1613)"/>
<path d="M23.8318 14.6356C23.9234 9.38966 19.7449 5.06279 14.499 4.97122C9.25314 4.87965 4.92626 9.05807 4.83469 14.304C4.74312 19.5499 8.92154 23.8768 14.1674 23.9683C19.4134 24.0599 23.7402 19.8815 23.8318 14.6356Z" stroke="url(#paint2_radial_1_1613)"/>
<path fill-rule="evenodd" clip-rule="evenodd" d="M8.33301 10.4697C8.33301 9.36516 9.22844 8.46973 10.333 8.46973H18.3331C19.4376 8.46973 20.3331 9.36516 20.3331 10.4697V18.4697C20.3331 19.5743 19.4376 20.4697 18.3331 20.4697H10.333C9.22844 20.4697 8.33301 19.5743 8.33301 18.4697V10.4697ZM9.66634 10.4697C9.66634 10.1015 9.96482 9.80306 10.333 9.80306H10.9997V11.1364C10.9997 11.5046 10.7012 11.8031 10.333 11.8031C9.96482 11.8031 9.66634 11.5046 9.66634 11.1364V10.4697ZM12.9997 11.8031C12.6315 11.8031 12.333 11.5046 12.333 11.1364V9.80306H13.6663V11.1364C13.6663 11.5046 13.3679 11.8031 12.9997 11.8031ZM15.6664 11.8031C15.2982 11.8031 14.9997 11.5046 14.9997 11.1364V9.80306H16.3331V11.1364C16.3331 11.5046 16.0346 11.8031 15.6664 11.8031ZM18.3331 11.8031C17.9649 11.8031 17.6664 11.5046 17.6664 11.1364V9.80306H18.3331C18.7012 9.80306 18.9997 10.1015 18.9997 10.4697V11.1364C18.9997 11.5046 18.7012 11.8031 18.3331 11.8031ZM12.9997 17.1364C12.9997 16.7682 13.2982 16.4698 13.6663 16.4698H14.9997C15.3679 16.4698 15.6664 16.7682 15.6664 17.1364V19.1364H16.9997V17.1364C16.9997 16.0318 16.1043 15.1364 14.9997 15.1364H13.6663C12.5618 15.1364 11.6663 16.0318 11.6663 17.1364V19.1364H12.9997V17.1364Z" fill="white"/>
</g>
<defs>
<linearGradient id="paint0_linear_1_1613" x1="0.160156" y1="0.296875" x2="129.701" y2="20.2867" gradientUnits="userSpaceOnUse">
<stop offset="0.1583" stop-color="#5E6AD2" stop-opacity="0.2"/>
<stop offset="0.6301" stop-color="#171717" stop-opacity="0.2"/>
</linearGradient>
<linearGradient id="paint1_linear_1_1613" x1="14.5167" y1="4.4628" x2="14.1677" y2="24.4598" gradientUnits="userSpaceOnUse">
<stop stop-color="#5E6AD2"/>
<stop offset="1" stop-color="#5790FF"/>
</linearGradient>
<radialGradient id="paint2_radial_1_1613" cx="0" cy="0" r="1" gradientUnits="userSpaceOnUse" gradientTransform="translate(13.6676 4.44798) rotate(88.5684) scale(20.018 21.9333)">
<stop stop-color="white" stop-opacity="0.48"/>
<stop offset="1" stop-color="white" stop-opacity="0.04"/>
</radialGradient>
<clipPath id="clip0_1_1613">
<rect width="21" height="21" fill="white" transform="translate(4.16016 4.29688)"/>
</clipPath>
</defs>
</svg>
