<svg width="93" height="30" viewBox="0 0 93 30" fill="none" xmlns="http://www.w3.org/2000/svg">
<path d="M0.5 14.7969C0.5 6.78875 6.99187 0.296875 15 0.296875H77.8C85.8081 0.296875 92.3 6.78875 92.3 14.7969C92.3 22.805 85.8081 29.2969 77.8 29.2969H15C6.99187 29.2969 0.5 22.805 0.5 14.7969Z" fill="white" fill-opacity="0.02"/>
<path d="M0.5 14.7969C0.5 6.78875 6.99187 0.296875 15 0.296875H77.8C85.8081 0.296875 92.3 6.78875 92.3 14.7969C92.3 22.805 85.8081 29.2969 77.8 29.2969H15C6.99187 29.2969 0.5 22.805 0.5 14.7969Z" fill="url(#paint0_linear_1_1521)"/>
<path d="M1 14.7969C1 7.06489 7.26801 0.796875 15 0.796875H77.8C85.532 0.796875 91.8 7.06489 91.8 14.7969C91.8 22.5289 85.532 28.7969 77.8 28.7969H15C7.26801 28.7969 1 22.5289 1 14.7969Z" stroke="white" stroke-opacity="0.06"/>
<path d="M32.5387 18.8938V9.43925H33.9652V13.5479H38.6786V9.43925H40.1097V18.8938H38.6786V14.7713H33.9652V18.8938H32.5387ZM51.0499 14.1665C51.0499 15.176 50.8652 16.0439 50.4959 16.7702C50.1266 17.4935 49.6203 18.0505 48.9771 18.4414C48.3369 18.8292 47.609 19.0231 46.7935 19.0231C45.9748 19.0231 45.2439 18.8292 44.6006 18.4414C43.9605 18.0505 43.4558 17.4919 43.0864 16.7656C42.7171 16.0393 42.5325 15.1729 42.5325 14.1665C42.5325 13.1571 42.7171 12.2907 43.0864 11.5674C43.4558 10.8411 43.9605 10.2841 44.6006 9.89628C45.2439 9.50542 45.9748 9.30999 46.7935 9.30999C47.609 9.30999 48.3369 9.50542 48.9771 9.89628C49.6203 10.2841 50.1266 10.8411 50.4959 11.5674C50.8652 12.2907 51.0499 13.1571 51.0499 14.1665ZM49.6372 14.1665C49.6372 13.3971 49.5126 12.7493 49.2633 12.223C49.0171 11.6936 48.6785 11.2935 48.2477 11.0227C47.8199 10.7488 47.3351 10.6118 46.7935 10.6118C46.2487 10.6118 45.7625 10.7488 45.3347 11.0227C44.9069 11.2935 44.5683 11.6936 44.319 12.223C44.0728 12.7493 43.9497 13.3971 43.9497 14.1665C43.9497 14.9359 44.0728 15.5853 44.319 16.1147C44.5683 16.641 44.9069 17.0411 45.3347 17.315C45.7625 17.5858 46.2487 17.7212 46.7935 17.7212C47.3351 17.7212 47.8199 17.5858 48.2477 17.315C48.6785 17.0411 49.0171 16.641 49.2633 16.1147C49.5126 15.5853 49.6372 14.9359 49.6372 14.1665ZM53.4784 18.8938V9.43925H56.9407C57.6116 9.43925 58.1672 9.55005 58.6073 9.77164C59.0474 9.99015 59.3767 10.2871 59.5952 10.6626C59.8137 11.035 59.923 11.4551 59.923 11.9229C59.923 12.3169 59.8506 12.6492 59.706 12.9201C59.5613 13.1878 59.3674 13.4033 59.1243 13.5664C58.8843 13.7264 58.6196 13.8434 58.3303 13.9172V14.0096C58.6442 14.025 58.9504 14.1265 59.249 14.3143C59.5506 14.4989 59.7999 14.7621 59.9968 15.1037C60.1938 15.4453 60.2923 15.8608 60.2923 16.3501C60.2923 16.8333 60.1784 17.2673 59.9507 17.652C59.726 18.0336 59.3782 18.3367 58.9073 18.5614C58.4365 18.783 57.8348 18.8938 57.1023 18.8938H53.4784ZM54.9048 17.6704H56.9638C57.647 17.6704 58.1364 17.5381 58.4318 17.2734C58.7273 17.0087 58.875 16.6779 58.875 16.2809C58.875 15.9823 58.7996 15.7084 58.6488 15.4591C58.498 15.2098 58.2826 15.0113 58.0025 14.8636C57.7255 14.7159 57.3962 14.642 57.0146 14.642H54.9048V17.6704ZM54.9048 13.5295H56.8161C57.1361 13.5295 57.4239 13.4679 57.6793 13.3448C57.9379 13.2217 58.1425 13.0493 58.2933 12.8277C58.4472 12.6031 58.5242 12.3384 58.5242 12.0337C58.5242 11.6429 58.3872 11.3151 58.1133 11.0504C57.8394 10.7857 57.4193 10.6534 56.853 10.6534H54.9048V13.5295ZM62.6342 18.8938V9.43925H66.0966C66.7675 9.43925 67.323 9.55005 67.7631 9.77164C68.2032 9.99015 68.5325 10.2871 68.751 10.6626C68.9696 11.035 69.0788 11.4551 69.0788 11.9229C69.0788 12.3169 69.0065 12.6492 68.8618 12.9201C68.7172 13.1878 68.5233 13.4033 68.2802 13.5664C68.0401 13.7264 67.7754 13.8434 67.4861 13.9172V14.0096C67.8001 14.025 68.1063 14.1265 68.4048 14.3143C68.7064 14.4989 68.9557 14.7621 69.1527 15.1037C69.3497 15.4453 69.4481 15.8608 69.4481 16.3501C69.4481 16.8333 69.3343 17.2673 69.1065 17.652C68.8818 18.0336 68.5341 18.3367 68.0632 18.5614C67.5923 18.783 66.9906 18.8938 66.2582 18.8938H62.6342ZM64.0607 17.6704H66.1197C66.8029 17.6704 67.2922 17.5381 67.5877 17.2734C67.8832 17.0087 68.0309 16.6779 68.0309 16.2809C68.0309 15.9823 67.9555 15.7084 67.8047 15.4591C67.6539 15.2098 67.4384 15.0113 67.1584 14.8636C66.8814 14.7159 66.5521 14.642 66.1704 14.642H64.0607V17.6704ZM64.0607 13.5295H65.9719C66.292 13.5295 66.5798 13.4679 66.8352 13.3448C67.0937 13.2217 67.2984 13.0493 67.4492 12.8277C67.6031 12.6031 67.68 12.3384 67.68 12.0337C67.68 11.6429 67.5431 11.3151 67.2692 11.0504C66.9952 10.7857 66.5751 10.6534 66.0089 10.6534H64.0607V13.5295ZM71.0607 9.43925H72.6811L75.1509 13.7372H75.2524L77.7222 9.43925H79.3426L75.9126 15.1822V18.8938H74.4907V15.1822L71.0607 9.43925Z" fill="#CECECE"/>
<g clip-path="url(#clip0_1_1521)">
<path d="M24.1716 14.6356C24.2632 9.38966 20.0848 5.06279 14.8389 4.97122C9.59298 4.87965 5.2661 9.05807 5.17453 14.304C5.08297 19.5499 9.26138 23.8768 14.5073 23.9683C19.7532 24.0599 24.0801 19.8815 24.1716 14.6356Z" fill="url(#paint1_linear_1_1521)"/>
<path d="M24.1716 14.6356C24.2632 9.38966 20.0848 5.06279 14.8389 4.97122C9.59298 4.87965 5.2661 9.05807 5.17453 14.304C5.08297 19.5499 9.26138 23.8768 14.5073 23.9683C19.7532 24.0599 24.0801 19.8815 24.1716 14.6356Z" stroke="url(#paint2_radial_1_1521)"/>
<path d="M15.0621 9.05113C14.914 9.13192 14.784 9.21304 14.673 9.28852C14.562 9.21304 14.432 9.13192 14.2839 9.05113C13.752 8.761 12.976 8.46973 12.0063 8.46973C10.9941 8.46973 9.983 8.87545 9.22832 9.68044C8.47045 10.4888 8.00635 11.6603 8.00635 13.1364C8.00635 15.3663 9.5882 17.2046 11.0609 18.4212C11.8152 19.0444 12.5843 19.5407 13.2008 19.8833C13.509 20.0544 13.7855 20.1908 14.009 20.2866C14.1201 20.3342 14.2256 20.3751 14.32 20.4053C14.3919 20.4283 14.5291 20.4698 14.673 20.4698C14.8169 20.4698 14.9541 20.4283 15.026 20.4053C15.1204 20.3751 15.2259 20.3342 15.337 20.2866C15.5605 20.1908 15.8371 20.0544 16.1452 19.8833C16.7618 19.5407 17.5308 19.0444 18.2851 18.4212C19.7578 17.2046 21.3397 15.3663 21.3397 13.1364C21.3397 11.6603 20.8756 10.4888 20.1177 9.68044C19.363 8.87545 18.3519 8.46973 17.3397 8.46973C16.37 8.46973 15.594 8.761 15.0621 9.05113Z" fill="white"/>
</g>
<defs>
<linearGradient id="paint0_linear_1_1521" x1="0.5" y1="0.296875" x2="94.3588" y2="10.6722" gradientUnits="userSpaceOnUse">
<stop offset="0.1583" stop-color="#108D51" stop-opacity="0.2"/>
<stop offset="0.6301" stop-color="#171717" stop-opacity="0.2"/>
</linearGradient>
<linearGradient id="paint1_linear_1_1521" x1="14.8565" y1="4.4628" x2="14.5075" y2="24.4598" gradientUnits="userSpaceOnUse">
<stop stop-color="#10834B"/>
<stop offset="1" stop-color="#09F785"/>
</linearGradient>
<radialGradient id="paint2_radial_1_1521" cx="0" cy="0" r="1" gradientUnits="userSpaceOnUse" gradientTransform="translate(14.0074 4.44798) rotate(88.5684) scale(20.018 21.9333)">
<stop stop-color="white" stop-opacity="0.48"/>
<stop offset="1" stop-color="white" stop-opacity="0.04"/>
</radialGradient>
<clipPath id="clip0_1_1521">
<rect width="21" height="21" fill="white" transform="translate(4.5 4.29688)"/>
</clipPath>
</defs>
</svg>
