<svg width="73" height="30" viewBox="0 0 73 30" fill="none" xmlns="http://www.w3.org/2000/svg">
<path d="M0.830078 14.7969C0.830078 6.78875 7.32195 0.296875 15.3301 0.296875H57.9801C65.9882 0.296875 72.4801 6.78875 72.4801 14.7969C72.4801 22.805 65.9882 29.2969 57.9801 29.2969H15.3301C7.32196 29.2969 0.830078 22.805 0.830078 14.7969Z" fill="white" fill-opacity="0.1"/>
<path d="M0.830078 14.7969C0.830078 6.78875 7.32195 0.296875 15.3301 0.296875H57.9801C65.9882 0.296875 72.4801 6.78875 72.4801 14.7969C72.4801 22.805 65.9882 29.2969 57.9801 29.2969H15.3301C7.32196 29.2969 0.830078 22.805 0.830078 14.7969Z" fill="url(#paint0_linear_1_1566)"/>
<path d="M0.830078 14.7969C0.830078 6.78875 7.32195 0.296875 15.3301 0.296875H57.9801C65.9882 0.296875 72.4801 6.78875 72.4801 14.7969C72.4801 22.805 65.9882 29.2969 57.9801 29.2969H15.3301C7.32196 29.2969 0.830078 22.805 0.830078 14.7969Z" fill="url(#paint1_radial_1_1566)"/>
<path d="M1.33008 14.7969C1.33008 7.06489 7.59809 0.796875 15.3301 0.796875H57.9801C65.7121 0.796875 71.9801 7.06489 71.9801 14.7969C71.9801 22.5289 65.7121 28.7969 57.9801 28.7969H15.3301C7.5981 28.7969 1.33008 22.5289 1.33008 14.7969Z" stroke="white" stroke-opacity="0.06"/>
<path d="M32.8688 18.8938V9.43925H36.2388C36.9744 9.43925 37.5837 9.57313 38.0669 9.84089C38.5501 10.1086 38.9118 10.4749 39.1518 10.9396C39.3919 11.4013 39.5119 11.9214 39.5119 12.5C39.5119 13.0817 39.3903 13.6049 39.1472 14.0696C38.9071 14.5312 38.544 14.8975 38.0577 15.1683C37.5745 15.4361 36.9667 15.5699 36.2342 15.5699H33.9167V14.3604H36.1049C36.5697 14.3604 36.9467 14.2804 37.236 14.1204C37.5253 13.9572 37.7376 13.7357 37.873 13.4556C38.0085 13.1755 38.0762 12.857 38.0762 12.5C38.0762 12.143 38.0085 11.826 37.873 11.549C37.7376 11.272 37.5237 11.055 37.2314 10.8981C36.9421 10.7411 36.5604 10.6626 36.0865 10.6626H34.2953V18.8938H32.8688ZM41.8342 18.8938V9.43925H45.2042C45.9367 9.43925 46.5446 9.56544 47.0278 9.8178C47.514 10.0702 47.8772 10.4195 48.1172 10.8657C48.3573 11.3089 48.4773 11.8214 48.4773 12.403C48.4773 12.9816 48.3558 13.491 48.1126 13.9311C47.8726 14.3681 47.5094 14.7082 47.0231 14.9513C46.5399 15.1945 45.9321 15.316 45.1996 15.316H42.6467V14.088H45.0704C45.532 14.088 45.9075 14.0219 46.1968 13.8895C46.4892 13.7572 46.7031 13.5648 46.8385 13.3125C46.9739 13.0601 47.0416 12.757 47.0416 12.403C47.0416 12.046 46.9724 11.7367 46.8339 11.4751C46.6984 11.2135 46.4845 11.0135 46.1922 10.875C45.9029 10.7334 45.5228 10.6626 45.0519 10.6626H43.2607V18.8938H41.8342ZM46.5015 14.6282L48.8374 18.8938H47.2124L44.9226 14.6282H46.5015ZM59.0758 14.1665C59.0758 15.176 58.8912 16.0439 58.5219 16.7702C58.1525 17.4935 57.6463 18.0505 57.003 18.4414C56.3629 18.8292 55.635 19.0231 54.8194 19.0231C54.0008 19.0231 53.2698 18.8292 52.6266 18.4414C51.9865 18.0505 51.4817 17.4919 51.1124 16.7656C50.7431 16.0393 50.5584 15.1729 50.5584 14.1665C50.5584 13.1571 50.7431 12.2907 51.1124 11.5674C51.4817 10.8411 51.9865 10.2841 52.6266 9.89628C53.2698 9.50542 54.0008 9.30999 54.8194 9.30999C55.635 9.30999 56.3629 9.50542 57.003 9.89628C57.6463 10.2841 58.1525 10.8411 58.5219 11.5674C58.8912 12.2907 59.0758 13.1571 59.0758 14.1665ZM57.6632 14.1665C57.6632 13.3971 57.5385 12.7493 57.2893 12.223C57.043 11.6936 56.7045 11.2935 56.2736 11.0227C55.8458 10.7488 55.3611 10.6118 54.8194 10.6118C54.2747 10.6118 53.7884 10.7488 53.3606 11.0227C52.9328 11.2935 52.5943 11.6936 52.345 12.223C52.0988 12.7493 51.9757 13.3971 51.9757 14.1665C51.9757 14.9359 52.0988 15.5853 52.345 16.1147C52.5943 16.641 52.9328 17.0411 53.3606 17.315C53.7884 17.5858 54.2747 17.7212 54.8194 17.7212C55.3611 17.7212 55.8458 17.5858 56.2736 17.315C56.7045 17.0411 57.043 16.641 57.2893 16.1147C57.5385 15.5853 57.6632 14.9359 57.6632 14.1665Z" fill="#CECECE"/>
<g clip-path="url(#clip0_1_1566)">
<path d="M24.5017 14.6356C24.5933 9.38966 20.4149 5.06279 15.169 4.97122C9.92306 4.87965 5.59618 9.05807 5.50461 14.304C5.41304 19.5499 9.59146 23.8768 14.8374 23.9683C20.0833 24.0599 24.4102 19.8815 24.5017 14.6356Z" fill="url(#paint2_linear_1_1566)"/>
<path d="M24.5017 14.6356C24.5933 9.38966 20.4149 5.06279 15.169 4.97122C9.92306 4.87965 5.59618 9.05807 5.50461 14.304C5.41304 19.5499 9.59146 23.8768 14.8374 23.9683C20.0833 24.0599 24.4102 19.8815 24.5017 14.6356Z" stroke="url(#paint3_radial_1_1566)"/>
<mask id="mask0_1_1566" style="mask-type:luminance" maskUnits="userSpaceOnUse" x="7" y="6" width="17" height="17">
<path d="M23.0029 6.46973H7.00293V22.4697H23.0029V6.46973Z" fill="white"/>
</mask>
<g mask="url(#mask0_1_1566)">
<path d="M12.3361 17.1367C12.3361 17.5049 12.6346 17.8034 13.0028 17.8034C13.371 17.8034 13.6694 17.5049 13.6694 17.1367C13.6694 15.5978 14.01 14.6418 14.5922 14.0595C15.1745 13.4773 16.1305 13.1367 17.6695 13.1367C18.0376 13.1367 18.3361 12.8382 18.3361 12.4701C18.3361 12.1019 18.0376 11.8034 17.6695 11.8034C16.1305 11.8034 15.1745 11.4628 14.5922 10.8806C14.01 10.2983 13.6694 9.34238 13.6694 7.80339C13.6694 7.4352 13.371 7.13672 13.0028 7.13672C12.6346 7.13672 12.3361 7.4352 12.3361 7.80339C12.3361 9.34238 11.9956 10.2983 11.4133 10.8806C10.8311 11.4628 9.87508 11.8034 8.33609 11.8034C7.9679 11.8034 7.66943 12.1019 7.66943 12.4701C7.66943 12.8382 7.9679 13.1367 8.33609 13.1367C9.87508 13.1367 10.8311 13.4773 11.4133 14.0595C11.9956 14.6418 12.3361 15.5978 12.3361 17.1367Z" fill="white"/>
<path d="M18.0027 21.1366C18.0027 21.5048 18.3012 21.8033 18.6694 21.8033C19.0375 21.8033 19.336 21.5048 19.336 21.1366C19.336 20.1764 19.5492 19.6371 19.8595 19.3268C20.1698 19.0165 20.7091 18.8033 21.6694 18.8033C22.0375 18.8033 22.336 18.5048 22.336 18.1366C22.336 17.7685 22.0375 17.47 21.6694 17.47C20.7091 17.47 20.1698 17.2568 19.8595 16.9465C19.5492 16.6362 19.336 16.0969 19.336 15.1366C19.336 14.7685 19.0375 14.47 18.6694 14.47C18.3012 14.47 18.0027 14.7685 18.0027 15.1366C18.0027 16.0969 17.7895 16.6362 17.4792 16.9465C17.1689 17.2568 16.6296 17.47 15.6694 17.47C15.3012 17.47 15.0027 17.7685 15.0027 18.1366C15.0027 18.5048 15.3012 18.8033 15.6694 18.8033C16.6296 18.8033 17.1689 19.0165 17.4792 19.3268C17.7895 19.6371 18.0027 20.1764 18.0027 21.1366Z" fill="white"/>
</g>
</g>
<defs>
<linearGradient id="paint0_linear_1_1566" x1="0.830078" y1="0.296875" x2="74.4342" y2="6.64732" gradientUnits="userSpaceOnUse">
<stop offset="0.1583" stop-color="#C070D8" stop-opacity="0.3"/>
<stop offset="0.6301" stop-color="#171717" stop-opacity="0.3"/>
</linearGradient>
<radialGradient id="paint1_radial_1_1566" cx="0" cy="0" r="1" gradientUnits="userSpaceOnUse" gradientTransform="translate(36.6551 14.7969) rotate(22.0354) scale(38.6482 26.8816)">
<stop stop-color="white" stop-opacity="0.1"/>
<stop offset="1" stop-color="white" stop-opacity="0"/>
</radialGradient>
<linearGradient id="paint2_linear_1_1566" x1="15.1866" y1="4.4628" x2="14.8376" y2="24.4598" gradientUnits="userSpaceOnUse">
<stop stop-color="#C495FF"/>
<stop offset="1" stop-color="#BF68CF"/>
</linearGradient>
<radialGradient id="paint3_radial_1_1566" cx="0" cy="0" r="1" gradientUnits="userSpaceOnUse" gradientTransform="translate(14.3375 4.44798) rotate(88.5684) scale(20.018 21.9333)">
<stop stop-color="white" stop-opacity="0.48"/>
<stop offset="1" stop-color="white" stop-opacity="0.04"/>
</radialGradient>
<clipPath id="clip0_1_1566">
<rect width="21" height="21" fill="white" transform="translate(4.83008 4.29688)"/>
</clipPath>
</defs>
</svg>
